#Gate_13_98_21.obj

v 395.2999 1.536366 311.0027
v 394.7589 1.542561 310.3564
v 394.762 -0.462455 310.3357
v 395.303 -0.4676172 310.981
v 394.3872 1.544626 310.154
v 393.4849 1.539464 310.536
v 393.488 -0.4655524 310.5143
v 394.3893 -0.4603901 310.1333
v 395.2999 1.536366 311.0027
v 395.303 -0.4676172 310.981
v 394.762 -0.462455 310.3357
v 394.7589 1.542561 310.3564
v 394.3872 1.544626 310.154
v 394.3893 -0.4603901 310.1333
v 393.488 -0.4655524 310.5143
v 393.4849 1.539464 310.536
v 405.9156 1.592119 499.9997
v 405.5976 1.537399 496.4212
v 405.6223 -0.7505083 496.4481
v 405.9403 -0.6957885 500.0276
v 405.166 1.611735 495.8679
v 404.8852 1.56734 492.9491
v 404.9099 -0.7205673 492.978
v 405.1908 -0.676172 495.8968
v 404.4536 0.8632097 485.2512
v 404.1346 0.8095223 481.6717
v 404.1594 -1.479417 481.6996
v 404.4784 -1.424698 485.2791
v 404.975 0.8270739 482.2333
v 404.656 0.7723541 478.6538
v 404.6808 -1.515553 478.6817
v 404.9998 -1.460833 482.2612
v 403.0103 0.4750088 470.2517
v 402.7294 0.4306135 467.334
v 402.7542 -1.857294 467.3629
v 403.035 -1.812899 470.2807
v 402.9731 0.2902004 466.5463
v 402.7046 0.2489024 463.834
v 402.7294 -2.039005 463.864
v 402.9979 -1.997707 466.5752
v 480.8404 5.951119 435.3333
v 482.292 6.323833 458.5675
v 482.4283 4.039023 458.5944
v 480.9767 3.667341 435.3612
v 476.5154 1.960703 457.6352
v 475.0638 1.100673 434.4144
v 474.9276 3.383418 434.3391
v 476.3792 4.244481 457.5598
v 478.9531 5.4669 434.3618
v 480.4047 5.838582 457.596
v 480.541 3.554805 457.6228
v 479.0894 3.182091 434.3896
v 478.8302 3.105689 458.9155
v 477.39 1.838874 435.7122
v 477.1958 4.116457 435.5997
v 478.6351 5.383272 458.8029
v 472.2484 0.4037698 433.8662
v 472.4321 1.705688 457.1118
v 472.1606 -0.5626026 457.2398
v 471.9768 -1.864521 433.9952
v 474.973 1.391824 410.9314
v 471.8808 0.3356282 433.9839
v 471.7352 -1.945052 433.8589
v 474.8264 -0.8888565 410.8075
v 466.5358 -2.628533 430.1979
v 469.659 -3.762162 407.1547
v 469.8469 -1.482515 407.0679
v 466.7247 -0.3488856 430.1122
v 473.5017 -0.1114223 407.5842
v 470.4085 -0.7195348 430.6522
v 470.2629 -3.00228 430.5716
v 473.3551 -2.393135 407.5036
v 467.9575 -2.916587 433.4893
v 471.0497 -3.391513 410.4182
v 471.1953 -1.107736 410.3914
v 468.1041 -0.6328091 433.4625
v 467.9947 -0.5409212 433.3014
v 467.8129 0.4017049 456.5635
v 467.5414 -1.868651 456.6534
v 467.7242 -2.812309 433.3913
v 482.8454 4.826782 412.2085
v 482.0411 5.250086 435.4727
v 481.9162 2.965276 435.5088
v 482.7195 2.541972 412.2446
v 476.3172 1.138874 433.3035
v 477.1215 0.7155694 410.0393
v 477.2464 3.000379 410.0021
v 476.4432 3.423683 433.2663
v 480.956 4.494333 412.1744
v 480.1517 4.91867 435.4386
v 480.0258 2.63386 435.4758
v 480.83 2.209523 412.2116
v 478.1395 2.093889 435.4427
v 478.9438 1.669552 412.1786
v 479.0687 3.954362 412.1414
v 478.2654 4.378699 435.4055
v 475.3075 1.67265 412.0753
v 474.5042 2.095954 435.3395
v 474.3793 -0.188856 435.3766
v 475.1826 -0.6121601 412.1125
v 473.4501 2.434597 456.7256
v 474.3318 2.966309 479.9846
v 474.5331 0.6866609 480.0291
v 473.6525 0.1549496 456.77
v 479.3743 3.970881 483.4888
v 478.4988 3.25333 460.2349
v 478.2861 5.531945 460.173
v 479.1606 6.248464 483.4279
v 470.2557 0.3149792 450.5464
v 471.1416 1.026337 473.8003
v 471.3119 -1.254344 473.8633
v 470.425 -1.966733 450.6094
v 481.1666 4.540793 483.3752
v 480.2911 3.824274 460.1203
v 480.0774 6.101857 460.0584
v 480.9529 6.818376 483.3133
v 476.438 4.760705 458.9805
v 477.3249 5.055985 482.2437
v 477.5118 2.775306 482.2653
v 476.6249 2.480025 459.0012
v 481.3865 7.242713 484.1165
v 486.97 8.283422 506.6951
v 487.2498 6.012033 506.7303
v 481.6664 4.971325 484.1516
v 481.3638 2.976633 506.881
v 475.7804 1.935924 484.3023
v 475.5005 4.207313 484.2672
v 481.084 5.248021 506.8459
v 479.3888 6.861739 483.5105
v 484.9712 7.902448 506.0891
v 485.252 5.632092 506.1242
v 479.6685 4.591383 483.5445
v 483.8324 5.1169 507.7111
v 478.3212 3.184155 485.1727
v 477.9691 5.443154 485.0653
v 483.4803 7.375899 507.6037
v 472.6138 1.813063 484.356
v 478.1622 3.33386 506.9161
v 478.4802 1.068667 506.9894
v 472.9329 -0.4521305 484.4294
v 478.6186 2.934303 508.5887
v 486.0522 4.347725 530.6067
v 486.2731 2.070143 530.6779
v 478.8405 0.6577523 508.6588
v 491.8824 5.239761 532.6199
v 484.4581 4.429289 510.5689
v 484.2206 6.704807 510.5658
v 491.645 7.515279 532.6168
v 473.8177 2.538875 503.637
v 481.2606 3.490793 525.6736
v 481.4402 1.20908 525.7191
v 473.9984 0.257162 503.6825
v 493.5643 6.063656 532.0005
v 486.1389 5.253183 509.9494
v 485.9015 7.528701 509.9453
v 493.3268 8.339173 531.9974
v 482.1154 5.235632 509.9267
v 489.5573 6.076046 531.9716
v 489.7587 3.796398 531.9902
v 482.3168 2.955984 509.9453
v 491.9279 10.27089 566.8116
v 491.8236 10.27708 567.6478
v 491.806 8.272064 567.6592
v 491.9103 8.26587 566.824
v 491.9279 10.27811 568.0577
v 492.822 10.27295 568.4594
v 492.8044 8.267935 568.4717
v 491.9103 8.273097 568.0701
v 491.9279 10.27089 566.8116
v 491.9103 8.26587 566.824
v 491.806 8.272064 567.6592
v 491.8236 10.27708 567.6478
v 491.9279 10.27811 568.0577
v 491.9103 8.273097 568.0701
v 492.8044 8.267935 568.4717
v 492.822 10.27295 568.4594

vn 0.7673043 0.00880978 -0.6412227
vn 0.7673043 0.00880978 -0.6412227
vn 0.7673043 0.00880978 -0.6412227
vn 0.7673043 0.00880978 -0.6412227
vn -0.3900245 0.00880978 -0.9207624
vn -0.3900245 0.00880978 -0.9207624
vn -0.3900245 0.00880978 -0.9207624
vn -0.3900245 0.00880978 -0.9207624
vn -0.7673293 -0.008784746 0.6411931
vn -0.7673293 -0.008784746 0.6411931
vn -0.7673293 -0.008784746 0.6411931
vn -0.7673293 -0.008784746 0.6411931
vn 0.3899995 -0.008784746 0.9207731
vn 0.3899995 -0.008784746 0.9207731
vn 0.3899995 -0.008784746 0.9207731
vn 0.3899995 -0.008784746 0.9207731
vn 0.962799 0.006854833 -0.2701316
vn 0.962799 0.006854833 -0.2701316
vn 0.962799 0.006854833 -0.2701316
vn 0.962799 0.006854833 -0.2701316
vn 0.962799 0.006854833 -0.2701316
vn 0.962799 0.006854833 -0.2701316
vn 0.962799 0.006854833 -0.2701316
vn 0.962799 0.006854833 -0.2701316
vn 0.962799 0.006854833 -0.2701316
vn 0.962799 0.006854833 -0.2701316
vn 0.962799 0.006854833 -0.2701316
vn 0.962799 0.006854833 -0.2701316
vn 0.962799 0.006854833 -0.2701316
vn 0.962799 0.006854833 -0.2701316
vn 0.962799 0.006854833 -0.2701316
vn 0.962799 0.006854833 -0.2701316
vn 0.962799 0.006854833 -0.2701316
vn 0.962799 0.006854833 -0.2701316
vn 0.962799 0.006854833 -0.2701316
vn 0.962799 0.006854833 -0.2701316
vn 0.962799 0.006854833 -0.2701316
vn 0.962799 0.006854833 -0.2701316
vn 0.962799 0.006854833 -0.2701316
vn 0.962799 0.006854833 -0.2701316
vn -0.9823735 -0.05961338 0.1771679
vn -0.9823735 -0.05961338 0.1771679
vn -0.9823735 -0.05961338 0.1771679
vn -0.9823735 -0.05961338 0.1771679
vn -0.9823735 -0.05961338 0.1771679
vn -0.9823735 -0.05961338 0.1771679
vn -0.9823735 -0.05961338 0.1771679
vn -0.9823735 -0.05961338 0.1771679
vn -0.9823735 -0.05961338 0.1771679
vn -0.9823735 -0.05961338 0.1771679
vn -0.9823735 -0.05961338 0.1771679
vn -0.9823735 -0.05961338 0.1771679
vn -0.9823735 -0.05961338 0.1771679
vn -0.9823735 -0.05961338 0.1771679
vn -0.9823735 -0.05961338 0.1771679
vn -0.9823735 -0.05961338 0.1771679
vn -0.9823735 -0.05961338 0.1771679
vn -0.9823735 -0.05961338 0.1771679
vn -0.9823735 -0.05961338 0.1771679
vn -0.9823735 -0.05961338 0.1771679
vn -0.9960582 -0.0009649566 0.08869712
vn -0.9960582 -0.0009649566 0.08869712
vn -0.9960582 -0.0009649566 0.08869712
vn -0.9960582 -0.0009649566 0.08869712
vn -0.9960582 -0.0009649566 0.08869712
vn -0.9960582 -0.0009649566 0.08869712
vn -0.9960582 -0.0009649566 0.08869712
vn -0.9960582 -0.0009649566 0.08869712
vn -0.9960582 -0.0009649566 0.08869712
vn -0.9960582 -0.0009649566 0.08869712
vn -0.9960582 -0.0009649566 0.08869712
vn -0.9960582 -0.0009649566 0.08869712
vn -0.9960582 -0.0009649566 0.08869712
vn -0.9960582 -0.0009649566 0.08869712
vn -0.9960582 -0.0009649566 0.08869712
vn -0.9960582 -0.0009649566 0.08869712
vn -0.9960582 -0.0009649566 0.08869712
vn -0.9960582 -0.0009649566 0.08869712
vn -0.9960582 -0.0009649566 0.08869712
vn -0.9960582 -0.0009649566 0.08869712
vn -0.9843284 0.0009899907 0.1763421
vn -0.9843284 0.0009899907 0.1763421
vn -0.9843284 0.0009899907 0.1763421
vn -0.9843284 0.0009899907 0.1763421
vn -0.9843284 0.0009899907 0.1763421
vn -0.9843284 0.0009899907 0.1763421
vn -0.9843284 0.0009899907 0.1763421
vn -0.9843284 0.0009899907 0.1763421
vn -0.9843284 0.0009899907 0.1763421
vn -0.9843284 0.0009899907 0.1763421
vn -0.9843284 0.0009899907 0.1763421
vn -0.9843284 0.0009899907 0.1763421
vn -0.9843284 0.0009899907 0.1763421
vn -0.9843284 0.0009899907 0.1763421
vn -0.9843284 0.0009899907 0.1763421
vn -0.9843284 0.0009899907 0.1763421
vn -0.9843284 0.0009899907 0.1763421
vn -0.9843284 0.0009899907 0.1763421
vn -0.9843284 0.0009899907 0.1763421
vn -0.9843284 0.0009899907 0.1763421
vn -0.9823735 -0.05961338 0.1771679
vn -0.9823735 -0.05961338 0.1771679
vn -0.9823735 -0.05961338 0.1771679
vn -0.9823735 -0.05961338 0.1771679
vn -0.9823735 -0.05961338 0.1771679
vn -0.9823735 -0.05961338 0.1771679
vn -0.9823735 -0.05961338 0.1771679
vn -0.9823735 -0.05961338 0.1771679
vn -0.9823735 -0.05961338 0.1771679
vn -0.9823735 -0.05961338 0.1771679
vn -0.9823735 -0.05961338 0.1771679
vn -0.9823735 -0.05961338 0.1771679
vn -0.9823735 -0.05961338 0.1771679
vn -0.9823735 -0.05961338 0.1771679
vn -0.9823735 -0.05961338 0.1771679
vn -0.9823735 -0.05961338 0.1771679
vn -0.9823735 -0.05961338 0.1771679
vn -0.9823735 -0.05961338 0.1771679
vn -0.9823735 -0.05961338 0.1771679
vn -0.9823735 -0.05961338 0.1771679
vn -0.9823735 -0.05961338 0.1771679
vn -0.9823735 -0.05961338 0.1771679
vn -0.9823735 -0.05961338 0.1771679
vn -0.9823735 -0.05961338 0.1771679
vn -0.9823735 -0.05961338 0.1771679
vn -0.9823735 -0.05961338 0.1771679
vn -0.9823735 -0.05961338 0.1771679
vn -0.9823735 -0.05961338 0.1771679
vn -0.9823735 -0.05961338 0.1771679
vn -0.9823735 -0.05961338 0.1771679
vn -0.9823735 -0.05961338 0.1771679
vn -0.9823735 -0.05961338 0.1771679
vn -0.9823735 -0.05961338 0.1771679
vn -0.9823735 -0.05961338 0.1771679
vn -0.9823735 -0.05961338 0.1771679
vn -0.9823735 -0.05961338 0.1771679
vn -0.9823735 -0.05961338 0.1771679
vn -0.9823735 -0.05961338 0.1771679
vn -0.9823735 -0.05961338 0.1771679
vn -0.9823735 -0.05961338 0.1771679
vn -0.9823735 -0.05961338 0.1771679
vn -0.9823735 -0.05961338 0.1771679
vn -0.9823735 -0.05961338 0.1771679
vn -0.9823735 -0.05961338 0.1771679
vn -0.9823735 -0.05961338 0.1771679
vn -0.9823735 -0.05961338 0.1771679
vn -0.9823735 -0.05961338 0.1771679
vn -0.9823735 -0.05961338 0.1771679
vn -0.9823735 -0.05961338 0.1771679
vn -0.9823735 -0.05961338 0.1771679
vn -0.9823735 -0.05961338 0.1771679
vn -0.9823735 -0.05961338 0.1771679
vn -0.9823735 -0.05961338 0.1771679
vn -0.9823735 -0.05961338 0.1771679
vn -0.9823735 -0.05961338 0.1771679
vn -0.9823735 -0.05961338 0.1771679
vn -0.9823735 -0.05961338 0.1771679
vn -0.9823735 -0.05961338 0.1771679
vn -0.9823735 -0.05961338 0.1771679
vn -0.9823735 -0.05961338 0.1771679
vn -0.9921483 0.00880978 -0.1247566
vn -0.9921483 0.00880978 -0.1247566
vn -0.9921483 0.00880978 -0.1247566
vn -0.9921483 0.00880978 -0.1247566
vn -0.409574 0.00880978 0.9122344
vn -0.409574 0.00880978 0.9122344
vn -0.409574 0.00880978 0.9122344
vn -0.409574 0.00880978 0.9122344
vn 0.9921232 -0.008784746 0.1249571
vn 0.9921232 -0.008784746 0.1249571
vn 0.9921232 -0.008784746 0.1249571
vn 0.9921232 -0.008784746 0.1249571
vn 0.4095489 -0.008784746 -0.9122459
vn 0.4095489 -0.008784746 -0.9122459
vn 0.4095489 -0.008784746 -0.9122459
vn 0.4095489 -0.008784746 -0.9122459

vt 0.8021876 0.3498315
vt 0.8928148 0.3498315
vt 0.8928148 0.1364336
vt 0.8021876 0.1364336
vt 0.5021996 0.3465973
vt 0.6000904 0.3465973
vt 0.6000904 0.1331994
vt 0.5021996 0.1331994
vt 0.8021876 0.3498315
vt 0.8021876 0.1364336
vt 0.8928148 0.1364336
vt 0.8928148 0.3498315
vt 0.5021996 0.3465973
vt 0.5021996 0.1331994
vt 0.6000904 0.1331994
vt 0.6000904 0.3465973
vt 0.009128887 0.3587772
vt 0.3575692 0.3566517
vt 0.3557112 0.1285736
vt 0.007278572 0.1306992
vt 0.4032765 0.3587772
vt 0.7020871 0.3566517
vt 0.7004891 0.1285736
vt 0.4016862 0.1306992
vt 0.009128887 0.3587772
vt 0.3575692 0.3566517
vt 0.3557112 0.1285736
vt 0.007278572 0.1306992
vt 0.7125161 0.3587772
vt 0.9938099 0.3566517
vt 0.9923113 0.1285736
vt 0.7110252 0.1306992
vt 0.4032765 0.3587772
vt 0.7020871 0.3566517
vt 0.7004891 0.1285736
vt 0.4016862 0.1306992
vt 0.7108876 0.3587772
vt 0.9825245 0.3566517
vt 0.9810794 0.1285736
vt 0.7094425 0.1306992
vt -0.4251752 0.7944193
vt 1.907399 0.7944193
vt 1.907399 0.4825801
vt -0.4251752 0.4825801
vt 1.504535 0.8034645
vt -0.4363688 0.8037933
vt -0.4362847 0.9945821
vt 1.504611 0.9942533
vt -0.4362924 0.9945821
vt 1.504611 0.9942533
vt 1.504535 0.8034645
vt -0.4363688 0.8037933
vt 0.9339499 0.4825801
vt -1.398624 0.4825801
vt -1.398624 0.7944193
vt 0.9339499 0.7944193
vt -0.8913016 0.7944193
vt 1.441273 0.7944193
vt 1.441273 0.4825801
vt -0.8913016 0.4825801
vt -0.4251752 0.7944193
vt 1.907399 0.7944193
vt 1.907399 0.4825801
vt -0.4251752 0.4825801
vt 1.504535 0.8034645
vt -0.4363688 0.8037933
vt -0.4362847 0.9945821
vt 1.504611 0.9942533
vt -0.4362924 0.9945821
vt 1.504611 0.9942533
vt 1.504535 0.8034645
vt -0.4363688 0.8037933
vt 0.9339499 0.4825801
vt -1.398624 0.4825801
vt -1.398624 0.7944193
vt 0.9339499 0.7944193
vt -0.8913016 0.7944193
vt 1.441273 0.7944193
vt 1.441273 0.4825801
vt -0.8913016 0.4825801
vt -0.4251752 0.7944193
vt 1.907399 0.7944193
vt 1.907399 0.4825801
vt -0.4251752 0.4825801
vt 1.504535 0.8034645
vt -0.4363688 0.8037933
vt -0.4362847 0.9945821
vt 1.504611 0.9942533
vt -0.4362924 0.9945821
vt 1.504611 0.9942533
vt 1.504535 0.8034645
vt -0.4363688 0.8037933
vt 0.9339499 0.4825801
vt -1.398624 0.4825801
vt -1.398624 0.7944193
vt 0.9339499 0.7944193
vt -0.8913016 0.7944193
vt 1.441273 0.7944193
vt 1.441273 0.4825801
vt -0.8913016 0.4825801
vt -0.4251752 0.7944193
vt 1.907399 0.7944193
vt 1.907399 0.4825801
vt -0.4251752 0.4825801
vt 1.504535 0.8034645
vt -0.4363688 0.8037933
vt -0.4362847 0.9945821
vt 1.504611 0.9942533
vt -0.4362924 0.9945821
vt 1.504611 0.9942533
vt 1.504535 0.8034645
vt -0.4363688 0.8037933
vt 0.9339499 0.4825801
vt -1.398624 0.4825801
vt -1.398624 0.7944193
vt 0.9339499 0.7944193
vt -0.8913016 0.7944193
vt 1.441273 0.7944193
vt 1.441273 0.4825801
vt -0.8913016 0.4825801
vt -0.4251752 0.7944193
vt 1.907399 0.7944193
vt 1.907399 0.4825801
vt -0.4251752 0.4825801
vt 1.504535 0.8034645
vt -0.4363688 0.8037933
vt -0.4362847 0.9945821
vt 1.504611 0.9942533
vt -0.4362924 0.9945821
vt 1.504611 0.9942533
vt 1.504535 0.8034645
vt -0.4363688 0.8037933
vt 0.9339499 0.4825801
vt -1.398624 0.4825801
vt -1.398624 0.7944193
vt 0.9339499 0.7944193
vt -0.8913016 0.7944193
vt 1.441273 0.7944193
vt 1.441273 0.4825801
vt -0.8913016 0.4825801
vt -0.4251752 0.7944193
vt 1.907399 0.7944193
vt 1.907399 0.4825801
vt -0.4251752 0.4825801
vt 1.504535 0.8034645
vt -0.4363688 0.8037933
vt -0.4362847 0.9945821
vt 1.504611 0.9942533
vt -0.4362924 0.9945821
vt 1.504611 0.9942533
vt 1.504535 0.8034645
vt -0.4363688 0.8037933
vt 0.9339499 0.4825801
vt -1.398624 0.4825801
vt -1.398624 0.7944193
vt 0.9339499 0.7944193
vt -0.8913016 0.7944193
vt 1.441273 0.7944193
vt 1.441273 0.4825801
vt -0.8913016 0.4825801
vt 0.8021876 0.3498315
vt 0.8928148 0.3498315
vt 0.8928148 0.1364336
vt 0.8021876 0.1364336
vt 0.5021996 0.3465973
vt 0.6000904 0.3465973
vt 0.6000904 0.1331994
vt 0.5021996 0.1331994
vt 0.8021876 0.3498315
vt 0.8021876 0.1364336
vt 0.8928148 0.1364336
vt 0.8928148 0.3498315
vt 0.5021996 0.3465973
vt 0.5021996 0.1331994
vt 0.6000904 0.1331994
vt 0.6000904 0.3465973

g Gate_13_98_21
usemtl Gate_13_98_21
usemap Gate_13_98_21
f 1/1/1 3/3/3 2/2/2
f 1/1/1 4/4/4 3/3/3
f 5/5/5 7/7/7 6/6/6
f 5/5/5 8/8/8 7/7/7
f 9/9/9 11/11/11 10/10/10
f 9/9/9 12/12/12 11/11/11
f 13/13/13 15/15/15 14/14/14
f 13/13/13 16/16/16 15/15/15
f 17/17/17 19/19/19 18/18/18
f 17/17/17 20/20/20 19/19/19
f 21/21/21 23/23/23 22/22/22
f 21/21/21 24/24/24 23/23/23
f 25/25/25 27/27/27 26/26/26
f 25/25/25 28/28/28 27/27/27
f 29/29/29 31/31/31 30/30/30
f 29/29/29 32/32/32 31/31/31
f 33/33/33 35/35/35 34/34/34
f 33/33/33 36/36/36 35/35/35
f 37/37/37 39/39/39 38/38/38
f 37/37/37 40/40/40 39/39/39
f 41/41/41 43/43/43 42/42/42
f 41/41/41 44/44/44 43/43/43
f 45/45/45 47/47/47 46/46/46
f 45/45/45 48/48/48 47/47/47
f 49/49/49 51/51/51 50/50/50
f 49/49/49 52/52/52 51/51/51
f 53/53/53 55/55/55 54/54/54
f 53/53/53 56/56/56 55/55/55
f 57/57/57 59/59/59 58/58/58
f 57/57/57 60/60/60 59/59/59
f 61/61/61 63/63/63 62/62/62
f 61/61/61 64/64/64 63/63/63
f 65/65/65 67/67/67 66/66/66
f 65/65/65 68/68/68 67/67/67
f 69/69/69 71/71/71 70/70/70
f 69/69/69 72/72/72 71/71/71
f 73/73/73 75/75/75 74/74/74
f 73/73/73 76/76/76 75/75/75
f 77/77/77 79/79/79 78/78/78
f 77/77/77 80/80/80 79/79/79
f 81/81/81 83/83/83 82/82/82
f 81/81/81 84/84/84 83/83/83
f 85/85/85 87/87/87 86/86/86
f 85/85/85 88/88/88 87/87/87
f 89/89/89 91/91/91 90/90/90
f 89/89/89 92/92/92 91/91/91
f 93/93/93 95/95/95 94/94/94
f 93/93/93 96/96/96 95/95/95
f 97/97/97 99/99/99 98/98/98
f 97/97/97 100/100/100 99/99/99
f 101/101/101 103/103/103 102/102/102
f 101/101/101 104/104/104 103/103/103
f 105/105/105 107/107/107 106/106/106
f 105/105/105 108/108/108 107/107/107
f 109/109/109 111/111/111 110/110/110
f 109/109/109 112/112/112 111/111/111
f 113/113/113 115/115/115 114/114/114
f 113/113/113 116/116/116 115/115/115
f 117/117/117 119/119/119 118/118/118
f 117/117/117 120/120/120 119/119/119
f 121/121/121 123/123/123 122/122/122
f 121/121/121 124/124/124 123/123/123
f 125/125/125 127/127/127 126/126/126
f 125/125/125 128/128/128 127/127/127
f 129/129/129 131/131/131 130/130/130
f 129/129/129 132/132/132 131/131/131
f 133/133/133 135/135/135 134/134/134
f 133/133/133 136/136/136 135/135/135
f 137/137/137 139/139/139 138/138/138
f 137/137/137 140/140/140 139/139/139
f 141/141/141 143/143/143 142/142/142
f 141/141/141 144/144/144 143/143/143
f 145/145/145 147/147/147 146/146/146
f 145/145/145 148/148/148 147/147/147
f 149/149/149 151/151/151 150/150/150
f 149/149/149 152/152/152 151/151/151
f 153/153/153 155/155/155 154/154/154
f 153/153/153 156/156/156 155/155/155
f 157/157/157 159/159/159 158/158/158
f 157/157/157 160/160/160 159/159/159
f 161/161/161 163/163/163 162/162/162
f 161/161/161 164/164/164 163/163/163
f 165/165/165 167/167/167 166/166/166
f 165/165/165 168/168/168 167/167/167
f 169/169/169 171/171/171 170/170/170
f 169/169/169 172/172/172 171/171/171
f 173/173/173 175/175/175 174/174/174
f 173/173/173 176/176/176 175/175/175
