#Ground_Nor_2_291_12.obj

v 1384.539 -78.21606 -899.1121
v 1384.539 164.4211 -899.1121
v 1798.905 164.4211 -278.9679
v 1798.905 -78.21606 -278.9679
v 1944.411 164.4211 452.54
v 1944.411 -78.21606 452.54
v 1798.905 164.4211 1184.048
v 1798.905 -78.21606 1184.048
v 1384.539 160.5597 1804.192
v 1384.539 -78.21606 1804.192
v 599.7866 -78.21606 2268.942
v 599.7866 161.737 2268.942
v -530.8622 -78.21606 2259.27
v -530.8622 163.4045 2259.27
v -1318.765 -78.21606 1804.192
v -1318.765 164.5377 1804.192
v -1733.135 164.4211 1184.048
v -1733.135 -78.21606 1184.048
v -1878.641 164.4211 452.54
v -1878.641 -78.21606 452.54
v -1733.135 164.4211 -278.9679
v -1733.135 -78.21606 -278.9679
v -1318.765 164.4211 -899.1121
v -1318.765 -78.21606 -899.1121
v -698.6248 164.4211 -1313.478
v -698.6248 -78.21606 -1313.478
v 32.88709 164.4211 -1458.984
v 32.88709 -78.21606 -1458.984
v 764.3949 164.4211 -1313.478
v 764.3949 -78.21606 -1313.478
v 1384.539 164.4211 -899.1121
v 1384.539 -78.21606 -899.1121

vn -0.7067448 0.0009775171 0.7074679
vn -0.7067448 0.0009775171 0.7074679
vn -0.9237537 0.0009775171 0.3829859
vn -0.9237537 0.0009775171 0.3829859
vn -0.9999995 0.0009775166 0
vn -0.9999995 0.0009775166 0
vn -0.9237537 0.0009775171 -0.3829859
vn -0.9237537 0.0009775171 -0.3829859
vn -0.6871945 0.0009775171 -0.7264729
vn -0.6871945 0.0009775171 -0.7264729
vn -0.2609971 0.0009775171 -0.9653391
vn -0.259042 0.0009775171 -0.9658656
vn 0.2629521 0.0009775171 -0.9648084
vn 0.2629521 0.0009775171 -0.9648084
vn 0.6832845 0.0009775171 -0.7301516
vn 0.6832845 0.0009775171 -0.7301516
vn 0.9237537 0.0009775171 -0.3829859
vn 0.9237537 0.0009775171 -0.3829859
vn 0.9999995 0.0009775166 0
vn 0.9999995 0.0009775166 0
vn 0.9237537 0.0009775171 0.3829859
vn 0.9237537 0.0009775171 0.3829859
vn 0.7067448 0.0009775171 0.7074679
vn 0.7067448 0.0009775171 0.7074679
vn 0.3822092 0.0009775171 0.9240753
vn 0.3822092 0.0009775171 0.9240753
vn -0.0009775171 0.0009775171 0.999999
vn -0.0009775171 0.0009775171 0.999999
vn -0.3822092 0.0009775171 0.9240753
vn -0.3822092 0.0009775171 0.9240753
vn -0.7067448 0.0009775171 0.7074679
vn -0.7067448 0.0009775171 0.7074679

vt 27.83156 0.09193348
vt 27.83156 0.9963166
vt 26.08783 0.9963166
vt 26.08783 0.09193348
vt 24.3441 0.9963166
vt 24.3441 0.09193348
vt 22.60036 0.9963166
vt 22.60036 0.09193348
vt 20.85663 0.9963166
vt 20.85663 0.09193348
vt 18.72431 0.09193348
vt 18.72431 0.9963166
vt 16.0808 0.09193348
vt 16.0808 0.9963166
vt 13.95354 0.09193348
vt 13.95354 0.9963166
vt 12.20981 0.9963166
vt 12.20981 0.09193348
vt 10.46607 0.9963166
vt 10.46607 0.09193348
vt 8.72234 0.9963166
vt 8.72234 0.09193348
vt 6.978604 0.9963166
vt 6.978604 0.09193348
vt 5.234869 0.9963166
vt 5.234869 0.09193348
vt 3.491135 0.9963166
vt 3.491135 0.09193348
vt 1.7474 0.9963166
vt 1.7474 0.09193348
vt 0.003703789 0.9963166
vt 0.003703789 0.09193348

g Ground_Nor_2_291_12
usemtl Ground_Nor_2_291_12
usemap Ground_Nor_2_291_12
f 1/1/1 3/3/3 2/2/2
f 1/1/1 4/4/4 3/3/3
f 4/4/4 5/5/5 3/3/3
f 4/4/4 6/6/6 5/5/5
f 6/6/6 7/7/7 5/5/5
f 6/6/6 8/8/8 7/7/7
f 8/8/8 9/9/9 7/7/7
f 8/8/8 10/10/10 9/9/9
f 11/11/11 9/9/9 10/10/10
f 11/11/11 12/12/12 9/9/9
f 12/12/12 11/11/11 13/13/13
f 12/12/12 13/13/13 14/14/14
f 15/15/15 14/14/14 13/13/13
f 15/15/15 16/16/16 14/14/14
f 15/15/15 17/17/17 16/16/16
f 15/15/15 18/18/18 17/17/17
f 18/18/18 19/19/19 17/17/17
f 18/18/18 20/20/20 19/19/19
f 20/20/20 21/21/21 19/19/19
f 20/20/20 22/22/22 21/21/21
f 22/22/22 23/23/23 21/21/21
f 22/22/22 24/24/24 23/23/23
f 24/24/24 25/25/25 23/23/23
f 24/24/24 26/26/26 25/25/25
f 26/26/26 27/27/27 25/25/25
f 26/26/26 28/28/28 27/27/27
f 28/28/28 29/29/29 27/27/27
f 28/28/28 30/30/30 29/29/29
f 30/30/30 31/31/31 29/29/29
f 30/30/30 32/32/32 31/31/31
