#Ground_Nor_2_291_14.obj

v -189.9084 -1.079254 -12.68373
v -181.9484 -1.722161 -51.04922
v -181.9484 0.05386972 -51.04922
v -189.9084 0.6967769 -12.68373
v -175.5515 -0.5368013 39.54042
v -175.5515 1.23923 39.54042
v -137.8168 -1.292217 65.59826
v -137.8168 0.483814 65.59826
v -88.23261 -2.40525 72.0434
v -88.23261 -0.6292192 72.0434
v -46.53204 -3.498193 56.39665
v -46.53204 -1.718143 56.39665
v -11.14402 -4.020555 21.07693
v -11.14402 -2.244524 21.07693
v -4.405547 -4.687571 -18.12433
v -4.405547 -2.91154 -18.12433
v -12.52627 -5.310387 -54.47672
v -12.52627 -3.534356 -54.47672
v -37.15363 -5.37066 -86.94755
v -37.15363 -3.594629 -86.94755
v -76.21426 -4.796062 -107.3116
v -76.21426 -3.02003 -107.3116
v -122.4955 -3.799555 -108.3242
v -122.4955 -2.023524 -108.3242
v -160.6561 -2.682504 -87.40562
v -160.6561 -0.9064729 -87.40562
v -181.9484 -1.722161 -51.04922
v -181.9484 0.05386972 -51.04922

vn -0.9745846 -0.1925709 0.1144612
vn -0.943304 -0.1867058 -0.2744422
vn -0.9472141 0.1827957 -0.2633842
vn -0.9745846 0.1867058 0.1237977
vn -0.7458456 -0.202346 0.634642
vn -0.7380254 0.1925709 0.6467109
vn -0.2727273 -0.1964809 0.9418148
vn -0.2609971 0.1847507 0.9474955
vn 0.1945259 -0.1964809 0.9610177
vn 0.2082111 0.1847507 0.9604766
vn 0.597263 -0.1925709 0.7785842
vn 0.6089932 0.1827957 0.7718245
vn 0.831867 -0.3098729 0.4604085
vn 0.8494624 0.3176931 0.4212894
vn 0.9745846 -0.1925709 -0.1144612
vn 0.9765396 0.1808407 -0.1169061
vn 0.8514174 -0.1925709 -0.4878574
vn 0.8475074 0.1827957 -0.4983142
vn 0.5659824 -0.1925709 -0.8016111
vn 0.5581623 0.1847507 -0.8089017
vn 0.1612903 -0.1925709 -0.9679369
vn 0.1515152 0.1867058 -0.9706617
vn -0.315738 -0.1945259 -0.9286922
vn -0.3255132 0.1906158 -0.9261246
vn -0.7419355 -0.1945259 -0.6416318
vn -0.7497556 0.1906158 -0.6336656
vn -0.943304 -0.1867058 -0.2744422
vn -0.9472141 0.1827957 -0.2633842

vt 18.62347 0.8996896
vt 19.97885 0.8996896
vt 19.97885 0.9996142
vt 18.62347 0.9996142
vt 16.7499 0.8996896
vt 16.7499 0.9996142
vt 15.16361 0.8996896
vt 15.16361 0.9996142
vt 13.43367 0.8996896
vt 13.43367 0.9996142
vt 11.89263 0.8996896
vt 11.89263 0.9996142
vt 10.16323 0.8996896
vt 10.16323 0.9996142
vt 8.787294 0.8996896
vt 8.787294 0.9996142
vt 7.498703 0.8996896
vt 7.498703 0.9996142
vt 6.089176 0.8996896
vt 6.089176 0.9996142
vt 4.565459 0.8996896
vt 4.565459 0.9996142
vt 2.963904 0.8996896
vt 2.963904 0.9996142
vt 1.458133 0.8996896
vt 1.458133 0.9996142
vt 0.0004828873 0.8996896
vt 0.0004828873 0.9996142

g Ground_Nor_2_291_14
usemtl Ground_Nor_2_291_14
usemap Ground_Nor_2_291_14
f 1/1/1 3/3/3 2/2/2
f 1/1/1 4/4/4 3/3/3
f 5/5/5 4/4/4 1/1/1
f 5/5/5 6/6/6 4/4/4
f 7/7/7 6/6/6 5/5/5
f 7/7/7 8/8/8 6/6/6
f 9/9/9 8/8/8 7/7/7
f 9/9/9 10/10/10 8/8/8
f 11/11/11 10/10/10 9/9/9
f 11/11/11 12/12/12 10/10/10
f 13/13/13 12/12/12 11/11/11
f 13/13/13 14/14/14 12/12/12
f 15/15/15 14/14/14 13/13/13
f 15/15/15 16/16/16 14/14/14
f 17/17/17 16/16/16 15/15/15
f 17/17/17 18/18/18 16/16/16
f 19/19/19 18/18/18 17/17/17
f 19/19/19 20/20/20 18/18/18
f 21/21/21 20/20/20 19/19/19
f 21/21/21 22/22/22 20/20/20
f 23/23/23 22/22/22 21/21/21
f 23/23/23 24/24/24 22/22/22
f 25/25/25 24/24/24 23/23/23
f 25/25/25 26/26/26 24/24/24
f 27/27/27 26/26/26 25/25/25
f 27/27/27 28/28/28 26/26/26
