#prop_Nor_5.001_293_40.obj

v 191.8268 3.954224 -83.62842
v 196.8943 3.954224 -61.70137
v 196.8943 7.896386 -61.70137
v 191.8268 7.896386 -83.62842
v 195.6411 7.896386 -61.39758
v 196.8943 7.896386 -61.70137
v 196.8943 3.954224 -61.70137
v 195.6411 3.954224 -61.39758
v 195.6411 7.896386 -61.39758
v 195.6411 3.954224 -61.39758
v 190.5729 3.954224 -83.32462
v 190.5729 7.896386 -83.32462
v 274.6878 6.743412 58.37038
v 289.7457 6.743412 41.64462
v 289.7457 10.68557 41.64462
v 274.6878 10.68557 58.37038
v 290.7133 10.68557 42.49792
v 289.7457 10.68557 41.64462
v 289.7457 6.743412 41.64462
v 290.7133 6.743412 42.49734
v 290.7133 10.68557 42.49792
v 290.7133 6.743412 42.49734
v 275.6555 6.743412 59.22308
v 275.6555 10.68557 59.22308

vn 0.9745846 0.0009775171 -0.2240177
vn 0.9745846 0.0009775171 -0.2240177
vn 0.9745846 0.0009775171 -0.2240177
vn 0.9745846 0.0009775171 -0.2240177
vn 0.2355816 -0.0009775171 0.9718541
vn 0.2355816 -0.0009775171 0.9718541
vn 0.2355816 -0.0009775171 0.9718541
vn 0.2355816 -0.0009775171 0.9718541
vn -0.9745846 -0.0009775171 0.2240177
vn -0.9745846 -0.0009775171 0.2240177
vn -0.9745846 -0.0009775171 0.2240177
vn -0.9745846 -0.0009775171 0.2240177
vn -0.7438905 0.0009775171 -0.6683008
vn -0.7438905 0.0009775171 -0.6683008
vn -0.7438905 0.0009775171 -0.6683008
vn -0.7438905 0.0009775171 -0.6683008
vn 0.6617791 -0.0009775171 -0.7496983
vn 0.6617791 -0.0009775171 -0.7496983
vn 0.6617791 -0.0009775171 -0.7496983
vn 0.6617791 -0.0009775171 -0.7496983
vn 0.7438905 -0.0009775171 0.6683008
vn 0.7438905 -0.0009775171 0.6683008
vn 0.7438905 -0.0009775171 0.6683008
vn 0.7438905 -0.0009775171 0.6683008

vt 0.9915881 0.7134945
vt 0.001911099 0.7134945
vt 0.001911099 0.8560484
vt 0.9915881 0.8560484
vt 0.5166163 0.8181963
vt 0.5340496 0.8181963
vt 0.5340496 0.7568578
vt 0.5166163 0.7568578
vt 0.9915881 0.8564063
vt 0.9915881 0.7134945
vt 0.001911099 0.7134945
vt 0.001911099 0.8564063
vt 1.000003 0.8641158
vt 0.01187004 0.8641158
vt 0.01187004 0.9981217
vt 1.000003 0.9981217
vt 0.5049397 0.9953201
vt 0.5160744 0.9953201
vt 0.5160744 0.8679091
vt 0.5049397 0.8679091
vt 1.000003 0.9984489
vt 1.000003 0.8641158
vt 0.01187004 0.8641158
vt 0.01187004 0.9984489

g prop_Nor_5.001_293_40
usemtl prop_Nor_5.001_293_40
usemap prop_Nor_5.001_293_40
f 1/1/1 3/3/3 2/2/2
f 1/1/1 4/4/4 3/3/3
f 5/5/5 7/7/7 6/6/6
f 5/5/5 8/8/8 7/7/7
f 9/9/9 11/11/11 10/10/10
f 9/9/9 12/12/12 11/11/11
f 13/13/13 15/15/15 14/14/14
f 13/13/13 16/16/16 15/15/15
f 17/17/17 19/19/19 18/18/18
f 17/17/17 20/20/20 19/19/19
f 21/21/21 23/23/23 22/22/22
f 21/21/21 24/24/24 23/23/23
