#Prop02_191_33.obj

v -10.79131 -6.79726 -130.0611
v -10.67401 -6.818798 -112.1745
v -10.67055 -5.194278 -112.1726
v -10.78824 -5.172741 -130.0592
v -10.93246 -6.774954 -147.9962
v -10.81516 -6.789568 -130.11
v -10.8117 -5.16505 -130.1088
v -10.929 -5.150435 -147.995
v -11.20398 -6.79726 -166.1747
v -11.08668 -6.818798 -148.2885
v -11.08322 -5.194278 -148.2866
v -11.20052 -5.172741 -166.1728
v -11.34513 -6.774954 -184.1102
v -11.22783 -6.789568 -166.2236
v -11.22436 -5.16505 -166.2224
v -11.34167 -5.150435 -184.1087
v 33.81681 -6.79726 -165.7886
v 33.69951 -6.818798 -183.6749
v 33.69605 -5.194278 -183.6768
v 33.81335 -5.172741 -165.7905
v 33.95796 -6.774954 -147.8531
v 33.84066 -6.789568 -165.7394
v 33.8372 -5.16505 -165.7409
v 33.9545 -5.150435 -147.8543
v 34.22948 -6.79726 -129.6746
v 34.11218 -6.818798 -147.5608
v 34.10872 -5.194278 -147.5631
v 34.22602 -5.172741 -129.6765
v 34.37062 -6.774954 -111.7395
v 34.25294 -6.789568 -129.6257
v 34.24986 -5.16505 -129.6269
v 34.36716 -5.150435 -111.7407

vn 0.9999957 -0.002932539 0
vn 0.9999957 -0.002932539 0
vn 0.9999957 -0.002932539 0
vn 0.9999957 -0.002932539 0
vn 0.9999957 -0.002932539 0
vn 0.9999957 -0.002932539 0
vn 0.9999957 -0.002932539 0
vn 0.9999957 -0.002932539 0
vn 0.9999957 -0.002932539 0
vn 0.9999957 -0.002932539 0
vn 0.9999957 -0.002932539 0
vn 0.9999957 -0.002932539 0
vn 0.9999957 -0.002932539 0
vn 0.9999957 -0.002932539 0
vn 0.9999957 -0.002932539 0
vn 0.9999957 -0.002932539 0
vn -0.9999957 -0.002932539 0
vn -0.9999957 -0.002932539 0
vn -0.9999957 -0.002932539 0
vn -0.9999957 -0.002932539 0
vn -0.9999957 -0.002932539 0
vn -0.9999957 -0.002932539 0
vn -0.9999957 -0.002932539 0
vn -0.9999957 -0.002932539 0
vn -0.9999957 -0.002932539 0
vn -0.9999957 -0.002932539 0
vn -0.9999957 -0.002932539 0
vn -0.9999957 -0.002932539 0
vn -0.9999957 -0.002932539 0
vn -0.9999957 -0.002932539 0
vn -0.9999957 -0.002932539 0
vn -0.9999957 -0.002932539 0

vt 0.8267333 0.6414565
vt 0.328068 0.6414565
vt 0.328068 0.7392811
vt 0.8267333 0.7392811
vt 0.9857002 0.8566853
vt 0.6517124 0.8566853
vt 0.6517124 0.967796
vt 0.9857002 0.967796
vt 0.8267333 0.6414565
vt 0.328068 0.6414565
vt 0.328068 0.7392811
vt 0.8267333 0.7392811
vt 0.9857002 0.8566853
vt 0.6517124 0.8566853
vt 0.6517124 0.967796
vt 0.9857002 0.967796
vt 0.8267333 0.6414565
vt 0.328068 0.6414565
vt 0.328068 0.7392811
vt 0.8267333 0.7392811
vt 0.9857002 0.8566853
vt 0.6517124 0.8566853
vt 0.6517124 0.967796
vt 0.9857002 0.967796
vt 0.8267333 0.6414565
vt 0.328068 0.6414565
vt 0.328068 0.7392811
vt 0.8267333 0.7392811
vt 0.9857002 0.8566853
vt 0.6517124 0.8566853
vt 0.6517124 0.967796
vt 0.9857002 0.967796

g Prop02_191_33
usemtl Prop02_191_33
usemap Prop02_191_33
f 1/1/1 3/3/3 2/2/2
f 1/1/1 4/4/4 3/3/3
f 5/5/5 7/7/7 6/6/6
f 5/5/5 8/8/8 7/7/7
f 9/9/9 11/11/11 10/10/10
f 9/9/9 12/12/12 11/11/11
f 13/13/13 15/15/15 14/14/14
f 13/13/13 16/16/16 15/15/15
f 17/17/17 19/19/19 18/18/18
f 17/17/17 20/20/20 19/19/19
f 21/21/21 23/23/23 22/22/22
f 21/21/21 24/24/24 23/23/23
f 25/25/25 27/27/27 26/26/26
f 25/25/25 28/28/28 27/27/27
f 29/29/29 31/31/31 30/30/30
f 29/29/29 32/32/32 31/31/31
