#prop_Nor_3_292_0.obj

v 215.0791 7.95211 131.9487
v 118.3311 5.233485 -59.16228
v 172.0048 6.139842 -22.23947
v 116.7393 6.550568 67.88011
v 90.85675 7.396472 160.5196
v -36.57947 6.84039 140.8856
v 60.01974 5.653102 25.5845
v 64.65689 4.327128 -96.08553
v -104.8447 1.158214 75.64748
v 1.534637 2.455295 -3.050858
v 1.293274 -0.5558181 -133.4128
v -45.46524 0.4710009 -28.36617
v -214.2178 -3.261997 29.20682
v -91.04486 -1.978696 -64.02968
v -117.1652 -2.484993 -138.8021
v -208.5827 -2.873495 -87.59673

vn 0.1847507 0.9784946 0.0917355
vn 0.1515152 0.9550342 -0.2548585
vn 0.2043011 0.9550342 -0.2148739
vn 0.00684246 0.9999766 0
vn 0.01857283 0.9726295 0.2316178
vn -0.1378299 0.9608993 0.2401572
vn -0.03809549 0.9992741 0
vn 0.14565 0.9550342 -0.2582552
vn -0.1612903 0.9726295 0.1672638
vn -0.05376344 0.998045 -0.03187041
vn 0.07917888 0.943304 -0.3223481
vn -0.05376344 0.998045 -0.03187041
vn -0.2277615 0.9491691 0.2172618
vn -0.008797314 0.9999614 0
vn -0.028348 0.9706745 -0.2387203
vn -0.1730205 0.9784946 -0.1123039

vt 4.607693 0.4555405
vt 1.572844 1.6455
vt 2.740786 1.571152
vt 2.494544 0.5613048
vt 2.755841 -0.3391711
vt 0.4910274 -0.7396985
vt 1.235738 0.66763
vt 0.4050177 1.719906
vt -1.133612 -0.4898016
vt 0.04823487 0.6504183
vt -0.9297706 1.754678
vt -0.9227216 0.6561233
vt -3.299933 -0.5823187
vt -1.947527 0.7558442
vt -2.93964 1.273633
vt -4.07752 0.4330494

g prop_Nor_3_292_0
usemtl prop_Nor_3_292_0
usemap prop_Nor_3_292_0
f 1/1/1 3/3/3 2/2/2
f 1/1/1 2/2/2 4/4/4
f 5/5/5 1/1/1 4/4/4
f 6/6/6 5/5/5 4/4/4
f 7/7/7 4/4/4 2/2/2
f 6/6/6 4/4/4 7/7/7
f 7/7/7 2/2/2 8/8/8
f 9/9/9 6/6/6 7/7/7
f 10/10/10 7/7/7 8/8/8
f 9/9/9 7/7/7 10/10/10
f 10/10/10 8/8/8 11/11/11
f 9/9/9 10/10/10 12/12/12
f 10/10/10 11/11/11 12/12/12
f 13/13/13 9/9/9 12/12/12
f 14/14/14 12/12/12 11/11/11
f 13/13/13 12/12/12 14/14/14
f 14/14/14 11/11/11 15/15/15
f 13/13/13 14/14/14 16/16/16
f 14/14/14 15/15/15 16/16/16
