#prop_Nor_4.001_297_33.obj

v -47.07828 1.036223 480.7083
v -44.55008 1.036223 476.6005
v -44.07227 3.036483 479.7265
v -44.55008 1.036223 476.6005
v -41.06577 1.036223 478.7451
v -44.07227 3.036483 479.7265
v -41.06577 1.036223 478.7451
v -43.59445 1.036223 482.8528
v -44.07227 3.036483 479.7265
v -43.59445 1.036223 482.8528
v -47.07828 1.036223 480.7083
v -44.07227 3.036483 479.7265
v -44.44373 -1.485884 477.773
v -45.98398 -1.485884 480.275
v -49.68234 -6.674848 477.9988
v -48.14212 -6.674848 475.4964
v -41.94458 -1.54116 479.2206
v -43.56586 -1.54116 481.8541
v -46.19946 -1.54116 480.2328
v -44.57864 -1.54116 477.5992
v -78.11838 -0.1348886 402.5478
v -78.90393 -0.1348886 408.0839
v -78.90393 20.0148 408.0839
v -78.11838 20.0148 402.5478
v -78.90393 -0.1348886 408.0839
v -86.25992 -0.1348886 407.0402
v -86.25992 20.0148 407.0402
v -78.90393 20.0148 408.0839
v -86.25992 -0.1348886 407.0402
v -85.47433 -0.1348886 401.5041
v -85.47433 20.0148 401.5041
v -86.25992 20.0148 407.0402
v -85.47433 -0.1348886 401.5041
v -78.11838 -0.1348886 402.5478
v -78.11838 20.0148 402.5478
v -85.47433 20.0148 401.5041
v -80.11627 22.11484 397.9388
v -76.68399 22.11484 402.2485
v -76.68399 27.56894 402.249
v -80.11627 27.56894 397.9388
v -85.0181 22.11484 397.1068
v -85.0181 27.56894 397.1068
v -88.76376 22.11484 400.9439
v -88.76376 27.56894 400.9439
v -97.09457 14.89704 397.9233
v -121.265 14.89704 402.9624
v -117.9301 14.89704 400.8319
v -97.57803 14.89704 400.4333
v -77.07513 14.89704 400.7645
v -121.8636 14.89704 407.1812
v -74.70667 14.89704 403.6543
v -98.18326 14.89704 404.7008
v -119.2534 14.89704 410.1554
v -75.31894 14.89704 407.9706
v -98.41794 14.89704 407.2463
v -78.39801 14.89704 410.0874
v -97.09457 13.34789 397.9233
v -117.9301 13.34789 400.8319
v -121.265 13.34789 402.9624
v -97.57803 13.34789 400.4333
v -77.07513 13.34789 400.7645
v -121.8636 13.34789 407.1812
v -74.70667 13.34789 403.6543
v -98.18326 13.34789 404.7008
v -119.2534 13.34789 410.1554
v -75.31894 13.34789 407.9706
v -98.41748 13.34789 407.2463
v -78.39801 13.34789 410.0874
v -97.09457 7.439396 397.9233
v -121.265 7.439396 402.9624
v -117.9301 7.439396 400.8319
v -97.57803 7.439396 400.4333
v -77.07513 7.439396 400.7645
v -121.8636 7.439396 407.1812
v -74.70667 7.439396 403.6543
v -98.18326 7.439396 404.7008
v -119.2534 7.439396 410.1554
v -75.31894 7.439396 407.9701
v -98.41748 7.439396 407.2463
v -78.39801 7.439396 410.0874
v -85.0181 19.43346 397.1068
v -88.76376 19.43346 400.9439
v -85.86502 19.43346 409.4705
v -84.17862 19.43346 410.0022
v -81.49539 19.43346 410.383
v -80.11627 19.43346 397.9388
v -76.68399 19.43346 402.2485
v -79.37708 19.43346 409.8649
v -98.41794 14.89704 407.2463
v -78.39801 13.34789 410.0874
v -98.41748 13.34789 407.2463
v -78.39801 14.89704 410.0874
v -75.31894 13.34789 407.9706
v -75.31894 14.89704 407.9706
v -74.70667 13.34789 403.6543
v -74.70667 14.89704 403.6543
v -77.07513 13.34789 400.7645
v -77.07513 14.89704 400.7645
v -97.09457 13.34789 397.9233
v -97.09457 14.89704 397.9233
v -117.9301 13.34789 400.8319
v -117.9301 14.89704 400.8319
v -121.265 13.34789 402.9624
v -121.265 14.89704 402.9624
v -121.8636 13.34789 407.1812
v -121.8636 14.89704 407.1812
v -119.2534 13.34789 410.1554
v -119.2534 14.89704 410.1554
v -98.41748 13.34789 407.2463
v -98.41794 14.89704 407.2463
v -97.09457 6.274374 397.9233
v -117.9301 6.274374 400.8319
v -121.265 6.274374 402.9624
v -97.57803 6.274374 400.4333
v -77.07513 6.274374 400.7645
v -121.8636 6.274374 407.1812
v -74.70667 6.274374 403.6543
v -98.18326 6.274374 404.7008
v -119.2534 6.274374 410.1554
v -75.31894 6.274374 407.9701
v -98.41748 6.274374 407.2463
v -78.39801 6.274374 410.0874
v -98.41748 7.439396 407.2463
v -78.39801 6.274374 410.0874
v -98.41748 6.274374 407.2463
v -78.39801 7.439396 410.0874
v -75.31894 6.274374 407.9701
v -75.31894 7.439396 407.9701
v -74.70667 6.274374 403.6543
v -74.70667 7.439396 403.6543
v -77.07513 6.274374 400.7645
v -77.07513 7.439396 400.7645
v -97.09457 6.274374 397.9233
v -97.09457 7.439396 397.9233
v -117.9301 6.274374 400.8319
v -117.9301 7.439396 400.8319
v -121.265 6.274374 402.9624
v -121.265 7.439396 402.9624
v -121.8636 6.274374 407.1812
v -121.8636 7.439396 407.1812
v -119.2534 6.274374 410.1554
v -119.2534 7.439396 410.1554
v -98.41748 6.274374 407.2463
v -98.41748 7.439396 407.2463
v -117.598 -0.1348886 402.0021
v -112.0787 -0.1348886 401.105
v -112.0787 20.0148 401.105
v -117.5975 20.0148 402.0021
v -112.0787 -0.1348886 401.105
v -110.8865 -0.1348886 408.438
v -110.8865 20.0148 408.438
v -112.0787 20.0148 401.105
v -110.8865 -0.1348886 408.438
v -116.4053 -0.1348886 409.3356
v -116.4053 20.0148 409.3356
v -110.8865 20.0148 408.438
v -116.4053 -0.1348886 409.3356
v -117.598 -0.1348886 402.0021
v -117.5975 20.0148 402.0021
v -116.4053 20.0148 409.3356
v -118.2022 19.43346 398.96
v -121.0223 19.43346 403.5208
v -116.336 19.43346 411.2112
v -114.5746 19.43346 411.363
v -111.8722 19.43346 411.1503
v -113.2367 19.43346 398.7047
v -108.9481 19.43346 402.1632
v -109.9178 19.43346 410.183
v -121.0223 21.87827 403.5208
v -118.2022 26.6283 398.96
v -121.0223 26.6283 403.5208
v -118.2022 21.87827 398.96
v -113.2367 26.6283 398.7047
v -113.2367 21.87827 398.7047
v -108.9481 26.6283 402.1632
v -108.9481 21.87827 402.1632

vn -0.5953079 0.714565 -0.3674307
vn -0.5953079 0.714565 -0.3674307
vn -0.5953079 0.714565 -0.3674307
vn 0.3352884 0.7693059 -0.5438291
vn 0.3352884 0.7693059 -0.5438291
vn 0.3352884 0.7693059 -0.5438291
vn 0.5953079 0.714565 0.3674307
vn 0.5953079 0.714565 0.3674307
vn 0.5953079 0.714565 0.3674307
vn -0.3352884 0.7693059 0.5438291
vn -0.3352884 0.7693059 0.5438291
vn -0.3352884 0.7693059 0.5438291
vn -0.6539589 0.6422287 -0.39985
vn -0.6539589 0.6422287 -0.39985
vn -0.6539589 0.6422287 -0.39985
vn -0.6539589 0.6422287 -0.39985
vn -0.0009775166 0.9999995 0
vn -0.0009775166 0.9999995 0
vn -0.0009775166 0.9999995 0
vn -0.0009775166 0.9999995 0
vn 0.7986315 -0.0009775171 -0.6018196
vn 0.601173 -0.0009775171 0.7991182
vn 0.601173 -0.0009775171 0.7991182
vn 0.7986315 -0.0009775171 -0.6018196
vn 0.601173 -0.0009775171 0.7991182
vn -0.7986315 0.0009775171 0.6018196
vn -0.7986315 0.0009775171 0.6018196
vn 0.601173 -0.0009775171 0.7991182
vn -0.7986315 0.0009775171 0.6018196
vn -0.601173 0.0009775171 -0.7991182
vn -0.601173 0.0009775171 -0.7991182
vn -0.7986315 0.0009775171 0.6018196
vn -0.601173 0.0009775171 -0.7991182
vn 0.7986315 -0.0009775171 -0.6018196
vn 0.7986315 -0.0009775171 -0.6018196
vn -0.601173 0.0009775171 -0.7991182
vn 0.5073314 0.0009775171 -0.8617505
vn 0.9393939 0.0009775171 -0.3428383
vn 0.7829912 0.0009775171 -0.622032
vn 0.5073314 0.0009775171 -0.8617505
vn -0.3098729 0.0009775171 -0.9507775
vn -0.3098729 0.0009775171 -0.9507775
vn -0.9120235 0.0009775171 -0.4101368
vn -0.71652 0.0009775171 -0.6975659
vn -0.0009775166 0.9999995 0
vn -0.0009775166 0.9999995 0
vn -0.0009775166 0.9999995 0
vn -0.0009775166 0.9999995 0
vn -0.0009775166 0.9999995 0
vn -0.0009775166 0.9999995 0
vn -0.0009775166 0.9999995 0
vn -0.0009775166 0.9999995 0
vn -0.0009775166 0.9999995 0
vn -0.0009775166 0.9999995 0
vn -0.0009775166 0.9999995 0
vn -0.0009775166 0.9999995 0
vn 0.0009775171 -0.6774194 -0.7355964
vn -0.259042 -0.6617791 -0.7035237
vn -0.657869 -0.6246334 -0.4207628
vn -0.0009775166 -0.9999995 0
vn 0.3802541 -0.6344086 -0.6730026
vn -0.7497556 -0.6246334 0.2184023
vn 0.7497556 -0.6265885 -0.2127285
vn -0.0009775166 -0.9999995 0
vn -0.2746823 -0.6148583 0.7392557
vn 0.6617791 -0.6265885 0.4116252
vn -0.0009775171 -0.7399805 0.6726277
vn 0.1769306 -0.6344086 0.7524768
vn -0.0009775166 0.9999995 0
vn -0.0009775166 0.9999995 0
vn -0.0009775166 0.9999995 0
vn -0.0009775166 0.9999995 0
vn -0.0009775166 0.9999995 0
vn -0.0009775166 0.9999995 0
vn -0.0009775166 0.9999995 0
vn -0.0009775166 0.9999995 0
vn -0.0009775166 0.9999995 0
vn -0.0009775166 0.9999995 0
vn -0.0009775166 0.9999995 0
vn -0.0009775166 0.9999995 0
vn -0.2434018 -0.6168133 -0.7485299
vn -0.775171 -0.6070381 -0.1749701
vn -0.5503421 -0.6187683 0.5605794
vn -0.1612903 -0.6891496 0.7064406
vn 0.03616813 -0.6676442 0.7436014
vn 0.3919844 -0.6344086 -0.6662387
vn 0.7790811 -0.6129032 -0.1318417
vn 0.5288367 -0.6148583 0.5850479
vn -0.0009775171 0.0009775171 0.999999
vn 0.1769306 -0.6344086 0.7524768
vn -0.0009775171 -0.7399805 0.6726277
vn 0.2277615 0.0009775171 0.9737164
vn 0.6617791 -0.6265885 0.4116252
vn 0.8494624 -0.0009775171 0.5276483
vn 0.7497556 -0.6265885 -0.2127285
vn 0.9628543 -0.0009775171 -0.2700197
vn 0.3802541 -0.6344086 -0.6730026
vn 0.4897361 0.0009775171 -0.8718702
vn 0.0009775171 -0.6774194 -0.7355964
vn 0.0009775171 0.0009775171 -0.999999
vn -0.259042 -0.6617791 -0.7035237
vn -0.3470186 -0.0009775171 -0.9378577
vn -0.657869 -0.6246334 -0.4207628
vn -0.8416422 -0.0009775171 -0.5400347
vn -0.7497556 -0.6246334 0.2184023
vn -0.9589443 -0.0009775171 0.283593
vn -0.2746823 -0.6148583 0.7392557
vn -0.3489736 0.0009775171 0.9371321
vn -0.0009775171 -0.7399805 0.6726277
vn -0.0009775171 0.0009775171 0.999999
vn 0.0009775171 -0.6774194 -0.7355964
vn -0.259042 -0.6617791 -0.7035237
vn -0.657869 -0.6246334 -0.4207628
vn -0.0009775166 -0.9999995 0
vn 0.3802541 -0.6344086 -0.6730026
vn -0.7497556 -0.6246334 0.2184023
vn 0.7497556 -0.6265885 -0.2127285
vn -0.0009775166 -0.9999995 0
vn -0.2746823 -0.6148583 0.7392557
vn 0.6617791 -0.6265885 0.4116252
vn -0.0009775171 -0.7399805 0.6726277
vn 0.1769306 -0.6344086 0.7524768
vn -0.0009775171 0.0009775171 0.999999
vn 0.1769306 -0.6344086 0.7524768
vn -0.0009775171 -0.7399805 0.6726277
vn 0.2277615 0.0009775171 0.9737164
vn 0.6617791 -0.6265885 0.4116252
vn 0.8494624 0.0009775171 0.5276483
vn 0.7497556 -0.6265885 -0.2127285
vn 0.9628543 0.0009775171 -0.2700197
vn 0.3802541 -0.6344086 -0.6730026
vn 0.4897361 0.0009775171 -0.8718702
vn 0.0009775171 -0.6774194 -0.7355964
vn 0.0009775171 -0.0009775171 -0.999999
vn -0.259042 -0.6617791 -0.7035237
vn -0.3470186 -0.0009775171 -0.9378577
vn -0.657869 -0.6246334 -0.4207628
vn -0.8416422 -0.0009775171 -0.5400347
vn -0.7497556 -0.6246334 0.2184023
vn -0.9589443 0.0009775171 0.283593
vn -0.2746823 -0.6148583 0.7392557
vn -0.3489736 0.0009775171 0.9371321
vn -0.0009775171 -0.7399805 0.6726277
vn -0.0009775171 0.0009775171 0.999999
vn -0.8123167 0.0009775171 -0.5832157
vn 0.5835777 0.0009775171 -0.8120567
vn 0.5835777 0.0009775171 -0.8120567
vn -0.8123167 0.0009775171 -0.5832157
vn 0.5835777 0.0009775171 -0.8120567
vn 0.8123167 0.0009775171 0.5832157
vn 0.8123167 0.0009775171 0.5832157
vn 0.5835777 0.0009775171 -0.8120567
vn 0.8123167 0.0009775171 0.5832157
vn -0.5835777 0.0009775171 0.8120567
vn -0.5835777 0.0009775171 0.8120567
vn 0.8123167 0.0009775171 0.5832157
vn -0.5835777 0.0009775171 0.8120567
vn -0.8123167 0.0009775171 -0.5832157
vn -0.8123167 0.0009775171 -0.5832157
vn -0.5835777 0.0009775171 0.8120567
vn -0.4017595 -0.6168133 -0.6768535
vn -0.7946906 -0.6070146 0
vn -0.4134897 -0.6187683 0.6679461
vn -0.002932551 -0.6891496 0.7246132
vn 0.198436 -0.6676442 0.7175475
vn 0.2375367 -0.6344086 -0.7355964
vn 0.7321603 -0.6129032 -0.2971379
vn 0.6441838 -0.6148583 0.4549468
vn -0.9784946 -0.0009775171 -0.2062699
vn -0.5092864 0.0009775171 -0.8605965
vn -0.8514174 0.0009775171 -0.5244878
vn -0.5092864 0.0009775171 -0.8605965
vn 0.3079179 0.0009775171 -0.9514124
vn 0.3079179 0.0009775171 -0.9514124
vn 0.6285435 0.0009775171 -0.7777739
vn 0.8435972 0.0009775171 -0.5369756

vt 0.1902311 0.6638021
vt 0.01974312 0.6638021
vt 0.1049871 0.7395166
vt 0.1807016 0.6542828
vt 0.02926239 0.6542828
vt 0.1049871 0.7395166
vt 0.01974312 0.8152413
vt 0.1902311 0.8152413
vt 0.1049871 0.7395166
vt 0.02926239 0.8247606
vt 0.1807016 0.8247606
vt 0.1049871 0.7395166
vt 0.1937484 0.8674183
vt 0.1937484 0.613946
vt 0.003178972 0.613946
vt 0.003178972 0.8674183
vt 0.357713 0.08602015
vt 0.357713 0.2068157
vt 0.5894168 0.2068157
vt 0.5894168 0.08602015
vt 0.8163149 0.2728064
vt 0.8163149 0.232531
vt 0.6211239 0.232531
vt 0.6211239 0.2728064
vt 0.8163149 0.2728678
vt 0.8163149 0.232531
vt 0.621134 0.232531
vt 0.621134 0.2728678
vt 0.8163149 0.2728064
vt 0.8163149 0.232531
vt 0.6211239 0.232531
vt 0.6211239 0.2728064
vt 0.8163149 0.2728678
vt 0.8163149 0.232531
vt 0.621134 0.232531
vt 0.621134 0.272878
vt 0.1668061 0.4357997
vt -2.138419E-05 0.4357997
vt -2.138419E-05 0.610306
vt 0.1668061 0.610306
vt 0.3173558 0.4357997
vt 0.3173558 0.610306
vt 0.4797151 0.4357997
vt 0.4797151 0.610306
vt 0.3369772 0.6143857
vt 0.479981 0.6469926
vt 0.479981 0.6143857
vt 0.3369772 0.6469926
vt 0.1939734 0.6143857
vt 0.479981 0.8335437
vt 0.1939734 0.6469926
vt 0.3369772 0.8335437
vt 0.479981 0.8661402
vt 0.1939734 0.8335437
vt 0.3369772 0.8661402
vt 0.1939734 0.8661402
vt 0.3377031 0.6163182
vt 0.4746641 0.6163182
vt 0.4746641 0.648833
vt 0.3377031 0.648833
vt 0.2007422 0.6163182
vt 0.4746641 0.8348525
vt 0.2007422 0.648833
vt 0.3377031 0.8348525
vt 0.4746641 0.867357
vt 0.2007422 0.8348525
vt 0.3377031 0.867357
vt 0.2007422 0.867357
vt 0.338153 0.6135064
vt 0.4773634 0.6464711
vt 0.4773634 0.6135064
vt 0.338153 0.6464711
vt 0.1989426 0.6135064
vt 0.4773634 0.8350876
vt 0.1989426 0.6464711
vt 0.338153 0.8350876
vt 0.4773634 0.8680523
vt 0.1989426 0.8350876
vt 0.338153 0.8680523
vt 0.1989426 0.8680523
vt 0.4743982 0.123995
vt 0.4202376 0.08466025
vt 0.2947284 0.1114185
vt 0.2862111 0.1284019
vt 0.2794321 0.1555793
vt 0.4600324 0.1735954
vt 0.3956981 0.2071225
vt 0.2860066 0.1772968
vt 1.831728 0.2238297
vt 1.143436 0.2730723
vt 1.831728 0.2730723
vt 1.143436 0.2238297
vt 1.026812 0.2730723
vt 1.026812 0.2238297
vt 0.886733 0.2730723
vt 0.886733 0.2238297
vt 0.7700989 0.2730723
vt 0.7700989 0.2238297
vt 0.08181776 0.2730723
vt 0.08181776 0.2238297
vt -0.6319742 0.2730723
vt -0.6319742 0.2238297
vt -0.748598 0.2730723
vt -0.748598 0.2238297
vt -0.8886775 0.2730723
vt -0.8886775 0.2238297
vt -1.005312 0.2730723
vt -1.005312 0.2238297
vt -1.719093 0.2730723
vt -1.719093 0.2238297
vt 0.3375804 0.6133223
vt 0.4787847 0.6133223
vt 0.4787847 0.6463177
vt 0.3375804 0.6463177
vt 0.1963762 0.6133223
vt 0.4787847 0.8351489
vt 0.1963762 0.6463177
vt 0.3375804 0.8351489
vt 0.4787847 0.8681545
vt 0.1963762 0.8351489
vt 0.3375804 0.8681545
vt 0.1963762 0.8681545
vt -1.821985 0.2706797
vt -1.110484 0.2256804
vt -1.821985 0.2256804
vt -1.110484 0.2706797
vt -0.9899131 0.2256804
vt -0.9899131 0.2706797
vt -0.8451098 0.2256804
vt -0.8451098 0.2706797
vt -0.7245494 0.2256804
vt -0.7245494 0.2706797
vt -0.01303753 0.2256804
vt -0.01303753 0.2706797
vt 0.7248236 0.2256804
vt 0.7248236 0.2706797
vt 0.8453942 0.2256804
vt 0.8453942 0.2706797
vt 0.9901873 0.2256804
vt 0.9901873 0.2706797
vt 1.110758 0.2256804
vt 1.110758 0.2706797
vt 1.848619 0.2256804
vt 1.848619 0.2706797
vt 0.8163149 0.2728064
vt 0.8163149 0.232531
vt 0.6211239 0.232531
vt 0.6211239 0.2728064
vt 0.8163149 0.2728678
vt 0.8163149 0.232531
vt 0.621134 0.232531
vt 0.621134 0.2728678
vt 0.8163149 0.2728064
vt 0.8163149 0.232531
vt 0.6211239 0.232531
vt 0.6211239 0.2728064
vt 0.8163149 0.272878
vt 0.8163149 0.232531
vt 0.621134 0.232531
vt 0.621134 0.272878
vt 0.266007 0.1759164
vt 0.3316296 0.2159464
vt 0.4673636 0.1777364
vt 0.4744698 0.1582991
vt 0.4782325 0.1276452
vt 0.2750968 0.1198437
vt 0.341926 0.07823909
vt 0.4679157 0.1039646
vt 0.4720772 0.2763954
vt 0.3132148 0.4345829
vt 0.4720772 0.4345829
vt 0.3132148 0.2763954
vt 0.1659268 0.4345829
vt 0.1659268 0.2763954
vt 0.002708632 0.4345829
vt 0.002708632 0.2763954

g prop_Nor_4.001_297_33
usemtl prop_Nor_4.001_297_33
usemap prop_Nor_4.001_297_33
f 1/1/1 3/3/3 2/2/2
f 4/4/4 6/6/6 5/5/5
f 7/7/7 9/9/9 8/8/8
f 10/10/10 12/12/12 11/11/11
f 13/13/13 15/15/15 14/14/14
f 13/13/13 16/16/16 15/15/15
f 17/17/17 19/19/19 18/18/18
f 17/17/17 20/20/20 19/19/19
f 21/21/21 23/23/23 22/22/22
f 21/21/21 24/24/24 23/23/23
f 25/25/25 27/27/27 26/26/26
f 25/25/25 28/28/28 27/27/27
f 29/29/29 31/31/31 30/30/30
f 29/29/29 32/32/32 31/31/31
f 33/33/33 35/35/35 34/34/34
f 33/33/33 36/36/36 35/35/35
f 37/37/37 39/39/39 38/38/38
f 37/37/37 40/40/40 39/39/39
f 41/41/41 40/40/40 37/37/37
f 41/41/41 42/42/42 40/40/40
f 43/43/43 42/42/42 41/41/41
f 43/43/43 44/44/44 42/42/42
f 45/45/45 47/47/47 46/46/46
f 45/45/45 46/46/46 48/48/48
f 49/49/49 45/45/45 48/48/48
f 50/50/50 48/48/48 46/46/46
f 49/49/49 48/48/48 51/51/51
f 50/50/50 52/52/52 48/48/48
f 52/52/52 51/51/51 48/48/48
f 52/52/52 50/50/50 53/53/53
f 52/52/52 54/54/54 51/51/51
f 52/52/52 53/53/53 55/55/55
f 54/54/54 52/52/52 55/55/55
f 54/54/54 55/55/55 56/56/56
f 57/57/57 59/59/59 58/58/58
f 57/57/57 60/60/60 59/59/59
f 61/61/61 60/60/60 57/57/57
f 62/62/62 59/59/59 60/60/60
f 61/61/61 63/63/63 60/60/60
f 62/62/62 60/60/60 64/64/64
f 64/64/64 60/60/60 63/63/63
f 64/64/64 65/65/65 62/62/62
f 64/64/64 63/63/63 66/66/66
f 64/64/64 67/67/67 65/65/65
f 66/66/66 67/67/67 64/64/64
f 66/66/66 68/68/68 67/67/67
f 69/69/69 71/71/71 70/70/70
f 69/69/69 70/70/70 72/72/72
f 73/73/73 69/69/69 72/72/72
f 74/74/74 72/72/72 70/70/70
f 73/73/73 72/72/72 75/75/75
f 74/74/74 76/76/76 72/72/72
f 76/76/76 75/75/75 72/72/72
f 76/76/76 74/74/74 77/77/77
f 76/76/76 78/78/78 75/75/75
f 76/76/76 77/77/77 79/79/79
f 78/78/78 76/76/76 79/79/79
f 78/78/78 79/79/79 80/80/80
f 81/81/81 83/83/83 82/82/82
f 81/81/81 84/84/84 83/83/83
f 81/81/81 85/85/85 84/84/84
f 81/81/81 86/86/86 85/85/85
f 87/87/87 85/85/85 86/86/86
f 87/87/87 88/88/88 85/85/85
f 89/89/89 91/91/91 90/90/90
f 89/89/89 90/90/90 92/92/92
f 92/92/92 90/90/90 93/93/93
f 92/92/92 93/93/93 94/94/94
f 94/94/94 93/93/93 95/95/95
f 94/94/94 95/95/95 96/96/96
f 96/96/96 95/95/95 97/97/97
f 96/96/96 97/97/97 98/98/98
f 98/98/98 97/97/97 99/99/99
f 98/98/98 99/99/99 100/100/100
f 100/100/100 99/99/99 101/101/101
f 100/100/100 101/101/101 102/102/102
f 102/102/102 101/101/101 103/103/103
f 102/102/102 103/103/103 104/104/104
f 104/104/104 103/103/103 105/105/105
f 104/104/104 105/105/105 106/106/106
f 106/106/106 105/105/105 107/107/107
f 106/106/106 107/107/107 108/108/108
f 108/108/108 107/107/107 109/109/109
f 108/108/108 109/109/109 110/110/110
f 111/111/111 113/113/113 112/112/112
f 111/111/111 114/114/114 113/113/113
f 115/115/115 114/114/114 111/111/111
f 116/116/116 113/113/113 114/114/114
f 115/115/115 117/117/117 114/114/114
f 116/116/116 114/114/114 118/118/118
f 118/118/118 114/114/114 117/117/117
f 118/118/118 119/119/119 116/116/116
f 118/118/118 117/117/117 120/120/120
f 118/118/118 121/121/121 119/119/119
f 120/120/120 121/121/121 118/118/118
f 120/120/120 122/122/122 121/121/121
f 123/123/123 125/125/125 124/124/124
f 123/123/123 124/124/124 126/126/126
f 126/126/126 124/124/124 127/127/127
f 126/126/126 127/127/127 128/128/128
f 128/128/128 127/127/127 129/129/129
f 128/128/128 129/129/129 130/130/130
f 130/130/130 129/129/129 131/131/131
f 130/130/130 131/131/131 132/132/132
f 132/132/132 131/131/131 133/133/133
f 132/132/132 133/133/133 134/134/134
f 134/134/134 133/133/133 135/135/135
f 134/134/134 135/135/135 136/136/136
f 136/136/136 135/135/135 137/137/137
f 136/136/136 137/137/137 138/138/138
f 138/138/138 137/137/137 139/139/139
f 138/138/138 139/139/139 140/140/140
f 140/140/140 139/139/139 141/141/141
f 140/140/140 141/141/141 142/142/142
f 142/142/142 141/141/141 143/143/143
f 142/142/142 143/143/143 144/144/144
f 145/145/145 147/147/147 146/146/146
f 145/145/145 148/148/148 147/147/147
f 149/149/149 151/151/151 150/150/150
f 149/149/149 152/152/152 151/151/151
f 153/153/153 155/155/155 154/154/154
f 153/153/153 156/156/156 155/155/155
f 157/157/157 159/159/159 158/158/158
f 157/157/157 160/160/160 159/159/159
f 161/161/161 163/163/163 162/162/162
f 161/161/161 164/164/164 163/163/163
f 161/161/161 165/165/165 164/164/164
f 161/161/161 166/166/166 165/165/165
f 167/167/167 165/165/165 166/166/166
f 167/167/167 168/168/168 165/165/165
f 169/169/169 171/171/171 170/170/170
f 169/169/169 170/170/170 172/172/172
f 172/172/172 170/170/170 173/173/173
f 172/172/172 173/173/173 174/174/174
f 174/174/174 173/173/173 175/175/175
f 174/174/174 175/175/175 176/176/176
