#Prop03.001_91_5.obj

v 158.3013 9.112553 294.0084
v 130.5645 9.112553 299.4636
v 130.5645 12.79187 299.4636
v 158.3013 12.79187 294.0084
v 129.7518 12.79187 295.3327
v 129.7518 9.112553 295.3327
v 157.4896 9.112553 289.8766
v 157.4896 12.79187 289.8766
v 158.1108 -4.558669 293.9122
v 157.3496 -4.558669 290.0366
v 157.3496 13.38922 290.0366
v 158.1108 13.38922 293.9122
v 158.3013 9.112553 294.0084
v 157.4896 9.112553 289.8766
v 129.7518 9.112553 295.3327
v 130.5645 9.112553 299.4636
v 162.7828 13.38922 292.9928
v 162.0216 13.38922 289.1182
v 162.0216 -4.558669 289.1182
v 162.7828 -4.558669 292.9928
v 157.3496 13.38922 290.0366
v 157.3496 -4.558669 290.0366
v 162.0216 -4.558669 289.1182
v 162.0216 13.38922 289.1182
v 129.7518 12.79187 295.3327
v 130.5645 12.79187 299.4636
v 130.5645 9.112553 299.4636
v 129.7518 9.112553 295.3327
v 162.7828 13.38922 292.9928
v 162.7828 -4.558669 292.9928
v 158.1108 -4.558669 293.9122
v 158.1108 13.38922 293.9122
v 169.6718 9.994751 -243.3677
v 149.5918 8.915344 -223.4697
v 149.5918 13.67503 -223.4697
v 169.6718 13.67503 -243.3677
v 146.6279 13.67503 -226.4612
v 146.6279 8.915344 -226.4612
v 166.7079 9.994751 -246.3592
v 166.7079 13.67503 -246.3592
v 169.4593 -4.754924 -243.342
v 166.6794 -4.754924 -246.1477
v 166.6794 13.19296 -246.1477
v 169.4593 13.19296 -243.342
v 169.6718 9.994751 -243.3677
v 166.7079 9.994751 -246.3592
v 146.6279 8.915344 -226.4612
v 149.5918 8.915344 -223.4697
v 172.8414 13.19296 -246.6946
v 170.0614 13.19296 -249.4993
v 170.0614 -4.754924 -249.4993
v 172.8414 -4.754924 -246.6946
v 166.6794 13.19296 -246.1477
v 166.6794 -4.754924 -246.1477
v 170.0614 -4.754924 -249.4993
v 170.0614 13.19296 -249.4993
v 146.6279 13.67503 -226.4612
v 149.5918 13.67503 -223.4697
v 149.5918 8.915344 -223.4697
v 146.6279 8.915344 -226.4612
v 172.8414 13.19296 -246.6946
v 172.8414 -4.754924 -246.6946
v 169.4593 -4.754924 -243.342
v 169.4593 13.19296 -243.342
v 131.4238 13.65216 746.0171
v 113.4321 12.57275 724.2117
v 113.4321 17.33148 724.2117
v 131.4238 17.33148 746.0171
v 116.6789 17.33148 721.5318
v 116.6789 12.57275 721.5318
v 134.6715 13.65216 743.3372
v 134.6715 17.33148 743.3372
v 131.4171 -1.097515 745.8037
v 134.4638 -1.097515 743.2895
v 134.4638 16.84941 743.2895
v 131.4171 16.84941 745.8037
v 131.4238 13.65216 746.0171
v 134.6715 13.65216 743.3372
v 116.6789 12.57275 721.5318
v 113.4321 12.57275 724.2117
v 134.4467 16.84941 749.4763
v 137.4944 16.84941 746.9631
v 137.4944 -1.097515 746.9631
v 134.4467 -1.097515 749.4763
v 134.4638 16.84941 743.2895
v 134.4638 -1.097515 743.2895
v 137.4944 -1.097515 746.9631
v 137.4944 16.84941 746.9631
v 116.6789 17.33148 721.5318
v 113.4321 17.33148 724.2117
v 113.4321 12.57275 724.2117
v 116.6789 12.57275 721.5318
v 134.4467 16.84941 749.4763
v 134.4467 -1.097515 749.4763
v 131.4171 -1.097515 745.8037
v 131.4171 16.84941 745.8037

vn 0.1924129 -0.0006836111 0.9813138
vn 0.1924129 -0.0006836111 0.9813138
vn 0.1924129 -0.0006836111 0.9813138
vn 0.1924129 -0.0006836111 0.9813138
vn -0.1929824 -0.0006836111 -0.981202
vn -0.1929824 -0.0006836111 -0.981202
vn -0.1929824 -0.0006836111 -0.981202
vn -0.1929824 -0.0006836111 -0.981202
vn -0.9812028 -0.0006836111 0.192978
vn -0.9812028 -0.0006836111 0.192978
vn -0.9812028 -0.0006836111 0.192978
vn -0.9812028 -0.0006836111 0.192978
vn 0.0006836109 -0.9999998 0
vn 0.0006836109 -0.9999998 0
vn 0.0006836109 -0.9999998 0
vn 0.0006836109 -0.9999998 0
vn 0.9806334 -0.0006836111 -0.1958512
vn 0.9806334 -0.0006836111 -0.1958512
vn 0.9806334 -0.0006836111 -0.1958512
vn 0.9806334 -0.0006836111 -0.1958512
vn -0.1929824 -0.0006836111 -0.981202
vn -0.1929824 -0.0006836111 -0.981202
vn -0.1929824 -0.0006836111 -0.981202
vn -0.1929824 -0.0006836111 -0.981202
vn -0.9812028 -0.0006836111 0.192978
vn -0.9812028 -0.0006836111 0.192978
vn -0.9812028 -0.0006836111 0.192978
vn -0.9812028 -0.0006836111 0.192978
vn 0.1924129 -0.0006836111 0.9813138
vn 0.1924129 -0.0006836111 0.9813138
vn 0.1924129 -0.0006836111 0.9813138
vn 0.1924129 -0.0006836111 0.9813138
vn 0.7036911 -0.0006836111 0.7105058
vn 0.7036911 -0.0006836111 0.7105058
vn 0.7036911 -0.0006836111 0.7105058
vn 0.7036911 -0.0006836111 0.7105058
vn -0.7042605 -0.0006836111 -0.7099413
vn -0.7042605 -0.0006836111 -0.7099413
vn -0.7042605 -0.0006836111 -0.7099413
vn -0.7042605 -0.0006836111 -0.7099413
vn -0.7100705 -0.0006836111 0.7041302
vn -0.7100705 -0.0006836111 0.7041302
vn -0.7100705 -0.0006836111 0.7041302
vn -0.7100705 -0.0006836111 0.7041302
vn 0.02778611 -0.9996139 0
vn 0.02778611 -0.9996139 0
vn 0.02778611 -0.9996139 0
vn 0.02778611 -0.9996139 0
vn 0.709501 -0.0006836111 -0.7047041
vn 0.709501 -0.0006836111 -0.7047041
vn 0.709501 -0.0006836111 -0.7047041
vn 0.709501 -0.0006836111 -0.7047041
vn -0.7042605 -0.0006836111 -0.7099413
vn -0.7042605 -0.0006836111 -0.7099413
vn -0.7042605 -0.0006836111 -0.7099413
vn -0.7042605 -0.0006836111 -0.7099413
vn -0.7100705 -0.0006836111 0.7041302
vn -0.7100705 -0.0006836111 0.7041302
vn -0.7100705 -0.0006836111 0.7041302
vn -0.7100705 -0.0006836111 0.7041302
vn 0.7036911 -0.0006836111 0.7105058
vn 0.7036911 -0.0006836111 0.7105058
vn 0.7036911 -0.0006836111 0.7105058
vn 0.7036911 -0.0006836111 0.7105058
vn -0.7720436 -0.0006836111 0.6355692
vn -0.7720436 -0.0006836111 0.6355692
vn -0.7720436 -0.0006836111 0.6355692
vn -0.7720436 -0.0006836111 0.6355692
vn 0.7714742 -0.0006836111 -0.6362603
vn 0.7714742 -0.0006836111 -0.6362603
vn 0.7714742 -0.0006836111 -0.6362603
vn 0.7714742 -0.0006836111 -0.6362603
vn -0.6364774 -0.0006836111 -0.771295
vn -0.6364774 -0.0006836111 -0.771295
vn -0.6364774 -0.0006836111 -0.771295
vn -0.6364774 -0.0006836111 -0.771295
vn 0.02391668 -0.999714 0
vn 0.02391668 -0.999714 0
vn 0.02391668 -0.999714 0
vn 0.02391668 -0.999714 0
vn 0.635908 -0.0006836111 0.7717645
vn 0.635908 -0.0006836111 0.7717645
vn 0.635908 -0.0006836111 0.7717645
vn 0.635908 -0.0006836111 0.7717645
vn 0.7714742 -0.0006836111 -0.6362603
vn 0.7714742 -0.0006836111 -0.6362603
vn 0.7714742 -0.0006836111 -0.6362603
vn 0.7714742 -0.0006836111 -0.6362603
vn -0.6364774 -0.0006836111 -0.771295
vn -0.6364774 -0.0006836111 -0.771295
vn -0.6364774 -0.0006836111 -0.771295
vn -0.6364774 -0.0006836111 -0.771295
vn -0.7720436 -0.0006836111 0.6355692
vn -0.7720436 -0.0006836111 0.6355692
vn -0.7720436 -0.0006836111 0.6355692
vn -0.7720436 -0.0006836111 0.6355692

vt 0.4989412 0.6629112
vt 0.001869813 0.6629112
vt 0.001869813 0.7435865
vt 0.4989412 0.7435865
vt 0.4989412 0.7435865
vt 0.4989412 0.6629112
vt 0.001869813 0.6629112
vt 0.001869813 0.7435865
vt 0.002023891 0.3203416
vt 0.002023891 0.6181592
vt 1.517143 0.6181592
vt 1.517143 0.3203416
vt 0.002285823 0.3239701
vt 0.002285823 0.6180822
vt 2.021395 0.6180822
vt 2.021395 0.3239624
vt 0.002023891 0.3203416
vt 0.002023891 0.6181592
vt 1.517143 0.6181592
vt 1.517143 0.3203416
vt 1.517136 0.320642
vt 0.002031595 0.320642
vt 0.002031595 0.6181515
vt 1.517136 0.6181515
vt 0.2812134 0.6647062
vt 0.2175484 0.6647062
vt 0.2175484 0.7437329
vt 0.2812134 0.7437329
vt 0.002031595 0.6181515
vt 1.517136 0.6181515
vt 1.517136 0.320642
vt 0.002031595 0.320642
vt 0.9982699 0.7097124
vt 0.5012062 0.7097124
vt 0.5012062 0.7903954
vt 0.9982699 0.7903954
vt 0.9982699 0.7903954
vt 0.9982699 0.7097124
vt 0.5012062 0.7097124
vt 0.5012062 0.7903954
vt 0.002023891 0.3203416
vt 0.002023891 0.6181592
vt 1.517143 0.6181592
vt 1.517143 0.3203416
vt 0.002285823 0.3239701
vt 0.002285823 0.6180822
vt 2.021395 0.6180822
vt 2.021395 0.3239624
vt 0.002023891 0.3203416
vt 0.002023891 0.6181592
vt 1.517143 0.6181592
vt 1.517143 0.3203416
vt 1.517136 0.320642
vt 0.002031595 0.320642
vt 0.002031595 0.6181515
vt 1.517136 0.6181515
vt 0.7805498 0.7115151
vt 0.716877 0.7115151
vt 0.716877 0.7905418
vt 0.7805498 0.7905418
vt 0.002031595 0.6181515
vt 1.517136 0.6181515
vt 1.517136 0.320642
vt 0.002031595 0.320642
vt 0.9982699 0.7097124
vt 0.5012062 0.7097124
vt 0.5012062 0.7903954
vt 0.9982699 0.7903954
vt 0.9982699 0.7903954
vt 0.9982699 0.7097124
vt 0.5012062 0.7097124
vt 0.5012062 0.7903954
vt 0.002023891 0.3203416
vt 0.002023891 0.6181592
vt 1.517143 0.6181592
vt 1.517143 0.3203416
vt 0.002285823 0.3239701
vt 0.002285823 0.6180822
vt 2.021395 0.6180822
vt 2.021395 0.3239624
vt 0.002023891 0.3203416
vt 0.002023891 0.6181592
vt 1.517143 0.6181592
vt 1.517143 0.3203416
vt 1.517136 0.320642
vt 0.002031595 0.320642
vt 0.002031595 0.6181515
vt 1.517136 0.6181515
vt 0.7805498 0.7115151
vt 0.716877 0.7115151
vt 0.716877 0.7905418
vt 0.7805498 0.7905418
vt 0.002031595 0.6181515
vt 1.517136 0.6181515
vt 1.517136 0.320642
vt 0.002031595 0.320642

g Prop03.001_91_5
usemtl Prop03.001_91_5
usemap Prop03.001_91_5
f 1/1/1 3/3/3 2/2/2
f 1/1/1 4/4/4 3/3/3
f 5/5/5 7/7/7 6/6/6
f 5/5/5 8/8/8 7/7/7
f 9/9/9 11/11/11 10/10/10
f 9/9/9 12/12/12 11/11/11
f 13/13/13 15/15/15 14/14/14
f 13/13/13 16/16/16 15/15/15
f 17/17/17 19/19/19 18/18/18
f 17/17/17 20/20/20 19/19/19
f 21/21/21 23/23/23 22/22/22
f 21/21/21 24/24/24 23/23/23
f 25/25/25 27/27/27 26/26/26
f 25/25/25 28/28/28 27/27/27
f 29/29/29 31/31/31 30/30/30
f 29/29/29 32/32/32 31/31/31
f 33/33/33 35/35/35 34/34/34
f 33/33/33 36/36/36 35/35/35
f 37/37/37 39/39/39 38/38/38
f 37/37/37 40/40/40 39/39/39
f 41/41/41 43/43/43 42/42/42
f 41/41/41 44/44/44 43/43/43
f 45/45/45 47/47/47 46/46/46
f 45/45/45 48/48/48 47/47/47
f 49/49/49 51/51/51 50/50/50
f 49/49/49 52/52/52 51/51/51
f 53/53/53 55/55/55 54/54/54
f 53/53/53 56/56/56 55/55/55
f 57/57/57 59/59/59 58/58/58
f 57/57/57 60/60/60 59/59/59
f 61/61/61 63/63/63 62/62/62
f 61/61/61 64/64/64 63/63/63
f 65/65/65 67/67/67 66/66/66
f 65/65/65 68/68/68 67/67/67
f 69/69/69 71/71/71 70/70/70
f 69/69/69 72/72/72 71/71/71
f 73/73/73 75/75/75 74/74/74
f 73/73/73 76/76/76 75/75/75
f 77/77/77 79/79/79 78/78/78
f 77/77/77 80/80/80 79/79/79
f 81/81/81 83/83/83 82/82/82
f 81/81/81 84/84/84 83/83/83
f 85/85/85 87/87/87 86/86/86
f 85/85/85 88/88/88 87/87/87
f 89/89/89 91/91/91 90/90/90
f 89/89/89 92/92/92 91/91/91
f 93/93/93 95/95/95 94/94/94
f 93/93/93 96/96/96 95/95/95
