#prop_Nor_3_292_5.obj

v -70.14532 9.451443 85.57649
v -72.13095 9.451443 81.18074
v -69.27365 11.45129 82.5365
v -72.13095 9.451443 81.18074
v -68.4024 9.451443 79.49649
v -69.27365 11.45129 82.5365
v -68.4024 9.451443 79.49649
v -66.41678 9.451443 83.8927
v -69.27365 11.45129 82.5365
v -66.41678 9.451443 83.8927
v -70.14532 9.451443 85.57649
v -69.27365 11.45129 82.5365
v -71.10013 6.928847 81.74927
v -69.89063 6.928847 84.427
v -73.84854 1.740078 86.21483
v -75.05804 1.740078 83.53709
v -68.50107 6.873728 80.49086
v -67.228 6.873728 83.30949
v -70.04666 6.873728 84.58214
v -71.31927 6.873728 81.76393

vn -0.6363636 0.714565 0.2905825
vn -0.6363636 0.714565 0.2905825
vn -0.6363636 0.714565 0.2905825
vn -0.2629521 0.7693059 -0.5822582
vn -0.2629521 0.7693059 -0.5822582
vn -0.2629521 0.7693059 -0.5822582
vn 0.6363636 0.714565 -0.2905825
vn 0.6363636 0.714565 -0.2905825
vn 0.6363636 0.714565 -0.2905825
vn 0.2629521 0.7693059 0.5822582
vn 0.2629521 0.7693059 0.5822582
vn 0.2629521 0.7693059 0.5822582
vn -0.6989247 0.6422287 0.3147165
vn -0.6989247 0.6422287 0.3147165
vn -0.6989247 0.6422287 0.3147165
vn -0.6989247 0.6422287 0.3147165
vn -0.0009775166 0.9999995 0
vn -0.0009775166 0.9999995 0
vn -0.0009775166 0.9999995 0
vn -0.0009775166 0.9999995 0

vt 0.1902305 0.6638008
vt 0.01973904 0.6638008
vt 0.1049848 0.7395222
vt 0.1807061 0.6542764
vt 0.02926343 0.6542764
vt 0.1049848 0.7395222
vt 0.01973904 0.8152435
vt 0.1902305 0.8152435
vt 0.1049848 0.7395222
vt 0.02926343 0.8247679
vt 0.1807061 0.8247679
vt 0.1049848 0.7395222
vt 0.1937502 0.8674198
vt 0.1937502 0.6139452
vt 0.003175297 0.6139452
vt 0.003175297 0.8674198
vt 0.3577148 0.08602303
vt 0.3577148 0.2068136
vt 0.5894139 0.2068136
vt 0.5894139 0.08602303

g prop_Nor_3_292_5
usemtl prop_Nor_3_292_5
usemap prop_Nor_3_292_5
f 1/1/1 3/3/3 2/2/2
f 4/4/4 6/6/6 5/5/5
f 7/7/7 9/9/9 8/8/8
f 10/10/10 12/12/12 11/11/11
f 13/13/13 15/15/15 14/14/14
f 13/13/13 16/16/16 15/15/15
f 17/17/17 19/19/19 18/18/18
f 17/17/17 20/20/20 19/19/19
