#Prop_39.001_109_13.obj

v 328.23 -3.636603 307.268
v 324.6374 -3.537028 307.2888
v 324.5702 -5.824811 307.2936
v 328.1622 -5.923776 307.2729
v 321.0221 -3.607891 307.7512
v 318.0917 -3.527254 307.7885
v 318.0251 -5.814426 307.7939
v 320.9555 -5.895675 307.7561
v 315.6408 -3.563296 306.9448
v 312.0481 -3.463721 306.965
v 311.9809 -5.750894 306.9705
v 315.573 -5.850469 306.9497
v 312.6779 -3.678144 306.1745
v 309.0853 -3.579179 306.1953
v 309.0175 -5.866352 306.2001
v 312.6102 -5.965927 306.1794
v 307.2746 -3.527254 307.3981
v 304.3442 -3.446616 307.4354
v 304.277 -5.733788 307.4409
v 307.2074 -5.815037 307.403
v 300.9122 -3.351928 307.2344
v 298.1883 -3.276789 307.2771
v 298.1217 -5.563961 307.2826
v 300.8456 -5.639711 307.2399

vn -0.004931352 -0.002885378 -0.9999837
vn -0.004931352 -0.002885378 -0.9999837
vn -0.004931352 -0.002885378 -0.9999837
vn -0.004931352 -0.002885378 -0.9999837
vn -0.01274808 -0.0009311956 -0.9999183
vn -0.01274808 -0.0009311956 -0.9999183
vn -0.01274808 -0.0009311956 -0.9999183
vn -0.01274808 -0.0009311956 -0.9999183
vn -0.004931352 -0.002885378 -0.9999837
vn -0.004931352 -0.002885378 -0.9999837
vn -0.004931352 -0.002885378 -0.9999837
vn -0.004931352 -0.002885378 -0.9999837
vn -0.004931352 -0.002885378 -0.9999837
vn -0.004931352 -0.002885378 -0.9999837
vn -0.004931352 -0.002885378 -0.9999837
vn -0.004931352 -0.002885378 -0.9999837
vn -0.01274808 -0.0009311956 -0.9999183
vn -0.01274808 -0.0009311956 -0.9999183
vn -0.01274808 -0.0009311956 -0.9999183
vn -0.01274808 -0.0009311956 -0.9999183
vn -0.01665645 -0.0009311956 -0.9998608
vn -0.01665645 -0.0009311956 -0.9998608
vn -0.01665645 -0.0009311956 -0.9998608
vn -0.01665645 -0.0009311956 -0.9998608

vt 0.009126992 0.3587763
vt 0.357572 0.3566537
vt 0.3557204 0.1285771
vt 0.007275403 0.1306996
vt 0.4032747 0.3587763
vt 0.7020881 0.3566537
vt 0.7004924 0.1285771
vt 0.401679 0.1306996
vt 0.009126992 0.3587763
vt 0.357572 0.3566537
vt 0.3557204 0.1285771
vt 0.007275403 0.1306996
vt 0.7125202 0.3587763
vt 0.9938112 0.3566537
vt 0.9923059 0.1285771
vt 0.7110299 0.1306996
vt 0.4032747 0.3587763
vt 0.7020881 0.3566537
vt 0.7004924 0.1285771
vt 0.401679 0.1306996
vt 0.7108944 0.3587763
vt 0.9825211 0.3566537
vt 0.9810759 0.1285771
vt 0.7094493 0.1306996

g Prop_39.001_109_13
usemtl Prop_39.001_109_13
usemap Prop_39.001_109_13
f 1/1/1 3/3/3 2/2/2
f 1/1/1 4/4/4 3/3/3
f 5/5/5 7/7/7 6/6/6
f 5/5/5 8/8/8 7/7/7
f 9/9/9 11/11/11 10/10/10
f 9/9/9 12/12/12 11/11/11
f 13/13/13 15/15/15 14/14/14
f 13/13/13 16/16/16 15/15/15
f 17/17/17 19/19/19 18/18/18
f 17/17/17 20/20/20 19/19/19
f 21/21/21 23/23/23 22/22/22
f 21/21/21 24/24/24 23/23/23
