#start_prop__devil_4_201_23.obj

v -40.63015 -2.543344 -82.15717
v -46.30999 -1.009402 -105.3275
v -46.30964 -2.543344 -105.3275
v -40.6305 -1.009402 -82.15717
v -40.37013 -0.6025479 -82.22092
v -46.04962 -0.6025479 -105.3912
v -40.63015 -2.543344 -82.15717
v -46.30964 -2.543344 -105.3275
v -46.30999 -1.009402 -105.3275
v -40.6305 -1.009402 -82.15717
v -40.37013 -0.6025479 -82.22092
v -46.04962 -0.6025479 -105.3912
v -34.85754 -2.865318 -45.88123
v -37.98309 -1.331734 -69.5318
v -37.98273 -2.865318 -69.5318
v -34.8579 -1.331734 -45.88086
v -34.59251 -0.9248798 -45.91597
v -37.7177 -0.9248798 -69.56689
v -34.85754 -2.865318 -45.88123
v -37.98273 -2.865318 -69.5318
v -37.98309 -1.331734 -69.5318
v -34.8579 -1.331734 -45.88086
v -34.59251 -0.9248798 -45.91597
v -37.7177 -0.9248798 -69.56689
v -31.70227 -2.378238 -11.37846
v -33.02168 -0.844655 -35.19843
v -33.02132 -2.378238 -35.19843
v -31.70263 -0.844655 -11.37846
v -31.43509 -0.4378004 -11.39351
v -32.75415 -0.4378004 -35.21312
v -31.70227 -2.378238 -11.37846
v -33.02132 -2.378238 -35.19843
v -33.02168 -0.844655 -35.19843
v -31.70263 -0.844655 -11.37846
v -31.43509 -0.4378004 -11.39351
v -32.75415 -0.4378004 -35.21312
v -178.6756 4.257143 75.88144
v -175.55 5.791084 99.53201
v -175.5504 4.257143 99.53201
v -178.6752 5.791084 75.88144
v -178.941 6.197939 75.91618
v -175.8154 6.197939 99.5671
v -178.6756 4.257143 75.88144
v -175.5504 4.257143 99.53201
v -175.55 5.791084 99.53201
v -178.6752 5.791084 75.88144
v -178.941 6.197939 75.91618
v -175.8154 6.197939 99.5671
v -125.734 10.95771 -35.80298
v -139.8747 12.49129 -16.58914
v -139.8747 10.95771 -16.58949
v -125.7337 12.49129 -35.80263
v -125.9492 12.89814 -35.96164
v -140.0903 12.89814 -16.7478
v -125.734 10.95771 -35.80298
v -139.8747 10.95771 -16.58949
v -139.8747 12.49129 -16.58914
v -125.7337 12.49129 -35.80263
v -125.9492 12.89814 -35.96164
v -140.0903 12.89814 -16.7478
v -192.9785 11.23061 -47.57526
v -183.9024 12.76456 -69.63782
v -183.902 11.23061 -69.63745
v -192.9789 12.76456 -47.57526
v -192.7314 13.17141 -47.47354
v -183.6549 13.17141 -69.53574
v -192.9785 11.23061 -47.57526
v -183.902 11.23061 -69.63745
v -183.9024 12.76456 -69.63782
v -192.9789 12.76456 -47.57526
v -192.7314 13.17141 -47.47354
v -183.6549 13.17141 -69.53574
v -177.758 10.3245 -75.53934
v -178.98 11.85809 -99.36432
v -178.9797 10.3245 -99.36432
v -177.7584 11.85809 -75.53934
v -177.4908 12.26494 -75.55295
v -178.7125 12.26494 -99.37793
v -177.758 10.3245 -75.53934
v -178.9797 10.3245 -99.36432
v -178.98 11.85809 -99.36432
v -177.7584 11.85809 -75.53934
v -177.4908 12.26494 -75.55295
v -178.7125 12.26494 -99.37793

vn 0.9706745 0.0009775171 -0.2403956
vn 0.9296188 -0.2864125 -0.2318983
vn 0.9706745 0.0009775171 -0.2403956
vn 0.9296188 -0.2864125 -0.2318983
vn 0.8103617 -0.5503421 -0.2010907
vn 0.8103617 -0.5503421 -0.2010907
vn -0.9706745 -0.0009775171 0.2403956
vn -0.9706745 -0.0009775171 0.2403956
vn -0.9296188 0.2864125 0.2318983
vn -0.9296188 0.2864125 0.2318983
vn -0.8103617 0.5503421 0.2010907
vn -0.8103617 0.5503421 0.2010907
vn 0.9921799 0.0009775171 -0.1248125
vn 0.9491691 -0.2864125 -0.1305599
vn 0.9921799 0.0009775171 -0.1248125
vn 0.9491691 -0.2864125 -0.1305599
vn 0.827957 -0.5503421 -0.1077532
vn 0.827957 -0.5503421 -0.1077532
vn -0.9921799 -0.0009775171 0.1248125
vn -0.9921799 -0.0009775171 0.1248125
vn -0.9491691 0.2864125 0.1305599
vn -0.9491691 0.2864125 0.1305599
vn -0.827957 0.5503421 0.1077532
vn -0.827957 0.5503421 0.1077532
vn 0.998045 0.0009775171 -0.06249236
vn 0.9569892 -0.2864125 -0.04625442
vn 0.998045 0.0009775171 -0.06249236
vn 0.9569892 -0.2864125 -0.04625442
vn 0.8338221 -0.5503421 -0.04317701
vn 0.8338221 -0.5503421 -0.04317701
vn -0.998045 -0.0009775171 0.06249236
vn -0.998045 -0.0009775171 0.06249236
vn -0.9569892 0.2864125 0.04625442
vn -0.9569892 0.2864125 0.04625442
vn -0.8338221 0.5503421 0.04317701
vn -0.8338221 0.5503421 0.04317701
vn -0.9921799 0.0009775171 0.1248125
vn -0.9491691 -0.2864125 0.1305599
vn -0.9921799 0.0009775171 0.1248125
vn -0.9491691 -0.2864125 0.1305599
vn -0.827957 -0.5503421 0.1077532
vn -0.827957 -0.5503421 0.1077532
vn 0.9921799 -0.0009775171 -0.1248125
vn 0.9921799 -0.0009775171 -0.1248125
vn 0.9491691 0.2864125 -0.1305599
vn 0.9491691 0.2864125 -0.1305599
vn 0.827957 0.5503421 -0.1077532
vn 0.827957 0.5503421 -0.1077532
vn -0.8044966 0.0009775171 -0.5939565
vn -0.771261 -0.2864125 -0.5684403
vn -0.8044966 0.0009775171 -0.5939565
vn -0.771261 -0.2864125 -0.5684403
vn -0.6735093 -0.5503421 -0.493466
vn -0.6735093 -0.5503421 -0.493466
vn 0.8044966 -0.0009775171 0.5939565
vn 0.8044966 -0.0009775171 0.5939565
vn 0.771261 0.2864125 0.5684403
vn 0.771261 0.2864125 0.5684403
vn 0.6735093 0.5503421 0.493466
vn 0.6735093 0.5503421 0.493466
vn 0.9257087 0.0009775171 0.3782359
vn 0.886608 -0.2864125 0.3631723
vn 0.9257087 0.0009775171 0.3782359
vn 0.886608 -0.2864125 0.3631723
vn 0.773216 -0.5503421 0.3150564
vn 0.773216 -0.5503421 0.3150564
vn -0.9257087 -0.0009775171 -0.3782359
vn -0.9257087 -0.0009775171 -0.3782359
vn -0.886608 0.2864125 -0.3631723
vn -0.886608 0.2864125 -0.3631723
vn -0.773216 0.5503421 -0.3150564
vn -0.773216 0.5503421 -0.3150564
vn 0.998045 0.0009775171 -0.06249236
vn 0.9569892 -0.2864125 -0.04625442
vn 0.998045 0.0009775171 -0.06249236
vn 0.9569892 -0.2864125 -0.04625442
vn 0.8338221 -0.5503421 -0.04317701
vn 0.8338221 -0.5503421 -0.04317701
vn -0.998045 -0.0009775171 0.06249236
vn -0.998045 -0.0009775171 0.06249236
vn -0.9569892 0.2864125 0.04625442
vn -0.9569892 0.2864125 0.04625442
vn -0.8338221 0.5503421 0.04317701
vn -0.8338221 0.5503421 0.04317701

vt 1.000996 -5.001707
vt 0.2656211 6.001659
vt 1.000996 6.001649
vt 0.2656211 -5.001707
vt 0.003394795 -5.001665
vt 0.003394795 6.001691
vt 1.000996 -5.001707
vt 1.000996 6.001649
vt 0.2656211 6.001659
vt 0.2656211 -5.001707
vt 0.003394795 -5.001665
vt 0.003394795 6.001691
vt 1.000996 -5.001707
vt 0.2656211 6.001659
vt 1.000996 6.001649
vt 0.2656211 -5.001707
vt 0.003394795 -5.001665
vt 0.003394795 6.001691
vt 1.000996 -5.001707
vt 1.000996 6.001649
vt 0.2656211 6.001659
vt 0.2656211 -5.001707
vt 0.003394795 -5.001665
vt 0.003394795 6.001691
vt 1.000996 -5.001707
vt 0.2656211 6.001659
vt 1.000996 6.001649
vt 0.2656211 -5.001707
vt 0.003394795 -5.001665
vt 0.003394795 6.001691
vt 1.000996 -5.001707
vt 1.000996 6.001649
vt 0.2656211 6.001659
vt 0.2656211 -5.001707
vt 0.003394795 -5.001665
vt 0.003394795 6.001691
vt 1.000996 -5.001707
vt 0.2656211 6.001659
vt 1.000996 6.001649
vt 0.2656211 -5.001707
vt 0.003394795 -5.001665
vt 0.003394795 6.001691
vt 1.000996 -5.001707
vt 1.000996 6.001649
vt 0.2656211 6.001659
vt 0.2656211 -5.001707
vt 0.003394795 -5.001665
vt 0.003394795 6.001691
vt 1.000996 -5.001707
vt 0.2656211 6.001659
vt 1.000996 6.001649
vt 0.2656211 -5.001707
vt 0.003394795 -5.001665
vt 0.003394795 6.001691
vt 1.000996 -5.001707
vt 1.000996 6.001649
vt 0.2656211 6.001659
vt 0.2656211 -5.001707
vt 0.003394795 -5.001665
vt 0.003394795 6.001691
vt 1.000996 -5.001707
vt 0.2656211 6.001659
vt 1.000996 6.001649
vt 0.2656211 -5.001707
vt 0.003394795 -5.001665
vt 0.003394795 6.001691
vt 1.000996 -5.001707
vt 1.000996 6.001649
vt 0.2656211 6.001659
vt 0.2656211 -5.001707
vt 0.003394795 -5.001665
vt 0.003394795 6.001691
vt 1.000996 -5.001707
vt 0.2656211 6.001659
vt 1.000996 6.001649
vt 0.2656211 -5.001707
vt 0.003394795 -5.001665
vt 0.003394795 6.001691
vt 1.000996 -5.001707
vt 1.000996 6.001649
vt 0.2656211 6.001659
vt 0.2656211 -5.001707
vt 0.003394795 -5.001665
vt 0.003394795 6.001691

g start_prop__devil_4_201_23
usemtl start_prop__devil_4_201_23
usemap start_prop__devil_4_201_23
f 1/1/1 3/3/3 2/2/2
f 1/1/1 2/2/2 4/4/4
f 5/5/5 4/4/4 2/2/2
f 5/5/5 2/2/2 6/6/6
f 7/7/7 9/9/9 8/8/8
f 7/7/7 10/10/10 9/9/9
f 11/11/11 9/9/9 10/10/10
f 11/11/11 12/12/12 9/9/9
f 13/13/13 15/15/15 14/14/14
f 13/13/13 14/14/14 16/16/16
f 17/17/17 16/16/16 14/14/14
f 17/17/17 14/14/14 18/18/18
f 19/19/19 21/21/21 20/20/20
f 19/19/19 22/22/22 21/21/21
f 23/23/23 21/21/21 22/22/22
f 23/23/23 24/24/24 21/21/21
f 25/25/25 27/27/27 26/26/26
f 25/25/25 26/26/26 28/28/28
f 29/29/29 28/28/28 26/26/26
f 29/29/29 26/26/26 30/30/30
f 31/31/31 33/33/33 32/32/32
f 31/31/31 34/34/34 33/33/33
f 35/35/35 33/33/33 34/34/34
f 35/35/35 36/36/36 33/33/33
f 37/37/37 39/39/39 38/38/38
f 37/37/37 38/38/38 40/40/40
f 41/41/41 40/40/40 38/38/38
f 41/41/41 38/38/38 42/42/42
f 43/43/43 45/45/45 44/44/44
f 43/43/43 46/46/46 45/45/45
f 47/47/47 45/45/45 46/46/46
f 47/47/47 48/48/48 45/45/45
f 49/49/49 51/51/51 50/50/50
f 49/49/49 50/50/50 52/52/52
f 53/53/53 52/52/52 50/50/50
f 53/53/53 50/50/50 54/54/54
f 55/55/55 57/57/57 56/56/56
f 55/55/55 58/58/58 57/57/57
f 59/59/59 57/57/57 58/58/58
f 59/59/59 60/60/60 57/57/57
f 61/61/61 63/63/63 62/62/62
f 61/61/61 62/62/62 64/64/64
f 65/65/65 64/64/64 62/62/62
f 65/65/65 62/62/62 66/66/66
f 67/67/67 69/69/69 68/68/68
f 67/67/67 70/70/70 69/69/69
f 71/71/71 69/69/69 70/70/70
f 71/71/71 72/72/72 69/69/69
f 73/73/73 75/75/75 74/74/74
f 73/73/73 74/74/74 76/76/76
f 77/77/77 76/76/76 74/74/74
f 77/77/77 74/74/74 78/78/78
f 79/79/79 81/81/81 80/80/80
f 79/79/79 82/82/82 81/81/81
f 83/83/83 81/81/81 82/82/82
f 83/83/83 84/84/84 81/81/81
