#Tree_181_3.obj

v 67.96928 -0.2398638 82.30544
v 70.55416 6.532187 22.38332
v 67.97252 6.503835 82.29814
v 70.55011 -0.212322 22.39142
v 71.90695 6.516796 -38.9491
v 71.90371 -0.2269029 -38.941
v 67.97252 6.503835 82.29814
v 58.34017 6.43093 125.7008
v 58.33612 -0.3127686 125.7089
v 67.96928 -0.2398638 82.30544
v 71.90371 -0.2269029 -38.941
v 77.93942 -0.318439 -79.82523
v 77.94266 6.426069 -79.83333
v 71.90695 6.516796 -38.9491
v 77.93942 -0.318439 -79.82523
v 84.12661 -1.892374 -145.5101
v 84.13066 4.852135 -145.5173
v 77.94266 6.426069 -79.83333
v -93.55789 6.617242 -229.1586
v -79.36818 4.33775 -256.5369
v -79.36494 11.08145 -256.5442
v -93.55384 13.36094 -229.1667
v -114.7481 7.853384 -183.5461
v -114.7449 14.59708 -183.5542
v -114.7449 14.59708 -183.5542
v -151.2848 12.30625 -125.5941
v -151.2888 5.562552 -125.5868
v -114.7481 7.853384 -183.5461
v -151.2848 12.30625 -125.5941
v -138.8237 9.671955 -74.20669
v -138.8278 2.927447 -74.19859
v -151.2888 5.562552 -125.5868
v -138.8237 9.671955 -74.20669
v -93.73043 7.449167 -29.35077
v -93.73448 0.7054691 -29.34348
v -138.8278 2.927447 -74.19859
v -93.73043 7.449167 -29.35077
v -52.09124 7.886597 -26.39002
v -52.09447 1.142898 -26.38273
v -93.73448 0.7054691 -29.34348
v -52.09124 7.886597 -26.39002
v -59.15247 10.59299 -110.8948
v -59.15572 3.849288 -110.8867
v -52.09447 1.142898 -26.38273
v -59.15247 10.59299 -110.8948
v -50.26051 1.197172 -209.8632
v -59.15572 3.849288 -110.8867
v -50.25646 7.94087 -209.8705
v -47.17097 0.2955818 -242.9215
v -47.16773 7.04009 -242.9288
v -79.36818 4.33775 -256.5369
v -47.17097 0.2955818 -242.9215
v -47.16773 7.04009 -242.9288
v -79.36494 11.08145 -256.5442

vn -0.9997566 0.0006398839 -0.02205136
vn -0.9997566 0.0006398839 -0.02205136
vn -0.9997566 0.0006398839 -0.02205136
vn -0.9997566 0.0006398839 -0.02205136
vn -0.9997566 0.0006398839 -0.02205136
vn -0.9997566 0.0006398839 -0.02205136
vn -0.9763398 0.0006398839 -0.216241
vn -0.9763398 0.0006398839 -0.216241
vn -0.9763398 0.0006398839 -0.216241
vn -0.9763398 0.0006398839 -0.216241
vn -0.9899997 0.0006398839 -0.1410683
vn -0.9899997 0.0006398839 -0.1410683
vn -0.9899997 0.0006398839 -0.1410683
vn -0.9899997 0.0006398839 -0.1410683
vn -0.9958538 0.0006398839 -0.09096561
vn -0.9958538 0.0006398839 -0.09096561
vn -0.9958538 0.0006398839 -0.09096561
vn -0.9958538 0.0006398839 -0.09096561
vn -0.8885269 0.0006398839 -0.4588242
vn -0.8885269 0.0006398839 -0.4588242
vn -0.8885269 0.0006398839 -0.4588242
vn -0.8885269 0.0006398839 -0.4588242
vn -0.9060894 0.0006398839 -0.4230857
vn -0.9060894 0.0006398839 -0.4230857
vn -0.845596 0.0006398839 -0.533823
vn -0.845596 0.0006398839 -0.533823
vn -0.845596 0.0006398839 -0.533823
vn -0.845596 0.0006398839 -0.533823
vn -0.972437 0.0006398839 0.2331648
vn -0.972437 0.0006398839 0.2331648
vn -0.972437 0.0006398839 0.2331648
vn -0.972437 0.0006398839 0.2331648
vn -0.7050952 0.0006398839 0.7091123
vn -0.7050952 0.0006398839 0.7091123
vn -0.7050952 0.0006398839 0.7091123
vn -0.7050952 0.0006398839 0.7091123
vn -0.07089028 0.0006398839 0.9974839
vn -0.07089028 0.0006398839 0.9974839
vn -0.07089028 0.0006398839 0.9974839
vn -0.07089028 0.0006398839 0.9974839
vn 0.9965255 -0.001311516 -0.08327813
vn 0.9965255 -0.001311516 -0.08327813
vn 0.9965255 -0.001311516 -0.08327813
vn 0.9965255 -0.001311516 -0.08327813
vn 0.9965255 -0.001311516 0.08327813
vn 0.9965255 -0.001311516 0.08327813
vn 0.9965255 -0.001311516 0.08327813
vn 0.9965255 -0.001311516 0.08327813
vn 0.9965255 -0.001311516 0.08327813
vn 0.9965255 -0.001311516 0.08327813
vn 0.3896401 -0.001311516 -0.9209663
vn 0.3896401 -0.001311516 -0.9209663
vn 0.3896401 -0.001311516 -0.9209663
vn 0.3896401 -0.001311516 -0.9209663

vt 9.267795 0.0001454353
vt 6.838827 0.5289954
vt 9.267795 0.5289954
vt 6.838827 0.0001454353
vt 4.354099 0.5289954
vt 4.354099 0.0001454353
vt 9.267795 0.5289954
vt 11.00421 0.5289954
vt 11.00421 0.0001454353
vt 9.267795 0.0001454353
vt 4.354099 0.0001454353
vt 2.680214 0.0001454353
vt 2.680214 0.5289954
vt 4.354099 0.5289954
vt 2.680214 0.0001454353
vt 0.007267594 0.0001454353
vt 0.007267594 0.5289954
vt 2.680214 0.5289954
vt 4.216523 0.0002196245
vt 5.313305 0.0002196245
vt 5.313305 0.5307759
vt 4.216523 0.5307759
vt 2.431992 0.0002196245
vt 2.431992 0.5307759
vt 2.431992 0.5307759
vt 0.0002938136 0.5307759
vt 0.0002938136 0.0002196245
vt 2.431992 0.0002196245
vt 19.89146 0.5307759
vt 18.01352 0.5307759
vt 18.01352 0.0002196245
vt 19.89146 0.0002196245
vt 18.01352 0.5307759
vt 15.75607 0.5307759
vt 15.75607 0.0002196245
vt 18.01352 0.0002196245
vt 15.75607 0.5307759
vt 14.27528 0.5307759
vt 14.27528 0.0002196245
vt 15.75607 0.0002196245
vt 14.27528 0.5307759
vt 11.26584 0.5307759
vt 11.26584 0.0002196245
vt 14.27528 0.0002196245
vt 11.26584 0.5307759
vt 7.739691 0.0002196245
vt 11.26584 0.0002196245
vt 7.739691 0.5307759
vt 6.561523 0.0002196245
vt 6.561523 0.5307759
vt 5.313305 0.0002196245
vt 6.561523 0.0002196245
vt 6.561523 0.5307759
vt 5.313305 0.5307759

g Tree_181_3
usemtl Tree_181_3
usemap Tree_181_3
f 1/1/1 3/3/3 2/2/2
f 1/1/1 2/2/2 4/4/4
f 4/4/4 2/2/2 5/5/5
f 4/4/4 5/5/5 6/6/6
f 7/7/7 9/9/9 8/8/8
f 7/7/7 10/10/10 9/9/9
f 11/11/11 13/13/13 12/12/12
f 11/11/11 14/14/14 13/13/13
f 15/15/15 17/17/17 16/16/16
f 15/15/15 18/18/18 17/17/17
f 19/19/19 21/21/21 20/20/20
f 19/19/19 22/22/22 21/21/21
f 22/22/22 19/19/19 23/23/23
f 22/22/22 23/23/23 24/24/24
f 25/25/25 27/27/27 26/26/26
f 25/25/25 28/28/28 27/27/27
f 29/29/29 31/31/31 30/30/30
f 29/29/29 32/32/32 31/31/31
f 33/33/33 35/35/35 34/34/34
f 33/33/33 36/36/36 35/35/35
f 37/37/37 39/39/39 38/38/38
f 37/37/37 40/40/40 39/39/39
f 41/41/41 43/43/43 42/42/42
f 41/41/41 44/44/44 43/43/43
f 45/45/45 47/47/47 46/46/46
f 45/45/45 46/46/46 48/48/48
f 48/48/48 46/46/46 49/49/49
f 48/48/48 49/49/49 50/50/50
f 51/51/51 53/53/53 52/52/52
f 51/51/51 54/54/54 53/53/53
