#Car04_193_3.obj

v 75.04659 12.04815 102.6101
v 74.98461 20.70217 102.3377
v 73.02444 20.20763 87.0825
v 73.08641 11.5536 87.35495
v 61.02931 11.51616 88.90546
v 60.96733 20.17019 88.63301
v 62.92751 20.66473 103.8882
v 62.98948 12.01071 104.1606
v 61.07456 5.172184 89.10538
v 63.03474 5.666543 104.3606
v 61.07456 2.525906 89.10538
v 63.03474 3.020265 104.3606
v 13.58586 11.2379 107.411
v 13.82613 19.89174 107.2682
v 27.73636 19.39738 100.7056
v 27.49609 10.74336 100.8484
v 22.30804 10.70592 89.85474
v 22.54831 19.35995 89.71188
v 8.638084 19.8543 96.27432
v 8.397812 11.20046 96.41718
v 22.13192 4.361761 89.95941
v 8.221695 4.856303 96.52205
v 22.13192 1.715483 89.95941
v 8.221695 2.210024 96.52187

vn 0.9920742 0.002920343 -0.1256195
vn 0.9920742 0.002920343 -0.1256195
vn 0.9920742 0.002920343 -0.1256195
vn 0.9920742 0.002920343 -0.1256195
vn -0.9920505 -0.002944065 0.1258063
vn -0.9920505 -0.002944065 0.1258063
vn -0.9920505 -0.002944065 0.1258063
vn -0.9920505 -0.002944065 0.1258063
vn -0.7946154 -0.01271808 -0.6069798
vn -0.6069544 0.01073955 0.7946641
vn -0.7848414 0.00096554 -0.6196959
vn -0.620638 0.00096554 0.7840966
vn 0.4271362 0.002920343 0.9041826
vn 0.4271362 0.002920343 0.9041826
vn 0.4271362 0.002920343 0.9041826
vn 0.4271362 0.002920343 0.9041826
vn -0.4271125 -0.002944065 -0.9041937
vn -0.4271125 -0.002944065 -0.9041937
vn -0.4271125 -0.002944065 -0.9041937
vn -0.4271125 -0.002944065 -0.9041937
vn 0.3333057 -0.01271808 -0.942733
vn -0.9431804 0.01073955 -0.3321074
vn 0.3469893 0.00096554 -0.9378685
vn -0.937316 0.00096554 -0.3484793

vt 0.7594395 0.4481332
vt 0.999043 0.4481332
vt 0.999043 0.7100533
vt 0.7594395 0.7100533
vt 0.9991056 0.9197311
vt 0.9991056 0.9993662
vt 0.8770576 0.9993662
vt 0.8770576 0.9197311
vt 0.9991056 0.8613495
vt 0.8770576 0.8613495
vt 0.9991056 0.8613495
vt 0.8770576 0.8613495
vt 0.7594395 0.4481332
vt 0.999043 0.4481332
vt 0.999043 0.7100533
vt 0.7594395 0.7100533
vt 0.9991056 0.9197311
vt 0.9991056 0.9993662
vt 0.8770576 0.9993662
vt 0.8770576 0.9197311
vt 0.9991056 0.8613495
vt 0.8770576 0.8613495
vt 0.9991056 0.8613495
vt 0.8770576 0.8613495

g Car04_193_3
usemtl Car04_193_3
usemap Car04_193_3
f 1/1/1 3/3/3 2/2/2
f 1/1/1 4/4/4 3/3/3
f 5/5/5 7/7/7 6/6/6
f 5/5/5 8/8/8 7/7/7
f 9/9/9 8/8/8 5/5/5
f 9/9/9 10/10/10 8/8/8
f 10/10/10 9/9/9 11/11/11
f 10/10/10 11/11/11 12/12/12
f 13/13/13 15/15/15 14/14/14
f 13/13/13 16/16/16 15/15/15
f 17/17/17 19/19/19 18/18/18
f 17/17/17 20/20/20 19/19/19
f 21/21/21 20/20/20 17/17/17
f 21/21/21 22/22/22 20/20/20
f 22/22/22 21/21/21 23/23/23
f 22/22/22 23/23/23 24/24/24
