#Car02_186_5.obj

v -53.38442 -5.754227 -27.56595
v -53.38697 -2.407237 -27.57034
v -26.53438 -2.383032 -38.99158
v -26.53184 -5.730021 -38.98706
v -34.21277 -5.869113 -57.0462
v -34.21532 -2.522123 -57.0506
v -61.0679 -2.546327 -45.62952
v -61.06535 -5.893318 -45.62509
v -61.06535 -5.893318 -45.62509
v -61.0679 -2.546327 -45.62952
v -53.38697 -2.407237 -27.57034
v -53.38442 -5.754227 -27.56595
v -36.24158 -3.064011 -55.1983
v -34.44301 -3.062389 -55.96326
v -34.51342 16.82197 -56.08649
v -36.312 16.82035 -55.32153
v -34.44301 -3.062389 -55.96326
v -33.67795 -3.048492 -54.16467
v -33.74837 16.83587 -54.2879
v -34.51342 16.82197 -56.08649
v -33.67795 -3.048492 -54.16467
v -35.47664 -3.050113 -53.39972
v -35.54705 16.83425 -53.52295
v -33.74837 16.83587 -54.2879
v -35.47664 -3.050113 -53.39972
v -36.24158 -3.064011 -55.1983
v -36.312 16.82035 -55.32153
v -35.54705 16.83425 -53.52295
v -58.39784 -3.084046 -45.7746
v -57.63278 -3.070149 -43.97604
v -57.7032 16.81421 -44.09927
v -58.46814 16.80032 -45.89783
v -60.19641 -3.085668 -45.00967
v -58.39784 -3.084046 -45.7746
v -58.46814 16.80032 -45.89783
v -60.26683 16.79869 -45.1329
v -57.63278 -3.070149 -43.97604
v -59.43147 -3.07177 -43.21109
v -59.50177 16.81259 -43.3342
v -57.7032 16.81421 -44.09927
v -59.43147 -3.07177 -43.21109
v -60.19641 -3.085668 -45.00967
v -60.26683 16.79869 -45.1329
v -59.50177 16.81259 -43.3342
v -53.22623 -2.767067 -29.46725
v -51.97997 -2.765909 -29.99731
v -58.22054 15.12173 -44.63165
v -59.4668 15.12057 -44.10168
v -52.69638 -2.806559 -28.22156
v -53.22623 -2.767067 -29.46725
v -59.4668 15.12057 -44.10168
v -59.47594 16.47477 -44.12012
v -51.97997 -2.765909 -29.99731
v -51.45012 -2.805401 -28.75165
v -58.22969 16.47581 -44.65018
v -58.22054 15.12173 -44.63165
v -51.45012 -2.805401 -28.75165
v -52.69638 -2.806559 -28.22156
v -59.47594 16.47477 -44.12012
v -58.22969 16.47581 -44.65018
v -28.06022 -2.744252 -40.17114
v -27.53026 -2.78386 -38.92545
v -34.30982 16.49747 -54.82388
v -34.30079 15.14338 -54.80548
v -29.30648 -2.74541 -39.64105
v -28.06022 -2.744252 -40.17114
v -34.30079 15.14338 -54.80548
v -35.54705 15.14222 -54.27539
v -27.53026 -2.78386 -38.92545
v -28.77652 -2.784902 -38.39539
v -35.55608 16.49642 -54.29379
v -34.30982 16.49747 -54.82388
v -28.77652 -2.784902 -38.39539
v -29.30648 -2.74541 -39.64105
v -35.54705 15.14222 -54.27539
v -35.55608 16.49642 -54.29379
v -35.4075 13.28621 -55.67905
v -35.41212 14.59582 -55.68713
v -59.27571 14.57416 -45.53732
v -59.27107 13.26455 -45.52921
v -34.64706 14.6096 -53.88846
v -34.64244 13.29999 -53.88034
v -58.50601 13.27845 -43.73053
v -58.51064 14.58806 -43.73862
v -34.64244 13.29999 -53.88034
v -35.4075 13.28621 -55.67905
v -59.27107 13.26455 -45.52921
v -58.50601 13.27845 -43.73053
v -35.82269 12.33805 -52.92407
v -36.92476 12.31801 -55.51505
v -36.93472 15.13377 -55.53253
v -35.83276 15.15369 -52.94147
v -34.33368 12.32045 -56.61713
v -33.23161 12.34037 -54.02615
v -33.24156 15.15601 -54.04352
v -34.34364 15.13609 -56.63461
v -36.92476 12.31801 -55.51505
v -34.33368 12.32045 -56.61713
v -34.34364 15.13609 -56.63461
v -36.93472 15.13377 -55.53253
v -33.23161 12.34037 -54.02615
v -35.82269 12.33805 -52.92407
v -35.83276 15.15369 -52.94147
v -33.24156 15.15601 -54.04352
v -34.33368 12.32045 -56.61713
v -36.92476 12.31801 -55.51505
v -35.82269 12.33805 -52.92407
v -33.23161 12.34037 -54.02615
v -60.7397 12.29659 -45.38596
v -58.14861 12.2989 -46.48804
v -58.15857 15.11455 -46.50549
v -60.74965 15.11223 -45.40344
v -58.14861 12.2989 -46.48804
v -57.04654 12.31882 -43.89694
v -57.0565 15.13447 -43.91443
v -58.15857 15.11455 -46.50549
v -57.04654 12.31882 -43.89694
v -59.63774 12.31651 -42.79486
v -59.64769 15.13215 -42.81235
v -57.0565 15.13447 -43.91443
v -59.63774 12.31651 -42.79486
v -60.7397 12.29659 -45.38596
v -60.74965 15.11223 -45.40344
v -59.64769 15.13215 -42.81235
v -58.14861 12.2989 -46.48804
v -60.7397 12.29659 -45.38596
v -59.63774 12.31651 -42.79486
v -57.04654 12.31882 -43.89694
v -58.84929 13.33033 -45.17783
v -58.8055 0.971023 -45.10129
v -35.49876 0.9921009 -55.01428
v -35.54253 13.35141 -55.09094
v -26.53184 -5.699795 -38.98706
v -26.53438 -2.383032 -38.99158
v -34.21532 -2.522123 -57.0506
v -34.21277 -5.838886 -57.0462
v -38.81818 15.37038 -53.63113
v -39.49245 13.76648 -54.18738
v -39.85193 14.87493 -55.03107
v -37.17723 13.78096 -55.15036
v -37.30196 15.37918 -54.26263
v -37.52814 14.88941 -56.00101
v -39.49245 13.76648 -54.18738
v -37.17723 13.78096 -55.15036
v -37.52814 14.88941 -56.00101
v -39.85193 14.87493 -55.03107
v -43.61446 15.36609 -51.59119
v -44.28871 13.7622 -52.14746
v -44.6482 14.87053 -52.99103
v -41.9735 13.77668 -53.11041
v -42.09824 15.37478 -52.22272
v -42.32442 14.885 -53.96106
v -44.28871 13.7622 -52.14746
v -41.9735 13.77668 -53.11041
v -42.32442 14.885 -53.96106
v -44.6482 14.87053 -52.99103
v -52.06497 15.35845 -47.99695
v -52.73923 13.75456 -48.55319
v -53.09883 14.86288 -49.39679
v -50.42401 13.76903 -49.51605
v -50.54886 15.36713 -48.62836
v -50.77493 14.87736 -50.36682
v -52.73923 13.75456 -48.55319
v -50.42401 13.76903 -49.51605
v -50.77493 14.87736 -50.36682
v -53.09883 14.86288 -49.39679
v -56.99837 15.35393 -45.89865
v -57.67262 13.75004 -46.4549
v -58.0321 14.85848 -47.29846
v -55.35729 13.76452 -47.41788
v -55.48214 15.36273 -46.53018
v -55.70821 14.87296 -48.26852
v -57.67262 13.75004 -46.4549
v -55.35729 13.76452 -47.41788
v -55.70821 14.87296 -48.26852
v -58.0321 14.85848 -47.29846
v -47.81696 15.36227 -49.80374
v -48.4911 13.75838 -50.35999
v -48.8507 14.86682 -51.20367
v -46.17589 13.77285 -51.32297
v -46.30074 15.37096 -50.43527
v -46.52679 14.88118 -52.17361
v -48.4911 13.75838 -50.35999
v -46.17589 13.77285 -51.32297
v -46.52679 14.88118 -52.17361
v -48.8507 14.86682 -51.20367
v -35.36002 -0.115996 -55.59601
v -35.36465 1.193615 -55.60413
v -59.22823 1.172074 -45.45428
v -59.22359 -0.1375372 -45.44617
v -34.5997 1.207513 -53.80542
v -34.59507 -0.1020985 -53.7973
v -58.45865 -0.1237555 -43.64749
v -58.46327 1.185971 -43.65558
v -34.59507 -0.1020985 -53.7973
v -35.36002 -0.115996 -55.59601
v -59.22359 -0.1375372 -45.44617
v -58.45865 -0.1237555 -43.64749
v -34.21532 -2.522123 -57.0506
v -26.53438 -2.383032 -38.99158
v -53.38697 -2.407237 -27.57034
v -61.0679 -2.546327 -45.62952
v -58.71632 13.33277 -44.86536
v -35.40958 13.35384 -54.77838
v -35.3658 0.9945329 -54.70181
v -58.67255 0.973455 -44.78882

vn 0.3919744 0.0009774923 0.9199756
vn 0.3919744 0.0009774923 0.9199756
vn 0.3919744 0.0009774923 0.9199756
vn 0.3919744 0.0009774923 0.9199756
vn -0.3919744 -0.0009774923 -0.9199756
vn -0.3919744 -0.0009774923 -0.9199756
vn -0.3919744 -0.0009774923 -0.9199756
vn -0.3919744 -0.0009774923 -0.9199756
vn -0.9198202 -0.0009774923 0.3923388
vn -0.9198202 -0.0009774923 0.3923388
vn -0.9198202 -0.0009774923 0.3923388
vn -0.9198202 -0.0009774923 0.3923388
vn -0.3919744 -0.006842446 -0.9199507
vn -0.3919744 -0.006842446 -0.9199507
vn -0.3919744 -0.006842446 -0.9199507
vn -0.3919744 -0.006842446 -0.9199507
vn 0.9198202 0.0009774923 -0.3923388
vn 0.9198202 0.0009774923 -0.3923388
vn 0.9198202 0.0009774923 -0.3923388
vn 0.9198202 0.0009774923 -0.3923388
vn 0.3919744 0.006842446 0.9199507
vn 0.3919744 0.006842446 0.9199507
vn 0.3919744 0.006842446 0.9199507
vn 0.3919744 0.006842446 0.9199507
vn -0.9198202 -0.0009774923 0.3923388
vn -0.9198202 -0.0009774923 0.3923388
vn -0.9198202 -0.0009774923 0.3923388
vn -0.9198202 -0.0009774923 0.3923388
vn 0.9198202 0.0009774923 -0.3923388
vn 0.9198202 0.0009774923 -0.3923388
vn 0.9198202 0.0009774923 -0.3923388
vn 0.9198202 0.0009774923 -0.3923388
vn -0.3919744 -0.006842446 -0.9199507
vn -0.3919744 -0.006842446 -0.9199507
vn -0.3919744 -0.006842446 -0.9199507
vn -0.3919744 -0.006842446 -0.9199507
vn 0.3919744 0.006842446 0.9199507
vn 0.3919744 0.006842446 0.9199507
vn 0.3919744 0.006842446 0.9199507
vn 0.3919744 0.006842446 0.9199507
vn -0.9198202 -0.0009774923 0.3923388
vn -0.9198202 -0.0009774923 0.3923388
vn -0.9198202 -0.0009774923 0.3923388
vn -0.9198202 -0.0009774923 0.3923388
vn -0.2922702 -0.6637173 -0.6885183
vn -0.2922702 -0.6637173 -0.6885183
vn -0.2922702 -0.6637173 -0.6885183
vn -0.2922702 -0.6637173 -0.6885183
vn -0.9198202 -0.0009774923 0.3923388
vn -0.9198202 -0.0009774923 0.3923388
vn -0.9198202 -0.0009774923 0.3923388
vn -0.9198202 -0.0009774923 0.3923388
vn 0.9198202 0.0009774923 -0.3923388
vn 0.9198202 0.0009774923 -0.3923388
vn 0.9198202 0.0009774923 -0.3923388
vn 0.9198202 0.0009774923 -0.3923388
vn 0.2903152 0.6676272 0.6855589
vn 0.2903152 0.6676272 0.6855589
vn 0.2903152 0.6676272 0.6855589
vn 0.2903152 0.6676272 0.6855589
vn 0.9198202 0.0009774923 -0.3923388
vn 0.9198202 0.0009774923 -0.3923388
vn 0.9198202 0.0009774923 -0.3923388
vn 0.9198202 0.0009774923 -0.3923388
vn -0.2922702 -0.6637173 -0.6885183
vn -0.2922702 -0.6637173 -0.6885183
vn -0.2922702 -0.6637173 -0.6885183
vn -0.2922702 -0.6637173 -0.6885183
vn 0.2903152 0.6676272 0.6855589
vn 0.2903152 0.6676272 0.6855589
vn 0.2903152 0.6676272 0.6855589
vn 0.2903152 0.6676272 0.6855589
vn -0.9198202 -0.0009774923 0.3923388
vn -0.9198202 -0.0009774923 0.3923388
vn -0.9198202 -0.0009774923 0.3923388
vn -0.9198202 -0.0009774923 0.3923388
vn -0.3919744 -0.006842446 -0.9199507
vn -0.3919744 -0.006842446 -0.9199507
vn -0.3919744 -0.006842446 -0.9199507
vn -0.3919744 -0.006842446 -0.9199507
vn 0.3919744 0.006842446 0.9199507
vn 0.3919744 0.006842446 0.9199507
vn 0.3919744 0.006842446 0.9199507
vn 0.3919744 0.006842446 0.9199507
vn 0.002932477 -0.9999746 0.006496159
vn 0.002932477 -0.9999746 0.006496159
vn 0.002932477 -0.9999746 0.006496159
vn 0.002932477 -0.9999746 0.006496159
vn -0.9198202 -0.0009774923 0.3923388
vn -0.9198202 -0.0009774923 0.3923388
vn -0.9198202 -0.0009774923 0.3923388
vn -0.9198202 -0.0009774923 0.3923388
vn 0.9198202 0.0009774923 -0.3923388
vn 0.9198202 0.0009774923 -0.3923388
vn 0.9198202 0.0009774923 -0.3923388
vn 0.9198202 0.0009774923 -0.3923388
vn -0.3919744 -0.006842446 -0.9199507
vn -0.3919744 -0.006842446 -0.9199507
vn -0.3919744 -0.006842446 -0.9199507
vn -0.3919744 -0.006842446 -0.9199507
vn 0.3919744 0.006842446 0.9199507
vn 0.3919744 0.006842446 0.9199507
vn 0.3919744 0.006842446 0.9199507
vn 0.3919744 0.006842446 0.9199507
vn 0.002932477 -0.9999746 0.006496159
vn 0.002932477 -0.9999746 0.006496159
vn 0.002932477 -0.9999746 0.006496159
vn 0.002932477 -0.9999746 0.006496159
vn -0.3919744 -0.006842446 -0.9199507
vn -0.3919744 -0.006842446 -0.9199507
vn -0.3919744 -0.006842446 -0.9199507
vn -0.3919744 -0.006842446 -0.9199507
vn 0.9198202 0.0009774923 -0.3923388
vn 0.9198202 0.0009774923 -0.3923388
vn 0.9198202 0.0009774923 -0.3923388
vn 0.9198202 0.0009774923 -0.3923388
vn 0.3919744 0.006842446 0.9199507
vn 0.3919744 0.006842446 0.9199507
vn 0.3919744 0.006842446 0.9199507
vn 0.3919744 0.006842446 0.9199507
vn -0.9198202 -0.0009774923 0.3923388
vn -0.9198202 -0.0009774923 0.3923388
vn -0.9198202 -0.0009774923 0.3923388
vn -0.9198202 -0.0009774923 0.3923388
vn 0.002932477 -0.9999746 0.006496159
vn 0.002932477 -0.9999746 0.006496159
vn 0.002932477 -0.9999746 0.006496159
vn 0.002932477 -0.9999746 0.006496159
vn -0.3919744 -0.006842446 -0.9199507
vn -0.3919744 -0.006842446 -0.9199507
vn -0.3919744 -0.006842446 -0.9199507
vn -0.3919744 -0.006842446 -0.9199507
vn 0.9198202 0.0009774923 -0.3923388
vn 0.9198202 0.0009774923 -0.3923388
vn 0.9198202 0.0009774923 -0.3923388
vn 0.9198202 0.0009774923 -0.3923388
vn -0.01857235 -0.31964 0.9473571
vn -0.5210034 -0.7790614 0.348739
vn -0.8318459 -0.4799487 -0.2787142
vn 0.6246176 -0.7692865 -0.134355
vn 0.6832671 -0.313775 0.6593112
vn 0.4037043 -0.4721288 -0.7836564
vn -0.5210034 -0.7790614 0.348739
vn 0.6246176 -0.7692865 -0.134355
vn 0.4037043 -0.4721288 -0.7836564
vn -0.8318459 -0.4799487 -0.2787142
vn -0.01857235 -0.31964 0.9473571
vn -0.5210034 -0.7790614 0.348739
vn -0.8318459 -0.4799487 -0.2787142
vn 0.6246176 -0.7692865 -0.134355
vn 0.6832671 -0.313775 0.6593112
vn 0.4037043 -0.4721288 -0.7836564
vn -0.5210034 -0.7790614 0.348739
vn 0.6246176 -0.7692865 -0.134355
vn 0.4037043 -0.4721288 -0.7836564
vn -0.8318459 -0.4799487 -0.2787142
vn -0.01857235 -0.31964 0.9473571
vn -0.5210034 -0.7790614 0.348739
vn -0.8318459 -0.4799487 -0.2787142
vn 0.6246176 -0.7692865 -0.134355
vn 0.6832671 -0.313775 0.6593112
vn 0.4037043 -0.4721288 -0.7836564
vn -0.5210034 -0.7790614 0.348739
vn 0.6246176 -0.7692865 -0.134355
vn 0.4037043 -0.4721288 -0.7836564
vn -0.8318459 -0.4799487 -0.2787142
vn -0.01857235 -0.31964 0.9473571
vn -0.5210034 -0.7790614 0.348739
vn -0.8318459 -0.4799487 -0.2787142
vn 0.6246176 -0.7692865 -0.134355
vn 0.6832671 -0.313775 0.6593112
vn 0.4037043 -0.4721288 -0.7836564
vn -0.5210034 -0.7790614 0.348739
vn 0.6246176 -0.7692865 -0.134355
vn 0.4037043 -0.4721288 -0.7836564
vn -0.8318459 -0.4799487 -0.2787142
vn -0.01857235 -0.31964 0.9473571
vn -0.5210034 -0.7790614 0.348739
vn -0.8318459 -0.4799487 -0.2787142
vn 0.6246176 -0.7692865 -0.134355
vn 0.6832671 -0.313775 0.6593112
vn 0.4037043 -0.4721288 -0.7836564
vn -0.5210034 -0.7790614 0.348739
vn 0.6246176 -0.7692865 -0.134355
vn 0.4037043 -0.4721288 -0.7836564
vn -0.8318459 -0.4799487 -0.2787142
vn -0.3919744 -0.006842446 -0.9199507
vn -0.3919744 -0.006842446 -0.9199507
vn -0.3919744 -0.006842446 -0.9199507
vn -0.3919744 -0.006842446 -0.9199507
vn 0.3919744 0.006842446 0.9199507
vn 0.3919744 0.006842446 0.9199507
vn 0.3919744 0.006842446 0.9199507
vn 0.3919744 0.006842446 0.9199507
vn 0.002932477 -0.9999746 0.006496159
vn 0.002932477 -0.9999746 0.006496159
vn 0.002932477 -0.9999746 0.006496159
vn 0.002932477 -0.9999746 0.006496159
vn -0.002932477 0.9999746 -0.006496159
vn -0.002932477 0.9999746 -0.006496159
vn -0.002932477 0.9999746 -0.006496159
vn -0.002932477 0.9999746 -0.006496159
vn 0.3919744 0.006842446 0.9199507
vn 0.3919744 0.006842446 0.9199507
vn 0.3919744 0.006842446 0.9199507
vn 0.3919744 0.006842446 0.9199507

vt 0.5656427 0.4627538
vt 0.5656427 0.4166852
vt 0.2381222 0.4166852
vt 0.2381222 0.4627538
vt 0.7218583 0.4623536
vt 0.7218583 0.4158848
vt 0.3157649 0.4158848
vt 0.3157649 0.4623536
vt 0.3454894 0.4166095
vt 0.3454894 0.4615315
vt 0.6067356 0.4615315
vt 0.6067356 0.4166095
vt 0.002911936 0.2166834
vt 0.002911936 0.4038782
vt 1.551482 0.4038782
vt 1.551482 0.2166834
vt 0.00466425 0.2167375
vt 0.00466425 0.4039539
vt 1.550984 0.4039539
vt 1.550984 0.2167375
vt 0.004350564 0.21677
vt 0.004350564 0.4037375
vt 1.54907 0.4037375
vt 1.54907 0.21677
vt 0.004902218 0.215883
vt 0.004902218 0.4030345
vt 1.512877 0.4030345
vt 1.512877 0.215883
vt 1.548302 0.405306
vt 1.548302 0.215883
vt 0.00306337 0.215883
vt 0.00306337 0.405306
vt 1.550216 0.403359
vt 1.550216 0.2158722
vt 0.00306337 0.2158722
vt 0.00306337 0.403359
vt 1.550627 0.4051113
vt 1.550627 0.2154936
vt 0.00306337 0.2154936
vt 0.00306337 0.4051113
vt 1.552325 0.4043325
vt 1.552325 0.2158722
vt 0.00306337 0.2158722
vt 0.00306337 0.4043325
vt 1.549621 0.4037808
vt 1.549621 0.2135033
vt 0.003020103 0.2135033
vt 0.003020103 0.4037808
vt -0.08191305 0.2187819
vt -0.02335114 0.3849488
vt 1.479312 0.3691997
vt 1.543466 0.2187819
vt 1.478999 0.401466
vt 1.534813 0.2171053
vt -0.01414608 0.2171053
vt 0.04699021 0.3839862
vt 1.549621 0.4026343
vt 1.549621 0.2135358
vt 0.003020103 0.2135358
vt 0.003020103 0.4026343
vt 1.478999 0.401466
vt 1.534813 0.2171053
vt -0.01414608 0.2171053
vt 0.04699021 0.3839862
vt 1.549621 0.4037808
vt 1.549621 0.2135033
vt 0.003020103 0.2135033
vt 0.003020103 0.4037808
vt 1.549621 0.4026343
vt 1.549621 0.2135358
vt 0.003020103 0.2135358
vt 0.003020103 0.4026343
vt -0.08191305 0.2187819
vt -0.02335114 0.3849488
vt 1.479312 0.3691997
vt 1.543466 0.2187819
vt -0.1155964 0.2130706
vt -0.1155964 0.4042027
vt 2.124283 0.4042027
vt 2.124283 0.2130706
vt -0.1155856 0.2154936
vt -0.1155856 0.4067879
vt 2.122087 0.4067879
vt 2.122087 0.2154936
vt -0.1145905 0.2130706
vt -0.1145905 0.4065175
vt 2.114624 0.4065175
vt 2.114624 0.2130706
vt 0.3337424 0.2125298
vt 0.3337424 0.4069826
vt 0.51144 0.4069826
vt 0.51144 0.2125298
vt 0.333645 0.2109938
vt 0.333645 0.4109956
vt 0.5120349 0.4109956
vt 0.5120349 0.2109938
vt 0.3335585 0.2174406
vt 0.3335585 0.4038998
vt 0.5114616 0.4038998
vt 0.5114616 0.2174406
vt 0.3330068 0.2104746
vt 0.3330068 0.4071773
vt 0.5126947 0.4071773
vt 0.5126947 0.2104746
vt 0.3344779 0.214174
vt 0.3344779 0.4051978
vt 0.5133329 0.4051978
vt 0.5133329 0.214174
vt 0.3335585 0.2174406
vt 0.3335585 0.4038998
vt 0.5114616 0.4038998
vt 0.5114616 0.2174406
vt 0.333645 0.2109938
vt 0.333645 0.4109956
vt 0.5120349 0.4109956
vt 0.5120349 0.2109938
vt 0.3330068 0.2104746
vt 0.3330068 0.4071773
vt 0.5126947 0.4071773
vt 0.5126947 0.2104746
vt 0.3337424 0.2125298
vt 0.3337424 0.4069826
vt 0.51144 0.4069826
vt 0.51144 0.2125298
vt 0.3344779 0.214174
vt 0.3344779 0.4051978
vt 0.5133329 0.4051978
vt 0.5133329 0.214174
vt 0.6936157 0.6206027
vt 0.6936157 0.4650253
vt 0.9956844 0.4650253
vt 0.9956844 0.6206027
vt -0.5254432 0.4620507
vt -0.5254432 0.4166528
vt -0.7112534 0.4166528
vt -0.7112534 0.4620507
vt 0.1556337 0.1785436
vt 0.1513178 0.18247
vt 0.1556337 0.1843305
vt 0.1497386 0.18035
vt 0.1546061 0.177159
vt 0.1490138 0.1756879
vt 0.3136448 0.001819444
vt 0.002024962 0.001678826
vt 0.002024962 0.1614639
vt 0.3149428 0.1613882
vt 0.1556337 0.1785436
vt 0.1513178 0.18247
vt 0.1556337 0.1843305
vt 0.1497386 0.18035
vt 0.1546061 0.177159
vt 0.1490138 0.1756879
vt 0.3136448 0.001819444
vt 0.002024962 0.001678826
vt 0.002024962 0.1614639
vt 0.3149428 0.1613882
vt 0.1556337 0.1785436
vt 0.1513178 0.18247
vt 0.1556337 0.1843305
vt 0.1497386 0.18035
vt 0.1546061 0.177159
vt 0.1490138 0.1756879
vt 0.3136448 0.001819444
vt 0.002024962 0.001678826
vt 0.002024962 0.1614639
vt 0.3149428 0.1613882
vt 0.1556337 0.1785436
vt 0.1513178 0.18247
vt 0.1556337 0.1843305
vt 0.1497386 0.18035
vt 0.1546061 0.177159
vt 0.1490138 0.1756879
vt 0.3136448 0.001819444
vt 0.002024962 0.001678826
vt 0.002024962 0.1614639
vt 0.3149428 0.1613882
vt 0.1556337 0.1785436
vt 0.1513178 0.18247
vt 0.1556337 0.1843305
vt 0.1497386 0.18035
vt 0.1546061 0.177159
vt 0.1490138 0.1756879
vt 0.3136448 0.001819444
vt 0.002024962 0.001678826
vt 0.002024962 0.1614639
vt 0.3149428 0.1613882
vt -0.1155964 0.2130706
vt -0.1155964 0.4042027
vt 2.124283 0.4042027
vt 2.124283 0.2130706
vt -0.1155856 0.2154936
vt -0.1155856 0.4067879
vt 2.122087 0.4067879
vt 2.122087 0.2154936
vt -0.1145905 0.2130706
vt -0.1145905 0.4065175
vt 2.114624 0.4065175
vt 2.114624 0.2130706
vt 0.4188918 0.8242497
vt 0.406366 0.8242497
vt 0.406366 0.8428761
vt 0.4188918 0.8428761
vt 0.6936157 0.6206027
vt 0.9956844 0.6206027
vt 0.9956844 0.4650253
vt 0.6936157 0.4650253

g Car02_186_5
usemtl Car02_186_5
usemap Car02_186_5
f 1/1/1 3/3/3 2/2/2
f 1/1/1 4/4/4 3/3/3
f 5/5/5 7/7/7 6/6/6
f 5/5/5 8/8/8 7/7/7
f 9/9/9 11/11/11 10/10/10
f 9/9/9 12/12/12 11/11/11
f 13/13/13 15/15/15 14/14/14
f 13/13/13 16/16/16 15/15/15
f 17/17/17 19/19/19 18/18/18
f 17/17/17 20/20/20 19/19/19
f 21/21/21 23/23/23 22/22/22
f 21/21/21 24/24/24 23/23/23
f 25/25/25 27/27/27 26/26/26
f 25/25/25 28/28/28 27/27/27
f 29/29/29 31/31/31 30/30/30
f 29/29/29 32/32/32 31/31/31
f 33/33/33 35/35/35 34/34/34
f 33/33/33 36/36/36 35/35/35
f 37/37/37 39/39/39 38/38/38
f 37/37/37 40/40/40 39/39/39
f 41/41/41 43/43/43 42/42/42
f 41/41/41 44/44/44 43/43/43
f 45/45/45 47/47/47 46/46/46
f 45/45/45 48/48/48 47/47/47
f 49/49/49 51/51/51 50/50/50
f 49/49/49 52/52/52 51/51/51
f 53/53/53 55/55/55 54/54/54
f 53/53/53 56/56/56 55/55/55
f 57/57/57 59/59/59 58/58/58
f 57/57/57 60/60/60 59/59/59
f 61/61/61 63/63/63 62/62/62
f 61/61/61 64/64/64 63/63/63
f 65/65/65 67/67/67 66/66/66
f 65/65/65 68/68/68 67/67/67
f 69/69/69 71/71/71 70/70/70
f 69/69/69 72/72/72 71/71/71
f 73/73/73 75/75/75 74/74/74
f 73/73/73 76/76/76 75/75/75
f 77/77/77 79/79/79 78/78/78
f 77/77/77 80/80/80 79/79/79
f 81/81/81 83/83/83 82/82/82
f 81/81/81 84/84/84 83/83/83
f 85/85/85 87/87/87 86/86/86
f 85/85/85 88/88/88 87/87/87
f 89/89/89 91/91/91 90/90/90
f 89/89/89 92/92/92 91/91/91
f 93/93/93 95/95/95 94/94/94
f 93/93/93 96/96/96 95/95/95
f 97/97/97 99/99/99 98/98/98
f 97/97/97 100/100/100 99/99/99
f 101/101/101 103/103/103 102/102/102
f 101/101/101 104/104/104 103/103/103
f 105/105/105 107/107/107 106/106/106
f 105/105/105 108/108/108 107/107/107
f 109/109/109 111/111/111 110/110/110
f 109/109/109 112/112/112 111/111/111
f 113/113/113 115/115/115 114/114/114
f 113/113/113 116/116/116 115/115/115
f 117/117/117 119/119/119 118/118/118
f 117/117/117 120/120/120 119/119/119
f 121/121/121 123/123/123 122/122/122
f 121/121/121 124/124/124 123/123/123
f 125/125/125 127/127/127 126/126/126
f 125/125/125 128/128/128 127/127/127
f 129/129/129 131/131/131 130/130/130
f 129/129/129 132/132/132 131/131/131
f 133/133/133 135/135/135 134/134/134
f 133/133/133 136/136/136 135/135/135
f 137/137/137 139/139/139 138/138/138
f 137/137/137 138/138/138 140/140/140
f 137/137/137 140/140/140 141/141/141
f 142/142/142 141/141/141 140/140/140
f 143/143/143 145/145/145 144/144/144
f 143/143/143 146/146/146 145/145/145
f 147/147/147 149/149/149 148/148/148
f 147/147/147 148/148/148 150/150/150
f 147/147/147 150/150/150 151/151/151
f 152/152/152 151/151/151 150/150/150
f 153/153/153 155/155/155 154/154/154
f 153/153/153 156/156/156 155/155/155
f 157/157/157 159/159/159 158/158/158
f 157/157/157 158/158/158 160/160/160
f 157/157/157 160/160/160 161/161/161
f 162/162/162 161/161/161 160/160/160
f 163/163/163 165/165/165 164/164/164
f 163/163/163 166/166/166 165/165/165
f 167/167/167 169/169/169 168/168/168
f 167/167/167 168/168/168 170/170/170
f 167/167/167 170/170/170 171/171/171
f 172/172/172 171/171/171 170/170/170
f 173/173/173 175/175/175 174/174/174
f 173/173/173 176/176/176 175/175/175
f 177/177/177 179/179/179 178/178/178
f 177/177/177 178/178/178 180/180/180
f 177/177/177 180/180/180 181/181/181
f 182/182/182 181/181/181 180/180/180
f 183/183/183 185/185/185 184/184/184
f 183/183/183 186/186/186 185/185/185
f 187/187/187 189/189/189 188/188/188
f 187/187/187 190/190/190 189/189/189
f 191/191/191 193/193/193 192/192/192
f 191/191/191 194/194/194 193/193/193
f 195/195/195 197/197/197 196/196/196
f 195/195/195 198/198/198 197/197/197
f 199/199/199 201/201/201 200/200/200
f 199/199/199 202/202/202 201/201/201
f 203/203/203 205/205/205 204/204/204
f 203/203/203 206/206/206 205/205/205
