#Ground_Nor_2_291_13.obj

v 900.5828 -12.17342 1067.505
v 653.9836 -67.76079 465.2575
v 1297.204 7.041468 465.2575
v 1790.398 10.00688 1067.505
v -879.0527 -12.17342 1067.505
v 10.76304 -28.76846 465.2575
v 10.76304 -12.17342 1067.505
v -632.4576 -12.17342 465.2575
v -1768.868 -12.17342 1067.505
v -1275.678 -12.17342 465.2575
v 10.76304 -12.17342 1067.505
v 10.76304 -28.76846 465.2575
v 653.9836 -67.76079 465.2575
v 900.5828 -12.17342 1067.505
v -1132.961 48.17949 1669.748
v -1768.868 -12.17342 1067.505
v -879.0527 -12.17342 1067.505
v -561.0989 61.47963 1669.748
v 10.76304 -12.17342 1067.505
v 10.76304 49.46531 1669.748
v 900.5828 -12.17342 1067.505
v 582.629 58.68299 1669.748
v 1790.398 10.00688 1067.505
v 1154.491 66.72334 1669.748
v -105.1129 -0.291693 -74.68811
v -83.13757 -0.291693 -79.05586
v -61.16621 -0.291693 -74.68811
v -123.7412 -0.291693 -62.23982
v -42.53798 -0.291693 -62.23982
v -136.1895 -0.291693 -43.61158
v -30.08969 -0.291693 -43.61158
v -140.5612 -0.291693 -21.63621
v -25.71792 -0.291693 -21.63621
v -136.1895 -0.291693 0.3351417
v -30.08969 -0.291693 0.3351417
v -123.7412 -0.291693 18.96338
v -42.53798 -0.291693 18.96338
v -105.1129 -0.291693 31.41167
v -61.16621 -0.291693 31.41167
v -83.13757 -0.291693 35.78344
v -160.0413 -1.039073 44.5109
v -131.3355 -1.501162 63.68963
v -179.22 -1.063182 15.8051
v -185.9545 -1.388653 -18.052
v -179.22 -2.067724 -51.91312
v -136.1895 -0.291693 -43.61158
v -160.0413 -2.682504 -80.61893
v -123.7412 -0.291693 -62.23982
v -131.3355 -3.771428 -99.79765
v -105.1129 -0.291693 -74.68811
v -83.13757 -0.291693 35.78344
v -97.4744 -2.292742 70.4281
v -105.1129 -0.291693 31.41167
v -105.1129 -0.291693 -74.68811
v -131.3355 -3.771428 -99.79765
v -97.4744 -4.502735 -106.5321
v -83.13757 -0.291693 -79.05586
v -61.16621 -0.291693 31.41167
v -63.61328 -3.835719 63.68963
v -97.4744 -2.292742 70.4281
v -83.13757 -0.291693 35.78344
v -42.53798 -0.291693 18.96338
v -34.9115 -4.727753 44.5109
v -63.61328 -3.835719 63.68963
v -61.16621 -0.291693 31.41167
v -30.08969 -0.291693 0.3351417
v -15.72875 -4.458535 15.8051
v -34.9115 -4.727753 44.5109
v -42.53798 -0.291693 18.96338
v -25.71792 -0.291693 -21.63621
v -8.994298 -5.19386 -18.052
v -15.72875 -4.458535 15.8051
v -30.08969 -0.291693 0.3351417
v -30.08969 -0.291693 -43.61158
v -15.72875 -5.507277 -51.91312
v -8.994298 -5.19386 -18.052
v -25.71792 -0.291693 -21.63621
v -42.53798 -0.291693 -62.23982
v -34.9115 -5.61175 -80.61893
v -15.72875 -5.507277 -51.91312
v -30.08969 -0.291693 -43.61158
v -61.16621 -0.291693 -74.68811
v -63.61328 -5.350569 -99.79765
v -34.9115 -5.61175 -80.61893
v -42.53798 -0.291693 -62.23982
v -83.13757 -0.291693 -79.05586
v -97.4744 -4.502735 -106.5321
v -63.61328 -5.350569 -99.79765
v -61.16621 -0.291693 -74.68811

vn -0.06353445 0.9979796 0
vn -0.06353445 0.9979796 0
vn -0.06353445 0.9979796 0
vn -0.06353445 0.9979796 0
vn 0.01075207 0.9999422 0
vn 0.01075207 0.9999422 0
vn 0.01075207 0.9999422 0
vn 0.01075207 0.9999422 0
vn -0.0009775166 0.9999995 0
vn -0.0009775166 0.9999995 0
vn 0.02443793 0.998045 -0.05752401
vn 0.02443793 0.998045 -0.05752401
vn 0.02443793 0.998045 -0.05752401
vn 0.02443793 0.998045 -0.05752401
vn -0.008797654 0.9941349 -0.1077886
vn -0.008797654 0.9941349 -0.1077886
vn -0.008797654 0.9941349 -0.1077886
vn -0.008797654 0.9941349 -0.1077886
vn -0.00684262 0.9941349 -0.1079303
vn -0.00684262 0.9941349 -0.1079303
vn -0.00684262 0.9941349 -0.1079303
vn -0.00684262 0.9941349 -0.1079303
vn -0.02052786 0.9921799 -0.1231166
vn -0.02052786 0.9921799 -0.1231166
vn -0.0009775166 0.9999995 0
vn -0.0009775166 0.9999995 0
vn -0.0009775166 0.9999995 0
vn -0.0009775166 0.9999995 0
vn -0.0009775166 0.9999995 0
vn -0.0009775166 0.9999995 0
vn -0.0009775166 0.9999995 0
vn -0.0009775166 0.9999995 0
vn -0.0009775166 0.9999995 0
vn -0.0009775166 0.9999995 0
vn -0.0009775166 0.9999995 0
vn -0.0009775166 0.9999995 0
vn -0.0009775166 0.9999995 0
vn -0.0009775166 0.9999995 0
vn -0.0009775166 0.9999995 0
vn -0.0009775166 0.9999995 0
vn -0.01466118 0.9998925 0
vn -0.00684246 0.9999766 0
vn -0.02052354 0.9997894 0
vn -0.0322413 0.9994802 0
vn -0.0400782 0.998045 -0.04795795
vn -0.0400782 0.998045 -0.04795795
vn -0.0342131 0.9960899 -0.08145119
vn -0.0342131 0.9960899 -0.08145119
vn -0.0342131 0.9960899 -0.08145119
vn -0.0342131 0.9960899 -0.08145119
vn 0.004887586 0.998045 0.06230849
vn 0.004887586 0.998045 0.06230849
vn 0.004887586 0.998045 0.06230849
vn -0.01466276 0.9902248 -0.1387075
vn -0.01466276 0.9902248 -0.1387075
vn -0.01466276 0.9902248 -0.1387075
vn -0.01466276 0.9902248 -0.1387075
vn 0.0459433 0.9941349 0.09790313
vn 0.0459433 0.9941349 0.09790313
vn 0.0459433 0.9941349 0.09790313
vn 0.0459433 0.9941349 0.09790313
vn 0.1026393 0.9863148 0.1290285
vn 0.1026393 0.9863148 0.1290285
vn 0.1026393 0.9863148 0.1290285
vn 0.1026393 0.9863148 0.1290285
vn 0.1652004 0.9784946 0.1235195
vn 0.1652004 0.9784946 0.1235195
vn 0.1652004 0.9784946 0.1235195
vn 0.1652004 0.9784946 0.1235195
vn 0.257087 0.9648094 0.05521898
vn 0.257087 0.9648094 0.05521898
vn 0.257087 0.9648094 0.05521898
vn 0.257087 0.9648094 0.05521898
vn 0.3000978 0.9511241 -0.07283006
vn 0.3000978 0.9511241 -0.07283006
vn 0.3000978 0.9511241 -0.07283006
vn 0.3000978 0.9511241 -0.07283006
vn 0.2512219 0.9530792 -0.1689014
vn 0.2512219 0.9530792 -0.1689014
vn 0.2512219 0.9530792 -0.1689014
vn 0.2512219 0.9530792 -0.1689014
vn 0.1476051 0.9667644 -0.2087567
vn 0.1476051 0.9667644 -0.2087567
vn 0.1476051 0.9667644 -0.2087567
vn 0.1476051 0.9667644 -0.2087567
vn 0.05180841 0.9804497 -0.189827
vn 0.05180841 0.9804497 -0.189827
vn 0.05180841 0.9804497 -0.189827
vn 0.05180841 0.9804497 -0.189827

vt 0.7499943 0.499991
vt 0.7499943 0.9999977
vt 0.9999977 0.9999977
vt 0.9999977 0.499991
vt 0.2500261 0.499991
vt 0.499991 0.9999977
vt 0.499991 0.499991
vt 0.2500261 0.9999977
vt 2.275857E-05 0.499991
vt 2.275857E-05 0.9999977
vt 0.499991 0.499991
vt 0.499991 0.9999977
vt 0.7499943 0.9999977
vt 0.7499943 0.499991
vt 2.275857E-05 2.275857E-05
vt 2.275857E-05 0.499991
vt 0.2500261 0.499991
vt 0.2500261 2.275857E-05
vt 0.499991 0.499991
vt 0.499991 2.275857E-05
vt 0.7499943 0.499991
vt 0.7499943 2.275857E-05
vt 0.9999977 0.499991
vt 0.9999977 2.275857E-05
vt -0.03747774 2.108831
vt 0.374836 2.363513
vt 0.8204708 2.361825
vt -0.3535479 1.636509
vt 1.230752 2.105227
vt -0.5250226 1.018556
vt 1.543717 1.633825
vt -0.5255594 0.3492989
vt 1.71266 1.017789
vt -0.3547365 -0.2690759
vt 1.714271 0.350986
vt -0.03908819 -0.742395
vt 1.545327 -0.2664302
vt 0.3733023 -0.99838
vt 1.231136 -0.7403628
vt 0.8193971 -0.9979582
vt -0.650446 -1.705636
vt -0.01408786 -2.101232
vt -1.137301 -0.9750668
vt -1.400763 -0.02072138
vt -1.400456 1.012575
vt -0.5250226 1.018556
vt -1.13638 1.966958
vt -0.3535479 1.636509
vt -0.6494107 2.69841
vt -0.03747774 2.108831
vt 0.8193971 -0.9979582
vt 0.6749933 -2.101232
vt 0.3733023 -0.99838
vt -0.03747774 2.108831
vt -0.6494107 2.69841
vt -0.01286085 3.096268
vt 0.374836 2.363513
vt 1.231136 -0.7403628
vt 1.312348 -1.706672
vt 0.6749933 -2.101232
vt 0.8193971 -0.9979582
vt 1.545327 -0.2664302
vt 1.801542 -0.9769457
vt 1.312348 -1.706672
vt 1.231136 -0.7403628
vt 1.714271 0.350986
vt 2.064352 -0.02033794
vt 1.801542 -0.9769457
vt 1.545327 -0.2664302
vt 1.71266 1.017789
vt 2.06742 1.014338
vt 2.064352 -0.02033794
vt 1.714271 0.350986
vt 1.543717 1.633825
vt 1.806603 1.97363
vt 2.06742 1.014338
vt 1.71266 1.017789
vt 1.230752 2.105227
vt 1.317256 2.707766
vt 1.806603 1.97363
vt 1.543717 1.633825
vt 0.8204708 2.361825
vt 0.6776775 3.101253
vt 1.317256 2.707766
vt 1.230752 2.105227
vt 0.374836 2.363513
vt -0.01286085 3.096268
vt 0.6776775 3.101253
vt 0.8204708 2.361825

g Ground_Nor_2_291_13
usemtl Ground_Nor_2_291_13
usemap Ground_Nor_2_291_13
f 1/1/1 3/3/3 2/2/2
f 1/1/1 4/4/4 3/3/3
f 5/5/5 7/7/7 6/6/6
f 5/5/5 6/6/6 8/8/8
f 9/9/9 5/5/5 8/8/8
f 9/9/9 8/8/8 10/10/10
f 11/11/11 13/13/13 12/12/12
f 11/11/11 14/14/14 13/13/13
f 15/15/15 17/17/17 16/16/16
f 15/15/15 18/18/18 17/17/17
f 18/18/18 19/19/19 17/17/17
f 18/18/18 20/20/20 19/19/19
f 20/20/20 21/21/21 19/19/19
f 20/20/20 22/22/22 21/21/21
f 22/22/22 23/23/23 21/21/21
f 22/22/22 24/24/24 23/23/23
f 25/25/25 27/27/27 26/26/26
f 27/27/27 25/25/25 28/28/28
f 27/27/27 28/28/28 29/29/29
f 29/29/29 28/28/28 30/30/30
f 29/29/29 30/30/30 31/31/31
f 31/31/31 30/30/30 32/32/32
f 31/31/31 32/32/32 33/33/33
f 33/33/33 32/32/32 34/34/34
f 33/33/33 34/34/34 35/35/35
f 35/35/35 34/34/34 36/36/36
f 35/35/35 36/36/36 37/37/37
f 37/37/37 36/36/36 38/38/38
f 37/37/37 38/38/38 39/39/39
f 39/39/39 38/38/38 40/40/40
f 38/38/38 36/36/36 41/41/41
f 38/38/38 41/41/41 42/42/42
f 36/36/36 43/43/43 41/41/41
f 36/36/36 34/34/34 43/43/43
f 34/34/34 44/44/44 43/43/43
f 34/34/34 32/32/32 44/44/44
f 32/32/32 45/45/45 44/44/44
f 32/32/32 46/46/46 45/45/45
f 46/46/46 47/47/47 45/45/45
f 46/46/46 48/48/48 47/47/47
f 48/48/48 49/49/49 47/47/47
f 48/48/48 50/50/50 49/49/49
f 51/51/51 42/42/42 52/52/52
f 51/51/51 53/53/53 42/42/42
f 54/54/54 56/56/56 55/55/55
f 54/54/54 57/57/57 56/56/56
f 58/58/58 60/60/60 59/59/59
f 58/58/58 61/61/61 60/60/60
f 62/62/62 64/64/64 63/63/63
f 62/62/62 65/65/65 64/64/64
f 66/66/66 68/68/68 67/67/67
f 66/66/66 69/69/69 68/68/68
f 70/70/70 72/72/72 71/71/71
f 70/70/70 73/73/73 72/72/72
f 74/74/74 76/76/76 75/75/75
f 74/74/74 77/77/77 76/76/76
f 78/78/78 80/80/80 79/79/79
f 78/78/78 81/81/81 80/80/80
f 82/82/82 84/84/84 83/83/83
f 82/82/82 85/85/85 84/84/84
f 86/86/86 88/88/88 87/87/87
f 86/86/86 89/89/89 88/88/88
