#Ground_grass2_196_2.obj

v -140.9446 -1.735378 18.63925
v -143.7107 -1.743057 4.88145
v -19.49684 0.2037835 8.159464
v -19.49684 0.1564245 20.39794
v -139.7856 -1.581141 33.69239
v -19.49684 0.09306576 32.63577
v -19.49684 0.03354695 44.87361
v -139.7991 -1.406424 49.16664
v -19.49684 0.0002676231 57.11144
v -141.3613 -1.269467 64.15642
v -19.49684 0.01434734 69.34799
v -145.2658 -1.181149 78.98044
v -19.51988 0.1039455 83.12115
v -149.6869 -1.09603 92.18146
v -19.75411 0.3081014 99.34676
v -153.21 -0.9302737 103.9374
v -20.2725 0.6159353 114.5183
v -156.0726 -0.6800387 115.0968
v -21.0808 1.012727 128.6479
v -158.271 -0.3555652 125.6669
v -159.8012 0.03546692 135.6558
v -22.1835 1.484398 141.751
v -160.6588 0.4834579 145.0719
v -23.58571 2.017507 153.8404
v -160.8399 0.979448 153.9223
v -25.29256 2.598615 164.9301
v -160.3407 1.515117 162.2159
v -159.1561 2.080866 169.9604
v -27.30788 3.212363 175.0336
v -157.2835 2.668374 177.1634
v -29.63743 3.84659 184.1642
v -154.7184 3.268682 183.8334
v -151.4558 3.87219 189.9779
v -32.2857 4.485938 192.3362
v -147.493 4.471218 195.6059
v -35.2578 5.117605 199.5636
v -142.8249 5.055526 200.7239
v -38.55821 5.727513 205.8592
v -137.4484 5.617435 205.3408
v -131.3583 6.147344 209.4649
v -42.1927 6.301581 211.237
v -124.5514 6.636934 213.1032
v -46.1651 6.82573 215.7111
v -117.0232 7.076605 216.2641
v -50.48053 7.285882 219.2951
v -108.7699 7.458038 218.9559
v -99.78706 7.771632 221.1869
v -55.14412 7.669234 222.0022
v -90.07142 8.009067 222.9641
v -60.16034 7.961068 223.846
v -79.61787 8.161384 224.2959
v -65.53495 8.147944 224.8412
v -71.2718 8.215783 225.0005
v -99.34291 -5.780736 -445.2714
v -92.73888 -5.910014 -446.074
v -86.95596 -5.951613 -445.4846
v -81.96918 -5.915133 -443.4846
v -106.7911 -5.556101 -443.098
v -77.75487 -5.809536 -440.0523
v -115.1256 -5.225867 -439.628
v -74.28934 -5.643779 -435.1686
v -123.4634 -4.690838 -435.3535
v -130.4508 -3.883174 -430.5306
v -71.54827 -5.426824 -428.8135
v -136.0603 -2.864315 -425.1067
v -69.508 -5.167629 -420.9666
v -140.3187 -1.700178 -419.0211
v -68.14418 -4.874515 -411.6081
v -143.2518 -0.4541233 -412.2122
v -144.885 0.8079314 -404.6188
v -67.38515 -4.573081 -401.305
v -145.2453 2.021347 -396.1799
v -66.27029 -4.411804 -394.6779
v -144.3577 3.121485 -386.8348
v -63.2662 -4.070051 -381.7348
v -142.3622 4.060346 -376.7179
v -58.38501 -3.450543 -361.8446
v -139.3504 4.896169 -366.9658
v -135.2692 5.669914 -356.9289
v -54.54765 -2.999992 -347.9819
v -130.3509 6.3771 -346.3313
v -50.38837 -2.650559 -335.561
v -125.0083 7.017087 -334.8749
v -45.84831 -2.369605 -323.5465
v -119.8564 7.593075 -322.2928
v -41.2084 -2.141129 -312.0223
v -115.6779 8.108265 -308.5203
v -36.80657 -1.938253 -300.9748
v -113.2172 8.563295 -293.8857

vn -0.009326948 0.9992591 -0.03734155
vn -0.009326948 0.9992591 -0.03734155
vn -0.009326948 0.9992591 -0.03734155
vn -0.009326948 0.9992591 -0.03734155
vn -0.009326948 0.9992591 -0.03734155
vn -0.009326948 0.9992591 -0.03734155
vn -0.009326948 0.9992591 -0.03734155
vn -0.009326948 0.9992591 -0.03734155
vn -0.009326948 0.9992591 -0.03734155
vn -0.009326948 0.9992591 -0.03734155
vn -0.009326948 0.9992591 -0.03734155
vn -0.009326948 0.9992591 -0.03734155
vn -0.009326948 0.9992591 -0.03734155
vn -0.009326948 0.9992591 -0.03734155
vn -0.009326948 0.9992591 -0.03734155
vn -0.009326948 0.9992591 -0.03734155
vn -0.009326948 0.9992591 -0.03734155
vn -0.009326948 0.9992591 -0.03734155
vn -0.009326948 0.9992591 -0.03734155
vn -0.009326948 0.9992591 -0.03734155
vn -0.009326948 0.9992591 -0.03734155
vn -0.009326948 0.9992591 -0.03734155
vn -0.009326948 0.9992591 -0.03734155
vn -0.009326948 0.9992591 -0.03734155
vn -0.009326948 0.9992591 -0.03734155
vn -0.009326948 0.9992591 -0.03734155
vn -0.009326948 0.9992591 -0.03734155
vn -0.009326948 0.9992591 -0.03734155
vn -0.009326948 0.9992591 -0.03734155
vn -0.009326948 0.9992591 -0.03734155
vn -0.009326948 0.9992591 -0.03734155
vn -0.009326948 0.9992591 -0.03734155
vn -0.009326948 0.9992591 -0.03734155
vn -0.009326948 0.9992591 -0.03734155
vn -0.009326948 0.9992591 -0.03734155
vn -0.009326948 0.9992591 -0.03734155
vn -0.009326948 0.9992591 -0.03734155
vn -0.009326948 0.9992591 -0.03734155
vn -0.009326948 0.9992591 -0.03734155
vn -0.009326948 0.9992591 -0.03734155
vn -0.009326948 0.9992591 -0.03734155
vn -0.009326948 0.9992591 -0.03734155
vn -0.009326948 0.9992591 -0.03734155
vn -0.009326948 0.9992591 -0.03734155
vn -0.009326948 0.9992591 -0.03734155
vn -0.009326948 0.9992591 -0.03734155
vn -0.009326948 0.9992591 -0.03734155
vn -0.009326948 0.9992591 -0.03734155
vn -0.009326948 0.9992591 -0.03734155
vn -0.009326948 0.9992591 -0.03734155
vn -0.009326948 0.9992591 -0.03734155
vn -0.009326948 0.9992591 -0.03734155
vn -0.009326948 0.9992591 -0.03734155
vn 0.09673721 0.9917596 -0.08399289
vn 0.09673721 0.9917596 -0.08399289
vn 0.09673721 0.9917596 -0.08399289
vn 0.09673721 0.9917596 -0.08399289
vn 0.09673721 0.9917596 -0.08399289
vn 0.09673721 0.9917596 -0.08399289
vn 0.09673721 0.9917596 -0.08399289
vn 0.09673721 0.9917596 -0.08399289
vn 0.09673721 0.9917596 -0.08399289
vn 0.09673721 0.9917596 -0.08399289
vn 0.09673721 0.9917596 -0.08399289
vn 0.09673721 0.9917596 -0.08399289
vn 0.09673721 0.9917596 -0.08399289
vn 0.09673721 0.9917596 -0.08399289
vn 0.09673721 0.9917596 -0.08399289
vn 0.09673721 0.9917596 -0.08399289
vn 0.09673721 0.9917596 -0.08399289
vn 0.09673721 0.9917596 -0.08399289
vn 0.09673721 0.9917596 -0.08399289
vn 0.09673721 0.9917596 -0.08399289
vn 0.09673721 0.9917596 -0.08399289
vn 0.09673721 0.9917596 -0.08399289
vn 0.09673721 0.9917596 -0.08399289
vn 0.09673721 0.9917596 -0.08399289
vn 0.09673721 0.9917596 -0.08399289
vn 0.09673721 0.9917596 -0.08399289
vn 0.09673721 0.9917596 -0.08399289
vn 0.09673721 0.9917596 -0.08399289
vn 0.09673721 0.9917596 -0.08399289
vn 0.09673721 0.9917596 -0.08399289
vn 0.09673721 0.9917596 -0.08399289
vn 0.09673721 0.9917596 -0.08399289
vn 0.09673721 0.9917596 -0.08399289
vn 0.09673721 0.9917596 -0.08399289
vn 0.09673721 0.9917596 -0.08399289
vn 0.09673721 0.9917596 -0.08399289

vt -13.44214 21.15666
vt -14.34022 24.25723
vt 14.19995 25.89037
vt 14.4347 23.08487
vt -12.887 17.72807
vt 14.66941 20.27946
vt 14.90413 17.47414
vt -12.59252 14.1805
vt 15.13896 14.66892
vt -12.6625 10.71426
vt 15.37392 11.86379
vt -13.27263 7.240999
vt 15.63324 8.706062
vt -14.03245 4.129963
vt 15.89162 4.981883
vt -14.61387 1.367055
vt 16.06474 1.493582
vt -15.05516 -1.246708
vt 16.15175 -1.762245
vt -15.35531 -3.713149
vt -15.51322 -6.03412
vt 16.15175 -4.788943
vt -15.52783 -8.21143
vt 16.06385 -7.589862
vt -15.39809 -10.24688
vt 15.88716 -10.16825
vt -15.12425 -12.14242
vt -14.70346 -13.89958
vt 15.62195 -12.52752
vt -14.13473 -15.52005
vt 15.26584 -14.67074
vt -13.41708 -17.00546
vt -12.54954 -18.35738
vt 14.81794 -16.60105
vt -11.53112 -19.57749
vt 14.2774 -18.32159
vt -10.36085 -20.66735
vt 13.64326 -19.83531
vt -9.03775 -21.62852
vt -7.560779 -22.46264
vt 12.91482 -21.14532
vt -5.92896 -23.17129
vt 12.09116 -22.25453
vt -4.141245 -23.75609
vt 11.17152 -23.1659
vt -2.19667 -24.21885
vt -0.09406138 -24.561
vt 10.15508 -23.88233
vt 2.167708 -24.78403
vt 9.040976 -24.40666
vt 4.589702 -24.88941
vt 7.828407 -24.74172
vt 6.516504 -24.89036
vt -7.466248 -88.09187
vt -8.960694 -88.27336
vt -10.26947 -88.14003
vt -11.39794 -87.68737
vt -5.780631 -87.59995
vt -12.35168 -86.91064
vt -3.894303 -86.8147
vt -13.13597 -85.80544
vt -2.007499 -85.84723
vt -0.4262935 -84.75578
vt -13.75623 -84.36725
vt 0.8432437 -83.52833
vt -14.21801 -82.59141
vt 1.807019 -82.15112
vt -14.52667 -80.4735
vt 2.470639 -80.61017
vt 2.840366 -78.89174
vt -14.69852 -78.14186
vt 2.921804 -76.98204
vt -14.95071 -76.64201
vt 2.721025 -74.86712
vt -15.63051 -73.71289
vt 2.269357 -72.57758
vt -16.73527 -69.21172
vt 1.587908 -70.37064
vt 0.6643621 -68.09924
vt -17.60367 -66.07439
vt -0.4488579 -65.70084
vt -18.54496 -63.26349
vt -1.657942 -63.10819
vt -19.57251 -60.54447
vt -2.823722 -60.26077
vt -20.62243 -57.93638
vt -3.769328 -57.14388
vt -21.61855 -55.43633
vt -4.326306 -53.83199

g Ground_grass2_196_2
usemtl Ground_grass2_196_2
usemap Ground_grass2_196_2
f 1/1/1 3/3/3 2/2/2
f 3/3/3 1/1/1 4/4/4
f 4/4/4 1/1/1 5/5/5
f 4/4/4 5/5/5 6/6/6
f 6/6/6 5/5/5 7/7/7
f 7/7/7 5/5/5 8/8/8
f 7/7/7 8/8/8 9/9/9
f 9/9/9 8/8/8 10/10/10
f 9/9/9 10/10/10 11/11/11
f 11/11/11 10/10/10 12/12/12
f 11/11/11 12/12/12 13/13/13
f 13/13/13 12/12/12 14/14/14
f 13/13/13 14/14/14 15/15/15
f 15/15/15 14/14/14 16/16/16
f 15/15/15 16/16/16 17/17/17
f 17/17/17 16/16/16 18/18/18
f 17/17/17 18/18/18 19/19/19
f 19/19/19 18/18/18 20/20/20
f 19/19/19 20/20/20 21/21/21
f 19/19/19 21/21/21 22/22/22
f 22/22/22 21/21/21 23/23/23
f 22/22/22 23/23/23 24/24/24
f 24/24/24 23/23/23 25/25/25
f 24/24/24 25/25/25 26/26/26
f 26/26/26 25/25/25 27/27/27
f 26/26/26 27/27/27 28/28/28
f 26/26/26 28/28/28 29/29/29
f 29/29/29 28/28/28 30/30/30
f 29/29/29 30/30/30 31/31/31
f 31/31/31 30/30/30 32/32/32
f 31/31/31 32/32/32 33/33/33
f 31/31/31 33/33/33 34/34/34
f 34/34/34 33/33/33 35/35/35
f 34/34/34 35/35/35 36/36/36
f 36/36/36 35/35/35 37/37/37
f 36/36/36 37/37/37 38/38/38
f 38/38/38 37/37/37 39/39/39
f 38/38/38 39/39/39 40/40/40
f 38/38/38 40/40/40 41/41/41
f 41/41/41 40/40/40 42/42/42
f 41/41/41 42/42/42 43/43/43
f 43/43/43 42/42/42 44/44/44
f 43/43/43 44/44/44 45/45/45
f 45/45/45 44/44/44 46/46/46
f 45/45/45 46/46/46 47/47/47
f 45/45/45 47/47/47 48/48/48
f 48/48/48 47/47/47 49/49/49
f 48/48/48 49/49/49 50/50/50
f 50/50/50 49/49/49 51/51/51
f 50/50/50 51/51/51 52/52/52
f 52/52/52 51/51/51 53/53/53
f 54/54/54 56/56/56 55/55/55
f 56/56/56 54/54/54 57/57/57
f 57/57/57 54/54/54 58/58/58
f 57/57/57 58/58/58 59/59/59
f 59/59/59 58/58/58 60/60/60
f 59/59/59 60/60/60 61/61/61
f 61/61/61 60/60/60 62/62/62
f 61/61/61 62/62/62 63/63/63
f 61/61/61 63/63/63 64/64/64
f 64/64/64 63/63/63 65/65/65
f 64/64/64 65/65/65 66/66/66
f 66/66/66 65/65/65 67/67/67
f 66/66/66 67/67/67 68/68/68
f 68/68/68 67/67/67 69/69/69
f 68/68/68 69/69/69 70/70/70
f 68/68/68 70/70/70 71/71/71
f 71/71/71 70/70/70 72/72/72
f 71/71/71 72/72/72 73/73/73
f 73/73/73 72/72/72 74/74/74
f 73/73/73 74/74/74 75/75/75
f 75/75/75 74/74/74 76/76/76
f 75/75/75 76/76/76 77/77/77
f 77/77/77 76/76/76 78/78/78
f 77/77/77 78/78/78 79/79/79
f 77/77/77 79/79/79 80/80/80
f 80/80/80 79/79/79 81/81/81
f 80/80/80 81/81/81 82/82/82
f 82/82/82 81/81/81 83/83/83
f 82/82/82 83/83/83 84/84/84
f 84/84/84 83/83/83 85/85/85
f 84/84/84 85/85/85 86/86/86
f 86/86/86 85/85/85 87/87/87
f 86/86/86 87/87/87 88/88/88
f 88/88/88 87/87/87 89/89/89
