#Ground_Nor_2_291_11.obj

v 303.8202 3.557714 -68.6046
v 306.3075 3.778713 -67.08171
v 303.7037 3.674241 -67.29468
v 302.1888 3.569769 -67.43531
v 299.6172 3.292515 -70.98737
v 301.2406 3.284478 -72.17675
v 297.0014 2.991152 -74.52336
v 308.3889 3.549678 -71.8553
v 305.4195 3.272424 -75.41942
v 309.6747 3.774695 -69.04258
v 310.3859 3.959531 -67.09779
v 298.6087 2.979097 -75.72881
v 296.0973 2.669698 -79.0197
v 294.486 2.681753 -77.81826
v 300.5253 3.027315 -77.23965
v 302.446 3.075534 -78.74646
v 309.6024 3.260369 -78.6661
v 312.9616 3.541641 -75.10198
v 316.4895 3.766659 -71.36106
v 293.144 2.29199 -82.7807
v 291.5728 2.308063 -81.52703
v 288.7762 1.922319 -84.98668
v 306.428 2.954988 -82.41505
v 319.5715 3.951494 -68.09027
v 320.5398 4.031858 -64.67885
v 290.3232 1.902228 -86.26446
v 285.9072 1.52452 -88.40614
v 287.4301 1.500411 -89.71204
v 282.9499 1.110648 -91.7814
v 284.4486 1.08654 -93.11945
v 279.9121 0.6967769 -95.10443
v 281.3747 0.6646316 -96.47865
v 290.8978 0.9740307 -98.89356
v 294.1244 1.403975 -95.45
v 297.6684 1.351739 -98.48773
v 297.3228 1.817846 -92.03455
v 300.7303 1.773647 -94.84325
v 300.5052 2.215645 -88.6392
v 303.6917 2.151355 -91.17868
v 303.5068 2.597371 -85.43671
v 308.2603 2.565226 -89.28612
v 312.4794 2.918825 -87.56232
v 317.9803 3.23626 -85.1675
v 322.8101 3.517532 -82.10565
v 327.0091 3.746568 -77.93881
v 329.5646 3.935422 -74.28629
v 332.0077 4.039894 -70.75031
v 325.3215 4.132313 -62.23982
v 334.1494 4.108203 -68.19073
v 327.9694 4.136331 -59.41103
v 336.5362 4.112222 -65.41016
v 330.4727 4.136331 -56.73091
v 338.8346 4.112222 -62.88675
v 332.7068 4.132313 -54.34813
v 341.0446 4.112222 -60.97409
v 335.0414 4.132313 -51.84883
v 343.564 4.108203 -58.78419
v 336.938 4.132313 -49.82367
v 345.5409 4.108203 -57.37381
v 338.9672 4.132313 -47.65386
v 347.8473 4.108203 -55.63797
v 341.3258 4.132313 -45.13045
v 350.7404 4.104185 -53.48824
v 344.0742 4.136331 -42.19317
v 354.0674 4.104185 -50.95278
v 347.2486 4.136331 -38.80585
v 357.5472 4.104185 -47.59761
v 350.3667 4.136331 -35.47077
v 360.6613 4.100167 -44.588
v 353.7902 4.136331 -31.81022
v 364.7317 4.100167 -41.08415
v 357.0128 4.136331 -28.36665
v 368.4404 4.100167 -37.8214
v 360.1228 4.140348 -25.04362
v 371.9804 4.100167 -34.65508
v 363.4539 4.140348 -20.68792
v 374.8293 4.100167 -32.34464
v 376.6898 4.096148 -27.2737
v 365.1295 4.136331 -16.04694
v 378.2528 4.096148 -21.82909
v 369.3968 4.132313 -15.13079
v 379.3257 4.096148 -16.6577
v 366.351 4.160439 -7.102491
v 364.9044 4.168476 -5.708186
v 368.0748 4.168476 -2.332923
v 372.6394 4.128294 -11.73142
v 380.9651 4.096148 -12.39844
v 369.5695 4.160439 -3.67901
v 375.7455 4.124276 -8.404378
v 383.0987 4.096148 -8.601269
v 372.6877 4.160439 -0.03051186
v 371.1366 4.168476 1.247266
v 374.098 4.168476 4.97211
v 378.8354 4.120258 -5.089388
v 382.4317 4.120258 -1.239981
v 375.7053 4.160439 3.770677
v 376.8907 4.168476 8.90188
v 378.5622 4.160439 7.788847

vn -0.0400782 0.998045 -0.04795795
vn -0.0400782 0.9960899 -0.07873072
vn -0.05180841 0.9960899 -0.07155903
vn -0.0400782 0.998045 -0.04795795
vn -0.0342131 0.998045 -0.05230425
vn -0.03616813 0.998045 -0.05097163
vn -0.0400782 0.998045 -0.04795795
vn -0.03225806 0.998045 -0.05353197
vn -0.0342131 0.998045 -0.05230425
vn -0.028348 0.998045 -0.05570153
vn -0.02052786 0.998045 -0.05903258
vn -0.04398827 0.998045 -0.04439937
vn -0.04985337 0.9960899 -0.07293474
vn -0.04398827 0.9960899 -0.07661505
vn -0.05376344 0.998045 -0.03187041
vn -0.0459433 0.9960899 -0.07545881
vn -0.03225806 0.998045 -0.05353197
vn -0.02639296 0.998045 -0.05665378
vn -0.01857283 0.998045 -0.05967678
vn -0.0459433 0.9960899 -0.07545881
vn -0.0459433 0.9960899 -0.07545881
vn -0.04789834 0.9960899 -0.0742332
vn -0.0400782 0.9960899 -0.07873072
vn -0.01075207 0.9999422 0
vn -0.00684246 0.9999766 0
vn -0.04789834 0.9960899 -0.0742332
vn -0.04985337 0.9960899 -0.07293474
vn -0.04985337 0.9960899 -0.07293474
vn -0.05180841 0.9960899 -0.07155903
vn -0.04985337 0.9960899 -0.07293474
vn -0.04985337 0.9960899 -0.07293474
vn -0.04985337 0.9960899 -0.07293474
vn -0.05180841 0.9960899 -0.07155903
vn -0.04985337 0.9960899 -0.07293474
vn -0.04985337 0.9960899 -0.07293474
vn -0.04789834 0.9960899 -0.0742332
vn -0.0459433 0.9960899 -0.07545881
vn -0.0459433 0.9960899 -0.07545881
vn -0.0459433 0.9960899 -0.07545881
vn -0.04789834 0.9960899 -0.0742332
vn -0.04985337 0.9960899 -0.07293474
vn -0.04203324 0.998045 -0.04625418
vn -0.0342131 0.998045 -0.05230425
vn -0.02639296 0.998045 -0.05665378
vn -0.02247721 0.9997473 0
vn -0.01856962 0.9998275 0
vn -0.01466118 0.9998925 0
vn -0.00684246 0.9999766 0
vn -0.008797314 0.9999614 0
vn 0.0009775166 0.9999995 0
vn -0.002932539 0.9999957 0
vn 0.0009775166 0.9999995 0
vn -0.002932539 0.9999957 0
vn 0.0009775166 0.9999995 0
vn -0.002932539 0.9999957 0
vn 0.0009775166 0.9999995 0
vn -0.002932539 0.9999957 0
vn 0.0009775166 0.9999995 0
vn -0.002932539 0.9999957 0
vn 0.0009775166 0.9999995 0
vn -0.002932539 0.9999957 0
vn 0.0009775166 0.9999995 0
vn -0.002932539 0.9999957 0
vn 0.0009775166 0.9999995 0
vn 0.0009775166 0.9999995 0
vn 0.0009775166 0.9999995 0
vn 0.0009775166 0.9999995 0
vn 0.0009775166 0.9999995 0
vn 0.0009775166 0.9999995 0
vn 0.0009775166 0.9999995 0
vn 0.0009775166 0.9999995 0
vn 0.0009775166 0.9999995 0
vn 0.0009775166 0.9999995 0
vn 0.0009775166 0.9999995 0
vn 0.0009775166 0.9999995 0
vn 0.002932539 0.9999957 0
vn 0.002932539 0.9999957 0
vn 0.002932539 0.9999957 0
vn 0.002932539 0.9999957 0
vn 0.002932539 0.9999957 0
vn 0.002932539 0.9999957 0
vn 0.002932539 0.9999957 0
vn 0.002932539 0.9999957 0
vn 0.002932539 0.9999957 0
vn 0.002932539 0.9999957 0
vn 0.002932539 0.9999957 0
vn 0.004887527 0.9999881 0
vn 0.002932539 0.9999957 0
vn 0.004887527 0.9999881 0
vn 0.004887527 0.9999881 0
vn 0.002932539 0.9999957 0
vn 0.002932539 0.9999957 0
vn 0.004887527 0.9999881 0
vn 0.004887527 0.9999881 0
vn 0.002932539 0.9999957 0
vn 0.004887527 0.9999881 0
vn 0.004887527 0.9999881 0
vn 0.004887527 0.9999881 0

vt -1.020696 0.1364893
vt -0.9033251 0.1579236
vt -0.9851897 0.1060441
vt -1.033388 0.07625076
vt -1.213375 0.0960363
vt -1.201527 0.1563515
vt -1.394206 0.1144415
vt -0.9843845 0.3045897
vt -1.176335 0.3159395
vt -0.8636007 0.2726107
vt -0.7851104 0.2466134
vt -1.383354 0.17491
vt -1.553871 0.1903244
vt -1.564952 0.1299324
vt -1.372196 0.2485307
vt -1.361038 0.3221512
vt -1.151181 0.4755275
vt -0.9481109 0.4726901
vt -0.7349563 0.4696992
vt -1.751342 0.2062755
vt -1.759817 0.1456535
vt -1.943791 0.1584988
vt -1.354405 0.4864172
vt -0.5485658 0.4671685
vt -0.365703 0.4701594
vt -1.936736 0.2192358
vt -2.128801 0.1690051
vt -2.123318 0.2298187
vt -2.315 0.1766739
vt -2.311319 0.2375643
vt -2.502234 0.1814669
vt -2.500547 0.2423956
vt -2.295445 0.5001444
vt -2.099277 0.4967701
vt -2.086585 0.6381831
vt -1.904834 0.4935492
vt -1.889343 0.6269866
vt -1.71158 0.4903283
vt -1.69444 0.6134128
vt -1.529139 0.4872608
vt -1.505365 0.6721559
vt -1.331475 0.7269879
vt -1.100759 0.7953171
vt -0.8699657 0.8350415
vt -0.6247938 0.8376489
vt -0.4425828 0.815486
vt -0.267082 0.7933998
vt -0.2087223 0.4676287
vt -0.1292734 0.7855777
vt -0.04836745 0.4650213
vt 0.02218563 0.7782156
vt 0.1035134 0.4624905
vt 0.1633685 0.7745345
vt 0.2387146 0.4602666
vt 0.2839606 0.7818966
vt 0.3802809 0.4579659
vt 0.4218458 0.7900255
vt 0.4951597 0.4560487
vt 0.5209269 0.8031392
vt 0.6182441 0.4540548
vt 0.6389499 0.8162529
vt 0.7612675 0.4517542
vt 0.7864212 0.8333544
vt 0.9276807 0.4489934
vt 0.9578192 0.8516828
vt 1.119938 0.4458492
vt 1.157899 0.8559774
vt 1.308974 0.442705
vt 1.337349 0.8596584
vt 1.516416 0.4393307
vt 1.558901 0.8736156
vt 1.71174 0.4361098
vt 1.762815 0.8847354
vt 1.90024 0.4330423
vt 1.959059 0.8943981
vt 2.070641 0.4302048
vt 2.109982 0.9071283
vt 2.313972 0.8398728
vt 2.263205 0.4270606
vt 2.520493 0.7581233
vt 2.462287 0.4238397
vt 2.704622 0.6716191
vt 2.611599 0.1872952
vt 2.610985 0.1263665
vt 2.802782 0.123529
vt 2.656691 0.4219992
vt 2.878243 0.6167871
vt 2.80631 0.1844577
vt 2.845268 0.4187016
vt 3.052479 0.5825075
vt 3.004549 0.17468
vt 2.997417 0.113943
vt 3.193355 0.09902713
vt 3.032847 0.4154807
vt 3.250948 0.4116463
vt 3.204475 0.1594574
vt 3.39052 0.07625076
vt 3.406164 0.1361059

g Ground_Nor_2_291_11
usemtl Ground_Nor_2_291_11
usemap Ground_Nor_2_291_11
f 1/1/1 3/3/3 2/2/2
f 1/1/1 4/4/4 3/3/3
f 5/5/5 4/4/4 1/1/1
f 5/5/5 1/1/1 6/6/6
f 7/7/7 5/5/5 6/6/6
f 8/8/8 1/1/1 2/2/2
f 9/9/9 6/6/6 1/1/1
f 9/9/9 1/1/1 8/8/8
f 2/2/2 10/10/10 8/8/8
f 11/11/11 10/10/10 2/2/2
f 7/7/7 6/6/6 12/12/12
f 13/13/13 7/7/7 12/12/12
f 13/13/13 14/14/14 7/7/7
f 15/15/15 12/12/12 6/6/6
f 15/15/15 6/6/6 9/9/9
f 13/13/13 12/12/12 15/15/15
f 16/16/16 15/15/15 9/9/9
f 16/16/16 13/13/13 15/15/15
f 17/17/17 9/9/9 8/8/8
f 16/16/16 9/9/9 17/17/17
f 18/18/18 8/8/8 10/10/10
f 17/17/17 8/8/8 18/18/18
f 19/19/19 10/10/10 11/11/11
f 18/18/18 10/10/10 19/19/19
f 20/20/20 14/14/14 13/13/13
f 20/20/20 21/21/21 14/14/14
f 22/22/22 21/21/21 20/20/20
f 23/23/23 13/13/13 16/16/16
f 17/17/17 23/23/23 16/16/16
f 19/19/19 11/11/11 24/24/24
f 24/24/24 11/11/11 25/25/25
f 22/22/22 20/20/20 26/26/26
f 27/27/27 22/22/22 26/26/26
f 27/27/27 26/26/26 28/28/28
f 29/29/29 27/27/27 28/28/28
f 29/29/29 28/28/28 30/30/30
f 31/31/31 29/29/29 30/30/30
f 31/31/31 30/30/30 32/32/32
f 30/30/30 33/33/33 32/32/32
f 33/33/33 30/30/30 28/28/28
f 33/33/33 28/28/28 34/34/34
f 34/34/34 28/28/28 26/26/26
f 35/35/35 33/33/33 34/34/34
f 34/34/34 26/26/26 36/36/36
f 35/35/35 34/34/34 36/36/36
f 36/36/36 26/26/26 20/20/20
f 35/35/35 36/36/36 37/37/37
f 36/36/36 20/20/20 38/38/38
f 37/37/37 36/36/36 38/38/38
f 38/38/38 20/20/20 13/13/13
f 37/37/37 38/38/38 39/39/39
f 38/38/38 13/13/13 40/40/40
f 39/39/39 38/38/38 40/40/40
f 39/39/39 40/40/40 41/41/41
f 40/40/40 13/13/13 23/23/23
f 41/41/41 40/40/40 23/23/23
f 41/41/41 23/23/23 42/42/42
f 42/42/42 23/23/23 17/17/17
f 42/42/42 17/17/17 43/43/43
f 43/43/43 17/17/17 18/18/18
f 43/43/43 18/18/18 44/44/44
f 44/44/44 18/18/18 19/19/19
f 44/44/44 19/19/19 45/45/45
f 45/45/45 19/19/19 24/24/24
f 45/45/45 24/24/24 46/46/46
f 46/46/46 24/24/24 25/25/25
f 46/46/46 25/25/25 47/47/47
f 47/47/47 25/25/25 48/48/48
f 47/47/47 48/48/48 49/49/49
f 49/49/49 48/48/48 50/50/50
f 49/49/49 50/50/50 51/51/51
f 51/51/51 50/50/50 52/52/52
f 51/51/51 52/52/52 53/53/53
f 53/53/53 52/52/52 54/54/54
f 53/53/53 54/54/54 55/55/55
f 55/55/55 54/54/54 56/56/56
f 55/55/55 56/56/56 57/57/57
f 57/57/57 56/56/56 58/58/58
f 57/57/57 58/58/58 59/59/59
f 59/59/59 58/58/58 60/60/60
f 59/59/59 60/60/60 61/61/61
f 61/61/61 60/60/60 62/62/62
f 61/61/61 62/62/62 63/63/63
f 63/63/63 62/62/62 64/64/64
f 63/63/63 64/64/64 65/65/65
f 65/65/65 64/64/64 66/66/66
f 65/65/65 66/66/66 67/67/67
f 67/67/67 66/66/66 68/68/68
f 67/67/67 68/68/68 69/69/69
f 69/69/69 68/68/68 70/70/70
f 69/69/69 70/70/70 71/71/71
f 71/71/71 70/70/70 72/72/72
f 71/71/71 72/72/72 73/73/73
f 73/73/73 72/72/72 74/74/74
f 73/73/73 74/74/74 75/75/75
f 75/75/75 74/74/74 76/76/76
f 75/75/75 76/76/76 77/77/77
f 76/76/76 78/78/78 77/77/77
f 76/76/76 79/79/79 78/78/78
f 79/79/79 80/80/80 78/78/78
f 79/79/79 81/81/81 80/80/80
f 81/81/81 82/82/82 80/80/80
f 81/81/81 79/79/79 83/83/83
f 79/79/79 84/84/84 83/83/83
f 83/83/83 84/84/84 85/85/85
f 81/81/81 86/86/86 82/82/82
f 86/86/86 81/81/81 83/83/83
f 86/86/86 87/87/87 82/82/82
f 88/88/88 83/83/83 85/85/85
f 86/86/86 83/83/83 88/88/88
f 86/86/86 89/89/89 87/87/87
f 86/86/86 88/88/88 89/89/89
f 89/89/89 90/90/90 87/87/87
f 85/85/85 91/91/91 88/88/88
f 89/89/89 88/88/88 91/91/91
f 85/85/85 92/92/92 91/91/91
f 91/91/91 92/92/92 93/93/93
f 89/89/89 94/94/94 90/90/90
f 89/89/89 91/91/91 94/94/94
f 90/90/90 94/94/94 95/95/95
f 91/91/91 93/93/93 96/96/96
f 94/94/94 91/91/91 96/96/96
f 94/94/94 96/96/96 95/95/95
f 96/96/96 93/93/93 97/97/97
f 95/95/95 96/96/96 98/98/98
f 96/96/96 97/97/97 98/98/98
