#prop_Nor_3_292_2.obj

v 32.2103 -22.39994 103.464
v 32.2103 12.20474 103.464
v 152.6628 12.20474 97.37381
v 152.6628 -22.39994 97.37381
v -196.5138 -22.39994 -10.89824
v -196.5138 12.20474 -10.89824
v -115.3102 12.20474 60.83195
v -115.3102 -22.39994 60.83195
v 152.6628 -22.39994 97.37381
v 152.6628 12.20474 97.37381
v 179.7304 12.20474 22.937
v 179.7304 -22.39994 22.937
v -115.3102 -22.39994 60.83195
v -115.3102 12.20474 60.83195
v 32.2103 12.20474 103.464
v 32.2103 -22.39994 103.464
v -197.8674 -22.39994 -89.39522
v -197.8674 12.20474 -89.39522
v -196.5138 12.20474 -10.89824
v -196.5138 -22.39994 -10.89824
v -197.8674 -22.39994 -89.39522
v -112.6094 -20.59479 -131.4894
v -112.6094 14.0099 -131.4894
v -197.8674 12.20474 -89.39522

vn 0.04985337 0.0009775171 0.9987561
vn 0.04985337 0.0009775171 0.9987561
vn 0.04985337 0.0009775171 0.9987561
vn 0.04985337 0.0009775171 0.9987561
vn -0.6617791 0.0009775171 0.7496983
vn -0.6617791 0.0009775171 0.7496983
vn -0.6617791 0.0009775171 0.7496983
vn -0.6617791 0.0009775171 0.7496983
vn 0.9393939 0.0009775171 0.3428383
vn 0.9393939 0.0009775171 0.3428383
vn 0.9393939 0.0009775171 0.3428383
vn 0.9393939 0.0009775171 0.3428383
vn -0.2785924 0.0009775171 0.9604089
vn -0.2785924 0.0009775171 0.9604089
vn -0.2785924 0.0009775171 0.9604089
vn -0.2785924 0.0009775171 0.9604089
vn -0.9999995 0.0009775166 0
vn -0.9999995 0.0009775166 0
vn -0.9999995 0.0009775166 0
vn -0.9999995 0.0009775166 0
vn -0.4428152 0.0009775171 -0.8966123
vn -0.4428152 0.0009775171 -0.8966123
vn -0.4428152 0.0009775171 -0.8966123
vn -0.4428152 0.0009775171 -0.8966123

vt 6.837649 0.001028682
vt 6.837649 0.2755923
vt 8.730934 0.2755923
vt 8.730934 0.001028682
vt 2.726233 0.001028682
vt 2.726233 0.2755923
vt 4.427087 0.2755923
vt 4.427087 0.001028682
vt 8.730934 0.001028682
vt 8.730934 0.2755923
vt 9.974307 0.2755923
vt 9.974307 0.001028682
vt 4.427087 0.001028682
vt 4.427087 0.2755923
vt 6.837649 0.2755923
vt 6.837649 0.001028682
vt 1.493787 0.001028682
vt 1.493787 0.2755923
vt 2.726233 0.2755923
vt 2.726233 0.001028682
vt 1.493787 0.001028682
vt 0.0008933104 0.001028682
vt 0.0008933104 0.2755923
vt 1.493787 0.2755923

g prop_Nor_3_292_2
usemtl prop_Nor_3_292_2
usemap prop_Nor_3_292_2
f 1/1/1 3/3/3 2/2/2
f 1/1/1 4/4/4 3/3/3
f 5/5/5 7/7/7 6/6/6
f 5/5/5 8/8/8 7/7/7
f 9/9/9 11/11/11 10/10/10
f 9/9/9 12/12/12 11/11/11
f 13/13/13 15/15/15 14/14/14
f 13/13/13 16/16/16 15/15/15
f 17/17/17 19/19/19 18/18/18
f 17/17/17 20/20/20 19/19/19
f 21/21/21 23/23/23 22/22/22
f 21/21/21 24/24/24 23/23/23
