#Prop_52_108_25.obj

v 156.5539 24.63718 -90.81606
v 210.3728 24.63718 -98.67105
v 210.3728 18.89792 -98.67105
v 156.5539 18.89792 -90.81606
v 209.9946 24.63718 -102.0186
v 156.1762 24.63718 -94.16362
v 156.1762 18.89792 -94.16362
v 209.9946 18.89792 -102.0186

vn 0.143695 0.0009775171 0.9896215
vn 0.143695 0.0009775171 0.9896215
vn 0.143695 0.0009775171 0.9896215
vn 0.143695 0.0009775171 0.9896215
vn -0.143695 0.0009775171 -0.9896215
vn -0.143695 0.0009775171 -0.9896215
vn -0.143695 0.0009775171 -0.9896215
vn -0.143695 0.0009775171 -0.9896215

vt -0.3325912 0.8518093
vt 1.332855 0.8518093
vt 1.332855 0.7118036
vt -0.3325912 0.7118036
vt -0.3433574 0.851401
vt 1.317976 0.8511894
vt 1.317961 0.7121968
vt -0.3433725 0.7124236

g Prop_52_108_25
usemtl Prop_52_108_25
usemap Prop_52_108_25
f 1/1/1 3/3/3 2/2/2
f 1/1/1 4/4/4 3/3/3
f 5/5/5 7/7/7 6/6/6
f 5/5/5 8/8/8 7/7/7
