#prop_Nor_5.001_293_42.obj

v -0.1129456 12.94754 131.2787
v -0.1129456 21.67402 131.2787
v 43.11714 21.67402 85.1128
v 43.11714 12.94754 85.1128
v 20.22656 12.94754 98.32978
v 20.22656 21.67402 98.32978
v 14.62885 21.67402 98.26527
v 14.62885 12.94754 98.26527
v 14.62885 12.94754 98.26527
v 14.62885 21.67402 98.26527
v 10.39108 21.67402 102.7423
v 10.39108 12.94754 102.7423
v 27.43529 12.94754 80.25401
v 27.43529 21.67402 80.25401
v 27.4998 21.67402 85.26704
v 27.4998 12.94754 85.26704
v 10.39108 12.94754 102.7423
v 10.39108 21.67402 102.7423
v 10.91129 21.67402 108.469
v 10.91129 12.94754 108.469
v 30.11951 12.94754 77.41849
v 30.11951 21.67402 77.41849
v 27.43529 21.67402 80.25401
v 27.43529 12.94754 80.25401
v 10.91129 12.94754 108.469
v 10.91129 21.67402 108.469
v 0.2459717 21.67402 119.7355
v 0.2459717 12.94754 119.7355
v 43.11714 12.94754 85.1128
v 43.11714 21.67402 85.1128
v 35.2856 21.67402 77.64075
v 35.2856 12.94754 77.64075
v 0.2459717 12.94754 119.7355
v 0.2459717 21.67402 119.7355
v -12.10364 21.67402 119.9278
v -12.10364 12.94754 119.9278
v 35.2856 12.94754 77.64075
v 35.2856 21.67402 77.64075
v 30.11951 21.67402 77.41849
v 30.11951 12.94754 77.41849
v -12.10364 12.94754 119.9278
v -12.10364 21.67402 119.9278
v -0.1129456 21.67402 131.2787
v -0.1129456 12.94754 131.2787
v 27.4998 12.94754 85.26704
v 27.4998 21.67402 85.26704
v 30.18578 21.67402 87.80992
v 30.18578 12.94754 87.80992
v 30.18578 12.94754 87.80992
v 30.18578 21.67402 87.80992
v 20.22656 21.67402 98.32978
v 20.22656 12.94754 98.32978

vn 0.7302053 0.0009775171 0.6832271
vn 0.7302053 0.0009775171 0.6832271
vn 0.7302053 0.0009775171 0.6832271
vn 0.7302053 0.0009775171 0.6832271
vn 0.01075269 0.0009775171 -0.9999417
vn 0.01075269 0.0009775171 -0.9999417
vn 0.01075269 0.0009775171 -0.9999417
vn 0.01075269 0.0009775171 -0.9999417
vn -0.7262952 0.0009775171 -0.6873822
vn -0.7262952 0.0009775171 -0.6873822
vn -0.7262952 0.0009775171 -0.6873822
vn -0.7262952 0.0009775171 -0.6873822
vn -0.9999995 0.0009775166 0
vn -0.9999995 0.0009775166 0
vn -0.9999995 0.0009775166 0
vn -0.9999995 0.0009775166 0
vn -0.9960899 0.0009775171 0.08833943
vn -0.9960899 0.0009775171 0.08833943
vn -0.9960899 0.0009775171 0.08833943
vn -0.9960899 0.0009775171 0.08833943
vn -0.7262952 0.0009775171 -0.6873822
vn -0.7262952 0.0009775171 -0.6873822
vn -0.7262952 0.0009775171 -0.6873822
vn -0.7262952 0.0009775171 -0.6873822
vn -0.7262952 0.0009775171 -0.6873822
vn -0.7262952 0.0009775171 -0.6873822
vn -0.7262952 0.0009775171 -0.6873822
vn -0.7262952 0.0009775171 -0.6873822
vn 0.6911046 0.0009775171 -0.7227541
vn 0.6911046 0.0009775171 -0.7227541
vn 0.6911046 0.0009775171 -0.7227541
vn 0.6911046 0.0009775171 -0.7227541
vn -0.01466276 0.0009775171 -0.999892
vn -0.01466276 0.0009775171 -0.999892
vn -0.01466276 0.0009775171 -0.999892
vn -0.01466276 0.0009775171 -0.999892
vn 0.04203324 0.0009775171 -0.9991157
vn 0.04203324 0.0009775171 -0.9991157
vn 0.04203324 0.0009775171 -0.9991157
vn 0.04203324 0.0009775171 -0.9991157
vn -0.6871945 0.0009775171 0.7264729
vn -0.6871945 0.0009775171 0.7264729
vn -0.6871945 0.0009775171 0.7264729
vn -0.6871945 0.0009775171 0.7264729
vn -0.6871945 0.0009775171 0.7264729
vn -0.6871945 0.0009775171 0.7264729
vn -0.6871945 0.0009775171 0.7264729
vn -0.6871945 0.0009775171 0.7264729
vn -0.7262952 0.0009775171 -0.6873822
vn -0.7262952 0.0009775171 -0.6873822
vn -0.7262952 0.0009775171 -0.6873822
vn -0.7262952 0.0009775171 -0.6873822

vt 0.5198576 0.3679889
vt 0.5198576 0.1736363
vt 0.5087126 0.1736363
vt 0.5087126 0.3679889
vt 0.9790934 0.310679
vt 0.9790934 0.08976242
vt 0.9210985 0.08976242
vt 0.9210985 0.310679
vt 0.9210985 0.310679
vt 0.9210985 0.08976242
vt 0.8527458 0.08976242
vt 0.8527458 0.310679
vt 0.7106418 0.1888917
vt 0.7106418 0.3693079
vt 0.7692912 0.3693079
vt 0.7692912 0.1888917
vt 0.8527458 0.310679
vt 0.8527458 0.08976242
vt 0.7904155 0.08976242
vt 0.7904155 0.310679
vt 0.6407145 0.1888917
vt 0.6407145 0.3693079
vt 0.7106418 0.3693079
vt 0.7106418 0.1888917
vt 0.3922217 0.1084738
vt 0.3922217 0.2492179
vt 0.5732003 0.2492179
vt 0.5732003 0.1084738
vt 0.5796828 0.3487254
vt 0.6810002 0.3487254
vt 0.6810002 0.1777569
vt 0.5796828 0.1777569
vt 0.3942257 0.1139133
vt 0.3942257 0.2482056
vt 0.5710633 0.2482056
vt 0.5710633 0.1139133
vt 0.5802758 0.1888917
vt 0.5802758 0.3693079
vt 0.6407145 0.3693079
vt 0.6407145 0.1888917
vt 0.3892258 0.1416021
vt 0.3892258 0.306221
vt 0.5735275 0.306221
vt 0.5735275 0.1416021
vt 0.6810513 0.1777569
vt 0.6810513 0.3155869
vt 0.7735447 0.3155869
vt 0.7735447 0.1777569
vt 0.3922217 0.1084738
vt 0.3922217 0.2492179
vt 0.5723721 0.2492179
vt 0.5723721 0.1084738

g prop_Nor_5.001_293_42
usemtl prop_Nor_5.001_293_42
usemap prop_Nor_5.001_293_42
f 1/1/1 3/3/3 2/2/2
f 1/1/1 4/4/4 3/3/3
f 5/5/5 7/7/7 6/6/6
f 5/5/5 8/8/8 7/7/7
f 9/9/9 11/11/11 10/10/10
f 9/9/9 12/12/12 11/11/11
f 13/13/13 15/15/15 14/14/14
f 13/13/13 16/16/16 15/15/15
f 17/17/17 19/19/19 18/18/18
f 17/17/17 20/20/20 19/19/19
f 21/21/21 23/23/23 22/22/22
f 21/21/21 24/24/24 23/23/23
f 25/25/25 27/27/27 26/26/26
f 25/25/25 28/28/28 27/27/27
f 29/29/29 31/31/31 30/30/30
f 29/29/29 32/32/32 31/31/31
f 33/33/33 35/35/35 34/34/34
f 33/33/33 36/36/36 35/35/35
f 37/37/37 39/39/39 38/38/38
f 37/37/37 40/40/40 39/39/39
f 41/41/41 43/43/43 42/42/42
f 41/41/41 44/44/44 43/43/43
f 45/45/45 47/47/47 46/46/46
f 45/45/45 48/48/48 47/47/47
f 49/49/49 51/51/51 50/50/50
f 49/49/49 52/52/52 51/51/51
