#Prop02.001_100_1.obj

v 4.137985 3.189557 69.51376
v -8.035482 2.640324 48.99852
v 3.907984 2.78202 69.64935
v 4.137985 3.189557 69.51376
v -8.035482 2.640324 48.99852
v -7.80585 3.047676 48.86292
v 27.20227 3.295413 90.5603
v 9.263793 3.156858 74.82634
v 27.01846 2.889723 90.75798
v 27.20227 3.295413 90.5603
v 9.263793 3.156858 74.82634
v 9.44724 3.562548 74.62866
v 49.73117 -0.7058787 -57.71713
v 49.73154 0.827836 -57.71713
v 52.6425 0.827836 -34.03896
v 49.46552 1.234634 -57.68425
v 52.37684 1.234634 -34.00626
v 49.73117 -0.7058787 -57.71713
v 52.64213 -0.7058787 -34.03896
v 52.6425 0.827836 -34.03896
v 49.46552 1.234634 -57.68425
v 49.73154 0.827836 -57.71713
v 53.13391 -0.7058787 -29.87675
v 53.13428 0.827836 -29.87675
v 56.04542 0.827836 -6.198761
v 52.86862 1.234634 -29.84406
v 55.77958 1.234634 -6.166245
v 53.13391 -0.7058787 -29.87675
v 56.04505 -0.7058787 -6.198761
v 56.04542 0.827836 -6.198761
v 52.86862 1.234634 -29.84406
v 53.13428 0.827836 -29.87675
v 3.915743 1.24849 69.65546
v 3.907984 2.78202 69.64935
v -8.035482 2.640324 48.99852
v -8.027538 1.106609 49.00444
v 27.00127 1.356194 90.75171
v 27.01846 2.889723 90.75798
v 9.263793 3.156858 74.82634
v 9.246428 1.623328 74.82007

vn 0.7262952 -0.5483871 -0.4144476
vn 0.7262952 -0.5483871 -0.4144476
vn 0.7262952 -0.5483871 -0.4144476
vn -0.7262952 0.5483871 0.4144476
vn -0.7262952 0.5483871 0.4144476
vn -0.7262952 0.5483871 0.4144476
vn 0.5522972 -0.5542522 -0.6227137
vn 0.5522972 -0.5542522 -0.6227137
vn 0.5522972 -0.5542522 -0.6227137
vn -0.5522972 0.5542522 0.6227137
vn -0.5522972 0.5542522 0.6227137
vn -0.5522972 0.5542522 0.6227137
vn -0.9921799 0.0009775171 0.1248125
vn -0.9511241 -0.2864125 0.115459
vn -0.9511241 -0.2864125 0.115459
vn -0.829912 -0.5503421 0.09148533
vn -0.829912 -0.5503421 0.09148533
vn 0.9921799 -0.0009775171 -0.1248125
vn 0.9921799 -0.0009775171 -0.1248125
vn 0.9511241 0.2864125 -0.115459
vn 0.829912 0.5503421 -0.09148533
vn 0.9511241 0.2864125 -0.115459
vn -0.9921799 0.0009775171 0.1248125
vn -0.9511241 -0.2864125 0.115459
vn -0.9511241 -0.2864125 0.115459
vn -0.829912 -0.5503421 0.09148533
vn -0.829912 -0.5503421 0.09148533
vn 0.9921799 -0.0009775171 -0.1248125
vn 0.9921799 -0.0009775171 -0.1248125
vn 0.9511241 0.2864125 -0.115459
vn 0.829912 0.5503421 -0.09148533
vn 0.9511241 0.2864125 -0.115459
vn 0.8651026 0.002932551 -0.5015863
vn 0.8651026 0.002932551 -0.5015863
vn 0.8651026 0.002932551 -0.5015863
vn 0.8651026 0.002932551 -0.5015863
vn 0.6676442 -0.004887586 -0.7444645
vn 0.6676442 -0.004887586 -0.7444645
vn 0.6676442 -0.004887586 -0.7444645
vn 0.6676442 -0.004887586 -0.7444645

vt 0.003394795 -5.001665
vt 0.2656211 6.001659
vt 0.2656211 -5.001707
vt 0.003394795 -5.001665
vt 0.2656211 6.001659
vt 0.003394795 6.001691
vt 0.003394795 -5.001665
vt 0.2656211 6.001659
vt 0.2656211 -5.001707
vt 0.003394795 -5.001665
vt 0.2656211 6.001659
vt 0.003394795 6.001691
vt 1.000996 -5.001707
vt 0.2656211 -5.001707
vt 0.2656211 6.001659
vt 0.003394795 -5.001665
vt 0.003394795 6.001691
vt 1.000996 -5.001707
vt 1.000996 6.001649
vt 0.2656211 6.001659
vt 0.003394795 -5.001665
vt 0.2656211 -5.001707
vt 1.000996 -5.001707
vt 0.2656211 -5.001707
vt 0.2656211 6.001659
vt 0.003394795 -5.001665
vt 0.003394795 6.001691
vt 1.000996 -5.001707
vt 1.000996 6.001649
vt 0.2656211 6.001659
vt 0.003394795 -5.001665
vt 0.2656211 -5.001707
vt 1.000996 -5.001707
vt 0.2656211 -5.001707
vt 0.2656211 6.001659
vt 1.000996 6.001649
vt 1.000996 -5.001707
vt 0.2656211 -5.001707
vt 0.2656211 6.001659
vt 1.000996 6.001649

g Prop02.001_100_1
usemtl Prop02.001_100_1
usemap Prop02.001_100_1
f 1/1/1 3/3/3 2/2/2
f 4/4/4 6/6/6 5/5/5
f 7/7/7 9/9/9 8/8/8
f 10/10/10 12/12/12 11/11/11
f 13/13/13 15/15/15 14/14/14
f 16/16/16 15/15/15 17/17/17
f 18/18/18 20/20/20 19/19/19
f 21/21/21 20/20/20 22/22/22
f 23/23/23 25/25/25 24/24/24
f 26/26/26 25/25/25 27/27/27
f 28/28/28 30/30/30 29/29/29
f 31/31/31 30/30/30 32/32/32
f 33/33/33 35/35/35 34/34/34
f 33/33/33 36/36/36 35/35/35
f 37/37/37 39/39/39 38/38/38
f 37/37/37 40/40/40 39/39/39
