#Prop02_191_31.obj

v 39.63262 -5.148127 -68.00517
v 39.63301 -3.614372 -68.00517
v 39.62724 -3.614372 -44.14851
v 39.62685 -5.148127 -44.14851
v 39.36533 -3.207473 -68.00517
v 39.35956 -3.207473 -44.14889
v 39.62724 -3.614372 -44.14851
v 39.63301 -3.614372 -68.00517
v 39.63262 -5.148127 -68.00517
v 39.62685 -5.148127 -44.14851
v 39.62724 -3.614372 -44.14851
v 39.63301 -3.614372 -68.00517
v 39.36533 -3.207473 -68.00517
v 39.63301 -3.614372 -68.00517
v 39.62724 -3.614372 -44.14851
v 39.35956 -3.207473 -44.14889
v 34.69484 -7.763357 -209.7102
v 34.68945 -6.229986 -185.854
v 34.68907 -7.763357 -185.854
v 34.69522 -6.229986 -209.7102
v 34.42754 -5.823087 -209.7106
v 34.42178 -5.823087 -185.854
v 34.69484 -7.763357 -209.7102
v 34.68907 -7.763357 -185.854
v 34.68945 -6.229986 -185.854
v 34.69522 -6.229986 -209.7102
v 34.42754 -5.823087 -209.7106
v 34.42178 -5.823087 -185.854
v -11.97393 -7.763357 -185.7632
v -11.96855 -6.229986 -209.6195
v -11.96816 -7.763357 -209.6195
v -11.97432 -6.229986 -185.7632
v -11.70664 -5.823087 -185.7632
v -11.70087 -5.823087 -209.6195
v -11.97393 -7.763357 -185.7632
v -11.96816 -7.763357 -209.6195
v -11.96855 -6.229986 -209.6195
v -11.97432 -6.229986 -185.7632
v -11.70664 -5.823087 -185.7632
v -11.70087 -5.823087 -209.6195
v 39.63262 -5.148127 -41.70788
v 39.63301 -3.614372 -41.70788
v 39.62724 -3.614372 -17.85161
v 39.62685 -5.148127 -17.85161
v 39.36533 -3.207473 -41.70827
v 39.35956 -3.207473 -17.85161
v 39.62724 -3.614372 -17.85161
v 39.63301 -3.614372 -41.70788
v 39.63262 -5.148127 -41.70788
v 39.62685 -5.148127 -17.85161
v 39.62724 -3.614372 -17.85161
v 39.63301 -3.614372 -41.70788
v 39.36533 -3.207473 -41.70827
v 39.63301 -3.614372 -41.70788
v 39.62724 -3.614372 -17.85161
v 39.35956 -3.207473 -17.85161
v 39.63262 -5.148127 -15.12907
v 39.63301 -3.614372 -15.12907
v 39.62724 -3.614372 8.727203
v 39.62685 -5.148127 8.727203
v 39.36533 -3.207473 -15.12907
v 39.35956 -3.207473 8.727203
v 39.62724 -3.614372 8.727203
v 39.63301 -3.614372 -15.12907
v 39.63262 -5.148127 -15.12907
v 39.62685 -5.148127 8.727203
v 39.62724 -3.614372 8.727203
v 39.63301 -3.614372 -15.12907
v 39.36533 -3.207473 -15.12907
v 39.63301 -3.614372 -15.12907
v 39.62724 -3.614372 8.727203
v 39.35956 -3.207473 8.727203
v 39.63262 -3.535531 50.17667
v 39.63301 -2.001775 50.17667
v 39.62724 -2.001775 74.03296
v 39.62685 -3.535531 74.03296
v 39.36533 -1.595261 50.17667
v 39.35956 -1.595261 74.03296
v 39.62724 -2.001775 74.03296
v 39.63301 -2.001775 50.17667
v 39.63262 -3.535531 50.17667
v 39.62685 -3.535531 74.03296
v 39.62724 -2.001775 74.03296
v 39.63301 -2.001775 50.17667
v 39.36533 -1.595261 50.17667
v 39.63301 -2.001775 50.17667
v 39.62724 -2.001775 74.03296
v 39.35956 -1.595261 74.03296
v 39.63262 -3.535531 76.75548
v 39.63301 -2.001775 76.75548
v 39.62724 -2.001775 100.6118
v 39.62685 -3.535531 100.6118
v 39.36533 -1.595261 76.75548
v 39.35956 -1.595261 100.6118
v 39.62724 -2.001775 100.6118
v 39.63301 -2.001775 76.75548
v 39.63262 -3.535531 76.75548
v 39.62685 -3.535531 100.6118
v 39.62724 -2.001775 100.6118
v 39.63301 -2.001775 76.75548
v 39.36533 -1.595261 76.75548
v 39.63301 -2.001775 76.75548
v 39.62724 -2.001775 100.6118
v 39.35956 -1.595261 100.6118

vn -0.9999995 0.0009775166 0
vn -0.9999995 0.0009775166 0
vn -0.9999995 0.0009775166 0
vn -0.9999995 0.0009775166 0
vn -0.8351928 -0.5499574 0
vn -0.8351928 -0.5499574 0
vn -0.8351928 -0.5499574 0
vn -0.8351928 -0.5499574 0
vn 0.9999995 -0.0009775166 0
vn 0.9999995 -0.0009775166 0
vn 0.9999995 -0.0009775166 0
vn 0.9999995 -0.0009775166 0
vn 0.8351928 0.5499574 0
vn 0.8351928 0.5499574 0
vn 0.8351928 0.5499574 0
vn 0.8351928 0.5499574 0
vn -0.9999995 0.0009775166 0
vn -0.9581751 -0.2861828 0
vn -0.9999995 0.0009775166 0
vn -0.9581751 -0.2861828 0
vn -0.8351928 -0.5499574 0
vn -0.8351928 -0.5499574 0
vn 0.9999995 -0.0009775166 0
vn 0.9999995 -0.0009775166 0
vn 0.9581751 0.2861828 0
vn 0.9581751 0.2861828 0
vn 0.8351928 0.5499574 0
vn 0.8351928 0.5499574 0
vn 0.9999995 0.0009775166 0
vn 0.9581751 -0.2861828 0
vn 0.9999995 0.0009775166 0
vn 0.9581751 -0.2861828 0
vn 0.8351928 -0.5499574 0
vn 0.8351928 -0.5499574 0
vn -0.9999995 -0.0009775166 0
vn -0.9999995 -0.0009775166 0
vn -0.9581751 0.2861828 0
vn -0.9581751 0.2861828 0
vn -0.8351928 0.5499574 0
vn -0.8351928 0.5499574 0
vn -0.9999995 0.0009775166 0
vn -0.9999995 0.0009775166 0
vn -0.9999995 0.0009775166 0
vn -0.9999995 0.0009775166 0
vn -0.8351928 -0.5499574 0
vn -0.8351928 -0.5499574 0
vn -0.8351928 -0.5499574 0
vn -0.8351928 -0.5499574 0
vn 0.9999995 -0.0009775166 0
vn 0.9999995 -0.0009775166 0
vn 0.9999995 -0.0009775166 0
vn 0.9999995 -0.0009775166 0
vn 0.8351928 0.5499574 0
vn 0.8351928 0.5499574 0
vn 0.8351928 0.5499574 0
vn 0.8351928 0.5499574 0
vn -0.9999995 0.0009775166 0
vn -0.9999995 0.0009775166 0
vn -0.9999995 0.0009775166 0
vn -0.9999995 0.0009775166 0
vn -0.8351928 -0.5499574 0
vn -0.8351928 -0.5499574 0
vn -0.8351928 -0.5499574 0
vn -0.8351928 -0.5499574 0
vn 0.9999995 -0.0009775166 0
vn 0.9999995 -0.0009775166 0
vn 0.9999995 -0.0009775166 0
vn 0.9999995 -0.0009775166 0
vn 0.8351928 0.5499574 0
vn 0.8351928 0.5499574 0
vn 0.8351928 0.5499574 0
vn 0.8351928 0.5499574 0
vn -0.9999995 0.0009775166 0
vn -0.9999995 0.0009775166 0
vn -0.9999995 0.0009775166 0
vn -0.9999995 0.0009775166 0
vn -0.8351928 -0.5499574 0
vn -0.8351928 -0.5499574 0
vn -0.8351928 -0.5499574 0
vn -0.8351928 -0.5499574 0
vn 0.9999995 -0.0009775166 0
vn 0.9999995 -0.0009775166 0
vn 0.9999995 -0.0009775166 0
vn 0.9999995 -0.0009775166 0
vn 0.8351928 0.5499574 0
vn 0.8351928 0.5499574 0
vn 0.8351928 0.5499574 0
vn 0.8351928 0.5499574 0
vn -0.9999995 0.0009775166 0
vn -0.9999995 0.0009775166 0
vn -0.9999995 0.0009775166 0
vn -0.9999995 0.0009775166 0
vn -0.8351928 -0.5499574 0
vn -0.8351928 -0.5499574 0
vn -0.8351928 -0.5499574 0
vn -0.8351928 -0.5499574 0
vn 0.9999995 -0.0009775166 0
vn 0.9999995 -0.0009775166 0
vn 0.9999995 -0.0009775166 0
vn 0.9999995 -0.0009775166 0
vn 0.8351928 0.5499574 0
vn 0.8351928 0.5499574 0
vn 0.8351928 0.5499574 0
vn 0.8351928 0.5499574 0

vt 1.000997 -5.001707
vt 0.2656147 -5.001707
vt 0.2656147 6.00165
vt 1.000997 6.00165
vt 0.003389247 -5.001663
vt 0.003389247 6.001693
vt 0.2656147 6.00165
vt 0.2656147 -5.001707
vt 1.000997 -5.001707
vt 1.000997 6.00165
vt 0.2656147 6.00165
vt 0.2656147 -5.001707
vt 0.003389247 -5.001663
vt 0.2656147 -5.001707
vt 0.2656147 6.00165
vt 0.003389247 6.001693
vt 1.000997 -5.001707
vt 0.2656147 6.00165
vt 1.000997 6.00165
vt 0.2656147 -5.001707
vt 0.003389247 -5.001663
vt 0.003389247 6.001693
vt 1.000997 -5.001707
vt 1.000997 6.00165
vt 0.2656147 6.00165
vt 0.2656147 -5.001707
vt 0.003389247 -5.001663
vt 0.003389247 6.001693
vt 1.000997 -5.001707
vt 0.2656147 6.00165
vt 1.000997 6.00165
vt 0.2656147 -5.001707
vt 0.003389247 -5.001663
vt 0.003389247 6.001693
vt 1.000997 -5.001707
vt 1.000997 6.00165
vt 0.2656147 6.00165
vt 0.2656147 -5.001707
vt 0.003389247 -5.001663
vt 0.003389247 6.001693
vt 1.000997 -5.001707
vt 0.2656147 -5.001707
vt 0.2656147 6.00165
vt 1.000997 6.00165
vt 0.003389247 -5.001663
vt 0.003389247 6.001693
vt 0.2656147 6.00165
vt 0.2656147 -5.001707
vt 1.000997 -5.001707
vt 1.000997 6.00165
vt 0.2656147 6.00165
vt 0.2656147 -5.001707
vt 0.003389247 -5.001663
vt 0.2656147 -5.001707
vt 0.2656147 6.00165
vt 0.003389247 6.001693
vt 1.000997 -5.001707
vt 0.2656147 -5.001707
vt 0.2656147 6.00165
vt 1.000997 6.00165
vt 0.003389247 -5.001663
vt 0.003389247 6.001693
vt 0.2656147 6.00165
vt 0.2656147 -5.001707
vt 1.000997 -5.001707
vt 1.000997 6.00165
vt 0.2656147 6.00165
vt 0.2656147 -5.001707
vt 0.003389247 -5.001663
vt 0.2656147 -5.001707
vt 0.2656147 6.00165
vt 0.003389247 6.001693
vt 1.000997 -5.001707
vt 0.2656147 -5.001707
vt 0.2656147 6.00165
vt 1.000997 6.00165
vt 0.003389247 -5.001663
vt 0.003389247 6.001693
vt 0.2656147 6.00165
vt 0.2656147 -5.001707
vt 1.000997 -5.001707
vt 1.000997 6.00165
vt 0.2656147 6.00165
vt 0.2656147 -5.001707
vt 0.003389247 -5.001663
vt 0.2656147 -5.001707
vt 0.2656147 6.00165
vt 0.003389247 6.001693
vt 1.000997 -5.001707
vt 0.2656147 -5.001707
vt 0.2656147 6.00165
vt 1.000997 6.00165
vt 0.003389247 -5.001663
vt 0.003389247 6.001693
vt 0.2656147 6.00165
vt 0.2656147 -5.001707
vt 1.000997 -5.001707
vt 1.000997 6.00165
vt 0.2656147 6.00165
vt 0.2656147 -5.001707
vt 0.003389247 -5.001663
vt 0.2656147 -5.001707
vt 0.2656147 6.00165
vt 0.003389247 6.001693

g Prop02_191_31
usemtl Prop02_191_31
usemap Prop02_191_31
f 1/1/1 3/3/3 2/2/2
f 1/1/1 4/4/4 3/3/3
f 5/5/5 7/7/7 6/6/6
f 5/5/5 8/8/8 7/7/7
f 9/9/9 11/11/11 10/10/10
f 9/9/9 12/12/12 11/11/11
f 13/13/13 15/15/15 14/14/14
f 13/13/13 16/16/16 15/15/15
f 17/17/17 19/19/19 18/18/18
f 17/17/17 18/18/18 20/20/20
f 21/21/21 20/20/20 18/18/18
f 21/21/21 18/18/18 22/22/22
f 23/23/23 25/25/25 24/24/24
f 23/23/23 26/26/26 25/25/25
f 27/27/27 25/25/25 26/26/26
f 27/27/27 28/28/28 25/25/25
f 29/29/29 31/31/31 30/30/30
f 29/29/29 30/30/30 32/32/32
f 33/33/33 32/32/32 30/30/30
f 33/33/33 30/30/30 34/34/34
f 35/35/35 37/37/37 36/36/36
f 35/35/35 38/38/38 37/37/37
f 39/39/39 37/37/37 38/38/38
f 39/39/39 40/40/40 37/37/37
f 41/41/41 43/43/43 42/42/42
f 41/41/41 44/44/44 43/43/43
f 45/45/45 47/47/47 46/46/46
f 45/45/45 48/48/48 47/47/47
f 49/49/49 51/51/51 50/50/50
f 49/49/49 52/52/52 51/51/51
f 53/53/53 55/55/55 54/54/54
f 53/53/53 56/56/56 55/55/55
f 57/57/57 59/59/59 58/58/58
f 57/57/57 60/60/60 59/59/59
f 61/61/61 63/63/63 62/62/62
f 61/61/61 64/64/64 63/63/63
f 65/65/65 67/67/67 66/66/66
f 65/65/65 68/68/68 67/67/67
f 69/69/69 71/71/71 70/70/70
f 69/69/69 72/72/72 71/71/71
f 73/73/73 75/75/75 74/74/74
f 73/73/73 76/76/76 75/75/75
f 77/77/77 79/79/79 78/78/78
f 77/77/77 80/80/80 79/79/79
f 81/81/81 83/83/83 82/82/82
f 81/81/81 84/84/84 83/83/83
f 85/85/85 87/87/87 86/86/86
f 85/85/85 88/88/88 87/87/87
f 89/89/89 91/91/91 90/90/90
f 89/89/89 92/92/92 91/91/91
f 93/93/93 95/95/95 94/94/94
f 93/93/93 96/96/96 95/95/95
f 97/97/97 99/99/99 98/98/98
f 97/97/97 100/100/100 99/99/99
f 101/101/101 103/103/103 102/102/102
f 101/101/101 104/104/104 103/103/103
