#Prop04_188_28.obj

v 31.61478 100.105 -294.1659
v 30.74506 100.105 -295.7902
v 32.56546 122.2378 -295.5713
v 31.99601 100.105 -296.9479
v 31.3863 122.2378 -295.8576
v 30.74506 100.105 -295.7902
v 33.20713 100.105 -295.6387
v 31.61478 100.105 -294.1659
v 32.56546 122.2378 -295.5713
v 41.78562 50.06056 -295.149
v 32.17459 50.06056 -305.5386
v 32.16234 47.29692 -307.1713
v 43.41255 47.29692 -295.0097
v 32.00389 41.79546 -307.2431
v 32.11594 40.37337 -304.2728
v 40.51891 40.37337 -295.1888
v 43.47164 41.79546 -294.8465
v 32.11594 40.37337 -304.2728
v 32.20304 32.5416 -306.7148
v 42.96041 32.5416 -295.0855
v 40.51891 40.37337 -295.1888
v 32.20304 32.5416 -306.7148
v 32.33829 24.38987 -310.2947
v 46.54036 24.38987 -294.9424
v 42.96041 32.5416 -295.0855
v 32.33829 24.38987 -310.2947
v 32.86485 6.648119 -321.5663
v 57.81858 6.648119 -294.5909
v 46.54036 24.38987 -294.9424
v 32.86485 6.648119 -321.5663
v 33.35595 -9.579185 -336.7239
v 72.96827 -9.579185 -293.9024
v 57.81858 6.648119 -294.5909
v 35.37156 73.20003 -295.43
v 34.53336 85.34271 -295.3529
v 31.81437 85.34271 -298.2925
v 31.95618 73.20003 -299.122
v 32.01921 51.01868 -301.5949
v 37.84194 51.01868 -295.3008
v 36.44611 86.04829 -295.2107
v 36.43167 99.31104 -295.0899
v 31.69969 99.31104 -300.2052
v 31.82093 86.04829 -300.2105
v 36.43167 99.31104 -295.0899
v 33.20713 100.105 -295.6387
v 31.99601 100.105 -296.9479
v 31.69969 99.31104 -300.2052
v 33.20713 100.105 -295.6387
v 32.56546 122.2378 -295.5713
v 31.3863 122.2378 -295.8576
v 31.99601 100.105 -296.9479
v 32.16234 47.29692 -307.1713
v 32.00389 41.79546 -307.2431
v 43.47164 41.79546 -294.8465
v 43.41255 47.29692 -295.0097
v 37.84194 51.01868 -295.3008
v 32.01921 51.01868 -301.5949
v 32.17459 50.06056 -305.5386
v 41.78562 50.06056 -295.149
v 34.53336 85.34271 -295.3529
v 36.44611 86.04829 -295.2107
v 31.82093 86.04829 -300.2105
v 31.81437 85.34271 -298.2925
v 31.77716 50.06056 -285.8903
v 31.35303 47.29692 -283.854
v 20.10281 47.29692 -296.0156
v 22.16614 50.06056 -296.2804
v 20.48011 41.79546 -296.5829
v 31.94786 41.79546 -284.1858
v 31.83582 40.37337 -287.1565
v 23.43284 40.37337 -296.2406
v 23.43284 40.37337 -296.2406
v 31.83582 40.37337 -287.1565
v 31.74915 32.5416 -284.7146
v 20.99135 32.5416 -296.3434
v 20.99135 32.5416 -296.3434
v 31.74915 32.5416 -284.7146
v 31.61346 24.38987 -281.1342
v 17.4114 24.38987 -296.4865
v 17.4114 24.38987 -296.4865
v 31.61346 24.38987 -281.1342
v 30.63432 6.648119 -269.4441
v 5.680588 6.648119 -296.4191
v 5.680588 6.648119 -296.4191
v 30.63432 6.648119 -269.4441
v 30.59581 -9.579185 -254.705
v -9.016518 -9.579185 -297.5269
v 31.61346 73.20003 -291.9538
v 28.5802 73.20003 -295.9989
v 29.4184 85.34271 -296.076
v 32.13739 85.34271 -293.1364
v 32.13082 86.04829 -291.2184
v 27.12659 86.04829 -295.8681
v 27.52052 99.31104 -296.339
v 32.25207 99.31104 -291.2237
v 32.25207 99.31104 -291.2237
v 27.52052 99.31104 -296.339
v 30.74506 100.105 -295.7902
v 31.61478 100.105 -294.1659
v 20.10281 47.29692 -296.0156
v 31.35303 47.29692 -283.854
v 31.94786 41.79546 -284.1858
v 20.48011 41.79546 -296.5829
v 31.93254 51.01868 -289.834
v 31.77716 50.06056 -285.8903
v 22.16614 50.06056 -296.2804
v 25.78242 51.01868 -295.8256
v 31.61346 73.20003 -291.9538
v 31.93254 51.01868 -289.834
v 25.78242 51.01868 -295.8256
v 28.5802 73.20003 -295.9989
v 32.13739 85.34271 -293.1364
v 29.4184 85.34271 -296.076
v 27.12659 86.04829 -295.8681
v 32.13082 86.04829 -291.2184
v -9.016518 -9.579185 -297.5269
v 33.35595 -9.579185 -336.7239
v 32.86485 6.648119 -321.5663
v 5.680588 6.648119 -296.4191
v 5.680588 6.648119 -296.4191
v 32.86485 6.648119 -321.5663
v 32.33829 24.38987 -310.2947
v 17.4114 24.38987 -296.4865
v 17.4114 24.38987 -296.4865
v 32.33829 24.38987 -310.2947
v 32.20304 32.5416 -306.7148
v 20.99135 32.5416 -296.3434
v 20.99135 32.5416 -296.3434
v 32.20304 32.5416 -306.7148
v 32.11594 40.37337 -304.2728
v 23.43284 40.37337 -296.2406
v 20.48011 41.79546 -296.5829
v 32.00389 41.79546 -307.2431
v 32.16234 47.29692 -307.1713
v 20.10281 47.29692 -296.0156
v 25.78242 51.01868 -295.8256
v 32.01921 51.01868 -301.5949
v 31.95618 73.20003 -299.122
v 28.5802 73.20003 -295.9989
v 31.81437 85.34271 -298.2925
v 29.4184 85.34271 -296.076
v 27.12659 86.04829 -295.8681
v 31.82093 86.04829 -300.2105
v 31.69969 99.31104 -300.2052
v 27.52052 99.31104 -296.339
v 27.52052 99.31104 -296.339
v 31.69969 99.31104 -300.2052
v 31.99601 100.105 -296.9479
v 30.74506 100.105 -295.7902
v 23.43284 40.37337 -296.2406
v 32.11594 40.37337 -304.2728
v 32.00389 41.79546 -307.2431
v 20.48011 41.79546 -296.5829
v 20.10281 47.29692 -296.0156
v 32.16234 47.29692 -307.1713
v 32.17459 50.06056 -305.5386
v 22.16614 50.06056 -296.2804
v 22.16614 50.06056 -296.2804
v 32.17459 50.06056 -305.5386
v 32.01921 51.01868 -301.5949
v 25.78242 51.01868 -295.8256
v 29.4184 85.34271 -296.076
v 31.81437 85.34271 -298.2925
v 31.82093 86.04829 -300.2105
v 27.12659 86.04829 -295.8681
v 30.59581 -9.579185 -254.705
v 30.63432 6.648119 -269.4441
v 57.81858 6.648119 -294.5909
v 72.96827 -9.579185 -293.9024
v 30.63432 6.648119 -269.4441
v 31.61346 24.38987 -281.1342
v 46.54036 24.38987 -294.9424
v 57.81858 6.648119 -294.5909
v 31.61346 24.38987 -281.1342
v 31.74915 32.5416 -284.7146
v 42.96041 32.5416 -295.0855
v 46.54036 24.38987 -294.9424
v 31.74915 32.5416 -284.7146
v 31.83582 40.37337 -287.1565
v 40.51891 40.37337 -295.1888
v 42.96041 32.5416 -295.0855
v 31.94786 41.79546 -284.1858
v 31.35303 47.29692 -283.854
v 43.41255 47.29692 -295.0097
v 43.47164 41.79546 -294.8465
v 31.93254 51.01868 -289.834
v 35.37156 73.20003 -295.43
v 37.84194 51.01868 -295.3008
v 31.61346 73.20003 -291.9538
v 34.53336 85.34271 -295.3529
v 32.13739 85.34271 -293.1364
v 32.13082 86.04829 -291.2184
v 32.25207 99.31104 -291.2237
v 36.43167 99.31104 -295.0899
v 36.44611 86.04829 -295.2107
v 32.25207 99.31104 -291.2237
v 31.61478 100.105 -294.1659
v 33.20713 100.105 -295.6387
v 36.43167 99.31104 -295.0899
v 31.83582 40.37337 -287.1565
v 31.94786 41.79546 -284.1858
v 43.47164 41.79546 -294.8465
v 40.51891 40.37337 -295.1888
v 31.35303 47.29692 -283.854
v 31.77716 50.06056 -285.8903
v 41.78562 50.06056 -295.149
v 43.41255 47.29692 -295.0097
v 31.77716 50.06056 -285.8903
v 31.93254 51.01868 -289.834
v 37.84194 51.01868 -295.3008
v 41.78562 50.06056 -295.149
v 32.13739 85.34271 -293.1364
v 32.13082 86.04829 -291.2184
v 36.44611 86.04829 -295.2107
v 34.53336 85.34271 -295.3529

vn -0.8787879 0.06744868 0.472422
vn -0.8787879 0.06744868 0.472422
vn -0.8787879 0.06744868 0.472422
vn -0.6793744 0.01661779 -0.7336036
vn -0.6793744 0.01661779 -0.7336036
vn -0.6793744 0.01661779 -0.7336036
vn 0.6793744 0.01661779 0.7336036
vn 0.6793744 0.01661779 0.7336036
vn 0.6793744 0.01661779 0.7336036
vn 0.6813294 0.370479 -0.6312967
vn 0.6813294 0.370479 -0.6312967
vn 0.6813294 0.370479 -0.6312967
vn 0.6813294 0.370479 -0.6312967
vn 0.4349951 -0.8064516 -0.4005184
vn 0.4349951 -0.8064516 -0.4005184
vn 0.4349951 -0.8064516 -0.4005184
vn 0.4349951 -0.8064516 -0.4005184
vn 0.71652 0.2140763 -0.6639054
vn 0.71652 0.2140763 -0.6639054
vn 0.71652 0.2140763 -0.6639054
vn 0.71652 0.2140763 -0.6639054
vn 0.7008798 0.2961877 -0.6488763
vn 0.7008798 0.2961877 -0.6488763
vn 0.7008798 0.2961877 -0.6488763
vn 0.7008798 0.2961877 -0.6488763
vn 0.6676442 0.4134897 -0.619094
vn 0.6676442 0.4134897 -0.619094
vn 0.6676442 0.4134897 -0.619094
vn 0.6676442 0.4134897 -0.619094
vn 0.6129032 0.5483871 -0.5688771
vn 0.6129032 0.5483871 -0.5688771
vn 0.6129032 0.5483871 -0.5688771
vn 0.6129032 0.5483871 -0.5688771
vn 0.7321603 0.05571847 -0.6788496
vn 0.7321603 0.05571847 -0.6788496
vn 0.7321603 0.05571847 -0.6788496
vn 0.7321603 0.05571847 -0.6788496
vn 0.7321603 0.07722385 -0.6767405
vn 0.7321603 0.07722385 -0.6767405
vn 0.7341154 0.00684262 -0.6789903
vn 0.7341154 0.00684262 -0.6789903
vn 0.7341154 0.00684262 -0.6789903
vn 0.7341154 0.00684262 -0.6789903
vn 0.2707722 0.9296188 -0.2499827
vn 0.2707722 0.9296188 -0.2499827
vn 0.2707722 0.9296188 -0.2499827
vn 0.2707722 0.9296188 -0.2499827
vn 0.5542522 0.03812317 -0.8314753
vn 0.5542522 0.03812317 -0.8314753
vn 0.5542522 0.03812317 -0.8314753
vn 0.5542522 0.03812317 -0.8314753
vn 0.7341154 -0.01270772 -0.6789058
vn 0.7341154 -0.01270772 -0.6789058
vn 0.7341154 -0.01270772 -0.6789058
vn 0.7341154 -0.01270772 -0.6789058
vn 0.2375367 0.945259 -0.2237447
vn 0.2375367 0.945259 -0.2237447
vn 0.2375367 0.945259 -0.2237447
vn 0.2375367 0.945259 -0.2237447
vn 0.3489736 -0.8807429 -0.3201708
vn 0.3489736 -0.8807429 -0.3201708
vn 0.3489736 -0.8807429 -0.3201708
vn 0.3489736 -0.8807429 -0.3201708
vn -0.6265885 0.5229716 0.57783
vn -0.6265885 0.5229716 0.57783
vn -0.6265885 0.5229716 0.57783
vn -0.6265885 0.5229716 0.57783
vn -0.4349951 -0.8064516 0.4005184
vn -0.4349951 -0.8064516 0.4005184
vn -0.4349951 -0.8064516 0.4005184
vn -0.4349951 -0.8064516 0.4005184
vn -0.71652 0.2140763 0.6639054
vn -0.71652 0.2140763 0.6639054
vn -0.71652 0.2140763 0.6639054
vn -0.71652 0.2140763 0.6639054
vn -0.7008798 0.2961877 0.6488763
vn -0.7008798 0.2961877 0.6488763
vn -0.7008798 0.2961877 0.6488763
vn -0.7008798 0.2961877 0.6488763
vn -0.6598241 0.4389052 0.6099135
vn -0.6598241 0.4389052 0.6099135
vn -0.6598241 0.4389052 0.6099135
vn -0.6598241 0.4389052 0.6099135
vn -0.6246334 0.5268817 0.5763929
vn -0.6246334 0.5268817 0.5763929
vn -0.6246334 0.5268817 0.5763929
vn -0.6246334 0.5268817 0.5763929
vn -0.7693059 0.07526882 0.6344312
vn -0.7693059 0.07526882 0.6344312
vn -0.7693059 0.07526882 0.6344312
vn -0.7693059 0.07526882 0.6344312
vn -0.7086999 0.02639296 0.7050163
vn -0.7086999 0.02639296 0.7050163
vn -0.7086999 0.02639296 0.7050163
vn -0.7086999 0.02639296 0.7050163
vn -0.315738 0.9120235 0.2617684
vn -0.315738 0.9120235 0.2617684
vn -0.315738 0.9120235 0.2617684
vn -0.315738 0.9120235 0.2617684
vn -0.7282503 -0.1202346 0.6746815
vn -0.7282503 -0.1202346 0.6746815
vn -0.7282503 -0.1202346 0.6746815
vn -0.7282503 -0.1202346 0.6746815
vn -0.2512219 0.9374389 0.2410309
vn -0.2512219 0.9374389 0.2410309
vn -0.2512219 0.9374389 0.2410309
vn -0.2512219 0.9374389 0.2410309
vn -0.7360704 0.07526882 0.6727072
vn -0.7360704 0.07526882 0.6727072
vn -0.7360704 0.07526882 0.6727072
vn -0.7360704 0.07526882 0.6727072
vn -0.2883675 -0.9120235 0.2916459
vn -0.2883675 -0.9120235 0.2916459
vn -0.2883675 -0.9120235 0.2916459
vn -0.2883675 -0.9120235 0.2916459
vn -0.5659824 0.5542522 -0.6103019
vn -0.5659824 0.5542522 -0.6103019
vn -0.5659824 0.5542522 -0.6103019
vn -0.5659824 0.5542522 -0.6103019
vn -0.6207234 0.4076246 -0.6697347
vn -0.6207234 0.4076246 -0.6697347
vn -0.6207234 0.4076246 -0.6697347
vn -0.6207234 0.4076246 -0.6697347
vn -0.6480938 0.2961877 -0.7016034
vn -0.6480938 0.2961877 -0.7016034
vn -0.6480938 0.2961877 -0.7016034
vn -0.6480938 0.2961877 -0.7016034
vn -0.6637341 0.2160313 -0.7160918
vn -0.6637341 0.2160313 -0.7160918
vn -0.6637341 0.2160313 -0.7160918
vn -0.6637341 0.2160313 -0.7160918
vn -0.6793744 0.028348 -0.7332441
vn -0.6793744 0.028348 -0.7332441
vn -0.6793744 0.028348 -0.7332441
vn -0.6793744 0.028348 -0.7332441
vn -0.6774194 0.07917888 -0.7313233
vn -0.6774194 0.07917888 -0.7313233
vn -0.6774194 0.07917888 -0.7313233
vn -0.6774194 0.07917888 -0.7313233
vn -0.6793744 0.04203324 -0.7325869
vn -0.6793744 0.04203324 -0.7325869
vn -0.6793744 -0.00684262 -0.7337599
vn -0.6793744 -0.00684262 -0.7337599
vn -0.6793744 -0.00684262 -0.7337599
vn -0.6793744 -0.00684262 -0.7337599
vn -0.198436 0.9569892 -0.2116477
vn -0.198436 0.9569892 -0.2116477
vn -0.198436 0.9569892 -0.2116477
vn -0.198436 0.9569892 -0.2116477
vn -0.3626589 -0.8455523 -0.391816
vn -0.3626589 -0.8455523 -0.391816
vn -0.3626589 -0.8455523 -0.391816
vn -0.3626589 -0.8455523 -0.391816
vn -0.6226784 0.3998045 -0.6726277
vn -0.6226784 0.3998045 -0.6726277
vn -0.6226784 0.3998045 -0.6726277
vn -0.6226784 0.3998045 -0.6726277
vn -0.2199413 0.945259 -0.2410626
vn -0.2199413 0.945259 -0.2410626
vn -0.2199413 0.945259 -0.2410626
vn -0.2199413 0.945259 -0.2410626
vn -0.3059629 -0.8924731 -0.3314792
vn -0.3059629 -0.8924731 -0.3314792
vn -0.3059629 -0.8924731 -0.3314792
vn -0.3059629 -0.8924731 -0.3314792
vn 0.5659824 0.5542522 0.6103019
vn 0.5659824 0.5542522 0.6103019
vn 0.5659824 0.5542522 0.6103019
vn 0.5659824 0.5542522 0.6103019
vn 0.6207234 0.4076246 0.6697347
vn 0.6207234 0.4076246 0.6697347
vn 0.6207234 0.4076246 0.6697347
vn 0.6207234 0.4076246 0.6697347
vn 0.6480938 0.2961877 0.7016034
vn 0.6480938 0.2961877 0.7016034
vn 0.6480938 0.2961877 0.7016034
vn 0.6480938 0.2961877 0.7016034
vn 0.6637341 0.2160313 0.7160918
vn 0.6637341 0.2160313 0.7160918
vn 0.6637341 0.2160313 0.7160918
vn 0.6637341 0.2160313 0.7160918
vn 0.6793744 0.028348 0.7332441
vn 0.6793744 0.028348 0.7332441
vn 0.6793744 0.028348 0.7332441
vn 0.6793744 0.028348 0.7332441
vn 0.6774194 0.07917888 0.7313233
vn 0.6774194 0.07917888 0.7313233
vn 0.6774194 0.07917888 0.7313233
vn 0.6774194 0.07917888 0.7313233
vn 0.6793744 0.04203324 0.7325869
vn 0.6793744 0.04203324 0.7325869
vn 0.6793744 -0.00684262 0.7337599
vn 0.6793744 -0.00684262 0.7337599
vn 0.6793744 -0.00684262 0.7337599
vn 0.6793744 -0.00684262 0.7337599
vn 0.198436 0.9569892 0.2116477
vn 0.198436 0.9569892 0.2116477
vn 0.198436 0.9569892 0.2116477
vn 0.198436 0.9569892 0.2116477
vn 0.3626589 -0.8455523 0.391816
vn 0.3626589 -0.8455523 0.391816
vn 0.3626589 -0.8455523 0.391816
vn 0.3626589 -0.8455523 0.391816
vn 0.6226784 0.3998045 0.6726277
vn 0.6226784 0.3998045 0.6726277
vn 0.6226784 0.3998045 0.6726277
vn 0.6226784 0.3998045 0.6726277
vn 0.2199413 0.945259 0.2410626
vn 0.2199413 0.945259 0.2410626
vn 0.2199413 0.945259 0.2410626
vn 0.2199413 0.945259 0.2410626
vn 0.3059629 -0.8924731 0.3314792
vn 0.3059629 -0.8924731 0.3314792
vn 0.3059629 -0.8924731 0.3314792
vn 0.3059629 -0.8924731 0.3314792

vt 0.8831839 0.9022089
vt 0.8907079 0.9022089
vt 0.8887246 0.9935563
vt 0.8826067 0.9027861
vt 0.8868882 0.9931995
vt 0.8908758 0.9027861
vt 0.8826067 0.9027861
vt 0.8908758 0.9027861
vt 0.8868882 0.9931995
vt 0.8577473 0.7088001
vt 0.9149693 0.7088001
vt 0.9198488 0.6971627
vt 0.8528782 0.6971627
vt 0.9193871 0.6747167
vt 0.9105619 0.6728383
vt 0.8621651 0.6728383
vt 0.8533399 0.6747167
vt 0.9105619 0.6728383
vt 0.9173408 0.6414832
vt 0.8553862 0.6414832
vt 0.8621651 0.6728383
vt 0.9173408 0.6414832
vt 0.9272678 0.6080924
vt 0.8454592 0.6080924
vt 0.8553862 0.6414832
vt 0.9272678 0.6080924
vt 0.9618864 0.5319084
vt 0.8111134 0.5319084
vt 0.8454592 0.6080924
vt 0.9618864 0.5319084
vt 1.004165 0.4755154
vt 0.7700307 0.4755154
vt 0.8111134 0.5319084
vt 0.8776957 0.8132751
vt 0.8791438 0.8489116
vt 0.8948004 0.8489116
vt 0.8956084 0.8132751
vt 0.9034997 0.709881
vt 0.8699619 0.709881
vt 0.8736557 0.8516189
vt 0.8736032 0.9022404
vt 0.9000997 0.9022404
vt 0.9002886 0.8516189
vt 0.8736032 0.9022404
vt 0.8831839 0.9022089
vt 0.8907079 0.9022089
vt 0.9000997 0.9022404
vt 0.8831839 0.9022089
vt 0.8855555 0.9935563
vt 0.8887246 0.9935563
vt 0.8907079 0.9022089
vt 0.9198488 0.6971627
vt 0.9193871 0.6747167
vt 0.8533399 0.6747167
vt 0.8528782 0.6971627
vt 0.8699619 0.709881
vt 0.9034997 0.709881
vt 0.9149693 0.7088001
vt 0.8577473 0.7088001
vt 0.8791438 0.8489116
vt 0.8736557 0.8516189
vt 0.9002886 0.8516189
vt 0.8948004 0.8489116
vt 0.8577473 0.7088001
vt 0.8528782 0.6971627
vt 0.9198488 0.6971627
vt 0.9149693 0.7088001
vt 0.9193871 0.6747167
vt 0.8533399 0.6747167
vt 0.8621651 0.6728383
vt 0.9105619 0.6728383
vt 0.9105619 0.6728383
vt 0.8621651 0.6728383
vt 0.8553862 0.6414832
vt 0.9173408 0.6414832
vt 0.9173408 0.6414832
vt 0.8553862 0.6414832
vt 0.8454592 0.6080924
vt 0.9272678 0.6080924
vt 0.9272678 0.6080924
vt 0.8454592 0.6080924
vt 0.8111134 0.5319084
vt 0.9618864 0.5319084
vt 0.9618864 0.5319084
vt 0.8111134 0.5319084
vt 0.7709122 0.4755154
vt 1.003284 0.4755154
vt 0.8776957 0.8132751
vt 0.8956084 0.8132751
vt 0.8948004 0.8489116
vt 0.8791438 0.8489116
vt 0.8736557 0.8516189
vt 0.9002886 0.8516189
vt 0.9000997 0.9022404
vt 0.8736032 0.9022404
vt 0.8736032 0.9022404
vt 0.9000997 0.9022404
vt 0.8907079 0.9022089
vt 0.8831839 0.9022089
vt 0.9198488 0.6971627
vt 0.8528782 0.6971627
vt 0.8533399 0.6747167
vt 0.9193871 0.6747167
vt 0.8699619 0.709881
vt 0.8577473 0.7088001
vt 0.9149693 0.7088001
vt 0.9034997 0.709881
vt 0.8776957 0.8132751
vt 0.8699619 0.709881
vt 0.9034997 0.709881
vt 0.8956084 0.8132751
vt 0.8791438 0.8489116
vt 0.8948004 0.8489116
vt 0.9002886 0.8516189
vt 0.8736557 0.8516189
vt 0.9930841 0.4783592
vt 0.7826756 0.4783592
vt 0.8226879 0.5520667
vt 0.951928 0.5520667
vt 0.951928 0.5520667
vt 0.8226879 0.5520667
vt 0.8500869 0.6182398
vt 0.9240148 0.6182398
vt 0.9240148 0.6182398
vt 0.8500869 0.6182398
vt 0.8577368 0.6473178
vt 0.9163649 0.6473178
vt 0.9163649 0.6473178
vt 0.8577368 0.6473178
vt 0.8635818 0.672702
vt 0.9101632 0.672702
vt 0.9209297 0.675105
vt 0.8541585 0.675105
vt 0.854148 0.6962707
vt 0.9197963 0.6962707
vt 0.9039824 0.7099964
vt 0.8694477 0.7099964
vt 0.8768457 0.7985735
vt 0.8968467 0.7985735
vt 0.8796266 0.8492474
vt 0.8940449 0.8492474
vt 0.8990399 0.8518288
vt 0.8746421 0.8518288
vt 0.8749884 0.9027022
vt 0.8984837 0.9027022
vt 0.8984837 0.9027022
vt 0.8749884 0.9027022
vt 0.8826067 0.9027861
vt 0.8908758 0.9027861
vt 0.9101632 0.672702
vt 0.8635818 0.672702
vt 0.8541585 0.675105
vt 0.9209297 0.675105
vt 0.9197963 0.6962707
vt 0.854148 0.6962707
vt 0.8577368 0.7084748
vt 0.9156933 0.7084748
vt 0.9156933 0.7084748
vt 0.8577368 0.7084748
vt 0.8694477 0.7099964
vt 0.9039824 0.7099964
vt 0.8940449 0.8492474
vt 0.8796266 0.8492474
vt 0.8746421 0.8518288
vt 0.8990399 0.8518288
vt 0.9912897 0.4783592
vt 0.951928 0.5520667
vt 0.8226879 0.5520667
vt 0.7844595 0.4783592
vt 0.951928 0.5520667
vt 0.9240148 0.6182398
vt 0.8500869 0.6182398
vt 0.8226879 0.5520667
vt 0.9240148 0.6182398
vt 0.9163649 0.6473178
vt 0.8577368 0.6473178
vt 0.8500869 0.6182398
vt 0.9163649 0.6473178
vt 0.9101632 0.672702
vt 0.8635818 0.672702
vt 0.8577368 0.6473178
vt 0.9209297 0.675105
vt 0.9197963 0.6962707
vt 0.854148 0.6962707
vt 0.8541585 0.675105
vt 0.9039824 0.7099964
vt 0.8768457 0.7985735
vt 0.8694477 0.7099964
vt 0.8968467 0.7985735
vt 0.8796266 0.8492474
vt 0.8940449 0.8492474
vt 0.8990399 0.8518288
vt 0.8984837 0.9027022
vt 0.8749884 0.9027022
vt 0.8746421 0.8518288
vt 0.8984837 0.9027022
vt 0.8908758 0.9027861
vt 0.8826067 0.9027861
vt 0.8749884 0.9027022
vt 0.9101632 0.672702
vt 0.9209297 0.675105
vt 0.8541585 0.675105
vt 0.8635818 0.672702
vt 0.9197963 0.6962707
vt 0.9156933 0.7084748
vt 0.8577368 0.7084748
vt 0.854148 0.6962707
vt 0.9156933 0.7084748
vt 0.9039824 0.7099964
vt 0.8694477 0.7099964
vt 0.8577368 0.7084748
vt 0.8940449 0.8492474
vt 0.8990399 0.8518288
vt 0.8746421 0.8518288
vt 0.8796266 0.8492474

g Prop04_188_28
usemtl Prop04_188_28
usemap Prop04_188_28
f 1/1/1 3/3/3 2/2/2
f 4/4/4 6/6/6 5/5/5
f 7/7/7 9/9/9 8/8/8
f 10/10/10 12/12/12 11/11/11
f 10/10/10 13/13/13 12/12/12
f 14/14/14 16/16/16 15/15/15
f 14/14/14 17/17/17 16/16/16
f 18/18/18 20/20/20 19/19/19
f 18/18/18 21/21/21 20/20/20
f 22/22/22 24/24/24 23/23/23
f 22/22/22 25/25/25 24/24/24
f 26/26/26 28/28/28 27/27/27
f 26/26/26 29/29/29 28/28/28
f 30/30/30 32/32/32 31/31/31
f 30/30/30 33/33/33 32/32/32
f 34/34/34 36/36/36 35/35/35
f 34/34/34 37/37/37 36/36/36
f 34/34/34 38/38/38 37/37/37
f 34/34/34 39/39/39 38/38/38
f 40/40/40 42/42/42 41/41/41
f 40/40/40 43/43/43 42/42/42
f 44/44/44 46/46/46 45/45/45
f 44/44/44 47/47/47 46/46/46
f 48/48/48 50/50/50 49/49/49
f 48/48/48 51/51/51 50/50/50
f 52/52/52 54/54/54 53/53/53
f 52/52/52 55/55/55 54/54/54
f 56/56/56 58/58/58 57/57/57
f 56/56/56 59/59/59 58/58/58
f 60/60/60 62/62/62 61/61/61
f 60/60/60 63/63/63 62/62/62
f 64/64/64 66/66/66 65/65/65
f 64/64/64 67/67/67 66/66/66
f 68/68/68 70/70/70 69/69/69
f 68/68/68 71/71/71 70/70/70
f 72/72/72 74/74/74 73/73/73
f 72/72/72 75/75/75 74/74/74
f 76/76/76 78/78/78 77/77/77
f 76/76/76 79/79/79 78/78/78
f 80/80/80 82/82/82 81/81/81
f 80/80/80 83/83/83 82/82/82
f 84/84/84 86/86/86 85/85/85
f 84/84/84 87/87/87 86/86/86
f 88/88/88 90/90/90 89/89/89
f 88/88/88 91/91/91 90/90/90
f 92/92/92 94/94/94 93/93/93
f 92/92/92 95/95/95 94/94/94
f 96/96/96 98/98/98 97/97/97
f 96/96/96 99/99/99 98/98/98
f 100/100/100 102/102/102 101/101/101
f 100/100/100 103/103/103 102/102/102
f 104/104/104 106/106/106 105/105/105
f 104/104/104 107/107/107 106/106/106
f 108/108/108 110/110/110 109/109/109
f 108/108/108 111/111/111 110/110/110
f 112/112/112 114/114/114 113/113/113
f 112/112/112 115/115/115 114/114/114
f 116/116/116 118/118/118 117/117/117
f 116/116/116 119/119/119 118/118/118
f 120/120/120 122/122/122 121/121/121
f 120/120/120 123/123/123 122/122/122
f 124/124/124 126/126/126 125/125/125
f 124/124/124 127/127/127 126/126/126
f 128/128/128 130/130/130 129/129/129
f 128/128/128 131/131/131 130/130/130
f 132/132/132 134/134/134 133/133/133
f 132/132/132 135/135/135 134/134/134
f 136/136/136 138/138/138 137/137/137
f 136/136/136 139/139/139 138/138/138
f 139/139/139 140/140/140 138/138/138
f 139/139/139 141/141/141 140/140/140
f 142/142/142 144/144/144 143/143/143
f 142/142/142 145/145/145 144/144/144
f 146/146/146 148/148/148 147/147/147
f 146/146/146 149/149/149 148/148/148
f 150/150/150 152/152/152 151/151/151
f 150/150/150 153/153/153 152/152/152
f 154/154/154 156/156/156 155/155/155
f 154/154/154 157/157/157 156/156/156
f 158/158/158 160/160/160 159/159/159
f 158/158/158 161/161/161 160/160/160
f 162/162/162 164/164/164 163/163/163
f 162/162/162 165/165/165 164/164/164
f 166/166/166 168/168/168 167/167/167
f 166/166/166 169/169/169 168/168/168
f 170/170/170 172/172/172 171/171/171
f 170/170/170 173/173/173 172/172/172
f 174/174/174 176/176/176 175/175/175
f 174/174/174 177/177/177 176/176/176
f 178/178/178 180/180/180 179/179/179
f 178/178/178 181/181/181 180/180/180
f 182/182/182 184/184/184 183/183/183
f 182/182/182 185/185/185 184/184/184
f 186/186/186 188/188/188 187/187/187
f 186/186/186 187/187/187 189/189/189
f 189/189/189 187/187/187 190/190/190
f 189/189/189 190/190/190 191/191/191
f 192/192/192 194/194/194 193/193/193
f 192/192/192 195/195/195 194/194/194
f 196/196/196 198/198/198 197/197/197
f 196/196/196 199/199/199 198/198/198
f 200/200/200 202/202/202 201/201/201
f 200/200/200 203/203/203 202/202/202
f 204/204/204 206/206/206 205/205/205
f 204/204/204 207/207/207 206/206/206
f 208/208/208 210/210/210 209/209/209
f 208/208/208 211/211/211 210/210/210
f 212/212/212 214/214/214 213/213/213
f 212/212/212 215/215/215 214/214/214
