#Prop_51_104_19.obj

v -63.93781 5.983335 326.9468
v -69.90235 5.988945 304.4417
v -69.90235 3.700463 304.4417
v -63.93781 3.694852 326.9468
v -64.52875 1.794407 302.9479
v -58.56513 1.788797 325.4527
v -58.56513 4.077279 325.4527
v -64.52875 4.082889 302.9479
v -62.14723 5.364813 326.4485
v -68.11084 5.370424 303.9433
v -68.11084 3.081941 303.9433
v -62.14723 3.076331 326.4485
v -66.324 2.440512 303.4468
v -60.35992 2.434434 325.952
v -60.35992 4.723384 325.952
v -66.324 4.728994 303.4468
v -56.79653 3.463433 324.9613
v -62.7606 3.469043 302.4557
v -62.7606 1.180561 302.4561
v -56.79653 1.174483 324.9613
v -62.14162 0.8626509 301.2775
v -62.14162 2.614427 301.2775
v -71.68966 6.06515 303.8923
v -71.68966 4.313374 303.8923
v -55.12376 0.8626509 326.9043
v -55.12376 2.614427 326.9043
v -53.94656 2.566741 326.5822
v -53.94656 0.8149645 326.5822
v -60.96442 0.8149645 300.9549
v -53.94656 0.8149645 326.5822
v -53.94656 2.566741 326.5822
v -60.96442 2.566741 300.9549
v -55.12376 0.8626509 326.9043
v -64.67181 4.313374 329.5191
v -64.67181 6.06515 329.5191
v -55.12376 2.614427 326.9043
v -71.68966 6.06515 303.8923
v -64.67181 6.06515 329.5191
v -64.67181 4.313374 329.5191
v -71.68966 4.313374 303.8923
v -71.12303 5.983335 298.8824
v -71.65366 5.988945 275.6063
v -71.65366 3.700463 275.6063
v -71.12303 3.694852 298.8824
v -66.07996 1.794407 275.4118
v -65.54933 1.788797 298.6875
v -65.54933 4.077279 298.6875
v -66.07996 4.082889 275.4118
v -69.26513 5.364813 298.8174
v -69.7953 5.370424 275.5413
v -69.7953 3.081941 275.5413
v -69.26513 3.076331 298.8174
v -67.94207 2.440512 275.4763
v -67.41144 2.434434 298.7529
v -67.41144 4.723384 298.7529
v -67.94207 4.728994 275.4763
v -63.71527 3.463433 298.6234
v -64.2459 3.469043 275.3473
v -64.2459 1.180561 275.3478
v -63.71527 1.174483 298.6234
v -63.36837 0.8626509 274.3468
v -63.36837 2.614427 274.3468
v -73.26285 6.06515 274.654
v -73.26285 4.313374 274.654
v -62.54368 0.8626509 300.9044
v -62.54368 2.614427 300.9044
v -61.32347 2.566741 300.8666
v -61.32347 0.8149645 300.8666
v -62.14769 0.8149645 274.309
v -61.32347 0.8149645 300.8666
v -61.32347 2.566741 300.8666
v -62.14769 2.566741 274.309
v -62.54368 0.8626509 300.9044
v -72.43862 4.313374 301.2111
v -72.43862 6.06515 301.2111
v -62.54368 2.614427 300.9044
v -73.26285 6.06515 274.654
v -72.43862 6.06515 301.2111
v -72.43862 4.313374 301.2111
v -73.26285 4.313374 274.654
v -71.36755 5.983335 269.919
v -70.39137 5.988945 246.6573
v -70.39137 3.700463 246.6573
v -71.36755 3.694852 269.919
v -64.81673 1.794407 246.8238
v -65.79337 1.788797 270.085
v -65.79337 4.077279 270.085
v -64.81673 4.082889 246.8238
v -69.50964 5.364813 269.9742
v -68.53254 5.370424 246.7125
v -68.53254 3.081941 246.7125
v -69.50964 3.076331 269.9742
v -66.67884 2.440512 246.7681
v -67.65548 2.434434 270.0298
v -67.65548 4.723384 270.0298
v -66.67884 4.728994 246.7681
v -63.95885 3.463433 270.1401
v -62.98221 3.469043 246.8785
v -62.98221 1.180561 246.8785
v -63.95885 1.174483 270.1401
v -62.04157 0.8626509 245.9364
v -62.04157 2.614427 245.9364
v -71.93558 6.06515 245.6026
v -71.93558 4.313374 245.6026
v -62.93733 0.8626509 272.4917
v -62.93733 2.614427 272.4917
v -61.71758 2.566741 272.5329
v -61.71758 0.8149645 272.5329
v -60.82136 0.8149645 245.9776
v -61.71758 0.8149645 272.5329
v -61.71758 2.566741 272.5329
v -60.82136 2.566741 245.9776
v -62.93733 0.8626509 272.4917
v -72.83133 4.313374 272.1579
v -72.83133 6.06515 272.1579
v -62.93733 2.614427 272.4917
v -71.93558 6.06515 245.6026
v -72.83133 6.06515 272.1579
v -72.83133 4.313374 272.1579
v -71.93558 4.313374 245.6026
v 9.403028 0.7083712 271.4894
v 9.781246 0.5414686 275.0598
v 9.775169 -1.744676 274.9579
v 9.39695 -1.577774 271.3879
v 10.60127 0.3740985 278.6087
v 10.9304 0.2385194 281.519
v 10.92432 -2.047626 281.4161
v 10.59519 -1.912046 278.5063
v 10.33432 0.1239784 284.0393
v 10.71253 -0.04292421 287.6097
v 10.70599 -2.329069 287.5078
v 10.32824 -2.162166 283.9379
v 9.863062 -0.01440584 287.0627
v 10.24128 -0.1808409 290.6327
v 10.23474 -2.466986 290.5308
v 9.856984 -2.300551 286.9608
v 11.61811 -0.2640585 292.3134
v 11.94724 -0.3996376 295.2237
v 11.94116 -2.685782 295.1213
v 11.61203 -2.550203 292.211
v 12.0889 -0.55906 298.6562
v 12.4026 -0.6857563 301.3607
v 12.39652 -2.971434 301.2579
v 12.08282 -2.845205 298.5533
v 10.27494 6.32088 248.5171
v 9.792467 6.32088 249.2072
v 9.792467 4.316179 249.2072
v 10.27494 4.316179 248.5171
v 9.694289 6.32088 249.6195
v 10.29738 6.32088 250.3909
v 10.29738 4.316179 250.3909
v 9.694289 4.316179 249.6195
v 10.27494 6.32088 248.5171
v 10.27494 4.316179 248.5171
v 9.792467 4.316179 249.2072
v 9.792467 6.32088 249.2072
v 9.694289 6.32088 249.6195
v 9.694289 4.316179 249.6195
v 10.29738 4.316179 250.3909
v 10.29738 6.32088 250.3909
v -37.16654 2.629387 89.35843
v -36.50687 2.72663 85.82729
v -36.41665 0.4404856 85.77634
v -37.07631 0.3432426 89.30794
v -35.85048 2.737383 86.59542
v -35.19082 2.834626 83.06382
v -35.10059 0.5484813 83.01333
v -35.76025 0.4512384 86.54493
v 20.24515 2.45968 167.8831
v 19.82299 2.45968 171.4516
v 19.82392 0.1711973 171.4563
v 20.24609 0.1711973 167.8873
v 19.83654 2.45968 175.0982
v 19.51302 2.45968 178.0122
v 19.51443 0.1711973 178.016
v 19.83795 0.1711973 175.1019
v 18.37322 2.45968 180.3409
v 17.95106 2.45968 183.9099
v 17.95246 0.1711973 183.9146
v 18.37463 0.1711973 180.3456
v 17.24418 2.45968 183.1881
v 16.82201 2.45968 186.7571
v 16.82341 0.1711973 186.7617
v 17.24558 0.1711973 183.1927
v 17.79257 2.45968 188.7029
v 17.46905 2.45968 191.6169
v 17.47045 0.1711973 191.6206
v 17.79397 0.1711973 188.7066
v 16.84679 2.45968 194.9994
v 16.55366 2.45968 197.7086
v 16.55506 0.1711973 197.7123
v 16.84819 0.1711973 195.0026

vn 0.9667644 0.0009775171 -0.2556671
vn 0.9667644 0.0009775171 -0.2556671
vn 0.9667644 0.0009775171 -0.2556671
vn 0.9667644 0.0009775171 -0.2556671
vn 0.9667644 0.0009775171 -0.2556671
vn 0.9667644 0.0009775171 -0.2556671
vn 0.9667644 0.0009775171 -0.2556671
vn 0.9667644 0.0009775171 -0.2556671
vn 0.9667644 0.0009775171 -0.2556671
vn 0.9667644 0.0009775171 -0.2556671
vn 0.9667644 0.0009775171 -0.2556671
vn 0.9667644 0.0009775171 -0.2556671
vn 0.9667644 0.0009775171 -0.2556671
vn 0.9667644 0.0009775171 -0.2556671
vn 0.9667644 0.0009775171 -0.2556671
vn 0.9667644 0.0009775171 -0.2556671
vn 0.9667644 -0.0009775171 -0.2556671
vn 0.9667644 -0.0009775171 -0.2556671
vn 0.9667644 -0.0009775171 -0.2556671
vn 0.9667644 -0.0009775171 -0.2556671
vn -0.2649071 0.0009775171 -0.9642735
vn -0.2649071 0.0009775171 -0.9642735
vn -0.2649071 0.0009775171 -0.9642735
vn -0.2649071 0.0009775171 -0.9642735
vn 0.2649071 0.0009775171 0.9642735
vn 0.2649071 0.0009775171 0.9642735
vn 0.2649071 0.0009775171 0.9642735
vn 0.2649071 0.0009775171 0.9642735
vn 0.9648094 0.0009775171 -0.2629485
vn 0.9648094 0.0009775171 -0.2629485
vn 0.9648094 0.0009775171 -0.2629485
vn 0.9648094 0.0009775171 -0.2629485
vn 0.2649071 0.0009775171 0.9642735
vn 0.2649071 0.0009775171 0.9642735
vn 0.2649071 0.0009775171 0.9642735
vn 0.2649071 0.0009775171 0.9642735
vn -0.9648094 0.0009775171 0.2629485
vn -0.9648094 0.0009775171 0.2629485
vn -0.9648094 0.0009775171 0.2629485
vn -0.9648094 0.0009775171 0.2629485
vn 0.9999995 0.0009775166 0
vn 0.9999995 0.0009775166 0
vn 0.9999995 0.0009775166 0
vn 0.9999995 0.0009775166 0
vn 0.9999995 0.0009775166 0
vn 0.9999995 0.0009775166 0
vn 0.9999995 0.0009775166 0
vn 0.9999995 0.0009775166 0
vn 0.9999995 0.0009775166 0
vn 0.9999995 0.0009775166 0
vn 0.9999995 0.0009775166 0
vn 0.9999995 0.0009775166 0
vn 0.9999995 0.0009775166 0
vn 0.9999995 0.0009775166 0
vn 0.9999995 0.0009775166 0
vn 0.9999995 0.0009775166 0
vn 0.9999995 -0.0009775166 0
vn 0.9999995 -0.0009775166 0
vn 0.9999995 -0.0009775166 0
vn 0.9999995 -0.0009775166 0
vn -0.03030303 0.0009775171 -0.9995403
vn -0.03030303 0.0009775171 -0.9995403
vn -0.03030303 0.0009775171 -0.9995403
vn -0.03030303 0.0009775171 -0.9995403
vn 0.03030303 0.0009775171 0.9995403
vn 0.03030303 0.0009775171 0.9995403
vn 0.03030303 0.0009775171 0.9995403
vn 0.03030303 0.0009775171 0.9995403
vn 0.9999995 0.0009775166 0
vn 0.9999995 0.0009775166 0
vn 0.9999995 0.0009775166 0
vn 0.9999995 0.0009775166 0
vn 0.03030303 0.0009775171 0.9995403
vn 0.03030303 0.0009775171 0.9995403
vn 0.03030303 0.0009775171 0.9995403
vn 0.03030303 0.0009775171 0.9995403
vn -0.9999995 0.0009775166 0
vn -0.9999995 0.0009775166 0
vn -0.9999995 0.0009775166 0
vn -0.9999995 0.0009775166 0
vn 0.9999995 0.0009775166 0
vn 0.9999995 0.0009775166 0
vn 0.9999995 0.0009775166 0
vn 0.9999995 0.0009775166 0
vn 0.9999995 0.0009775166 0
vn 0.9999995 0.0009775166 0
vn 0.9999995 0.0009775166 0
vn 0.9999995 0.0009775166 0
vn 0.9999995 0.0009775166 0
vn 0.9999995 0.0009775166 0
vn 0.9999995 0.0009775166 0
vn 0.9999995 0.0009775166 0
vn 0.9999995 0.0009775166 0
vn 0.9999995 0.0009775166 0
vn 0.9999995 0.0009775166 0
vn 0.9999995 0.0009775166 0
vn 0.9999995 -0.0009775166 0
vn 0.9999995 -0.0009775166 0
vn 0.9999995 -0.0009775166 0
vn 0.9999995 -0.0009775166 0
vn 0.0342131 0.0009775171 -0.9994141
vn 0.0342131 0.0009775171 -0.9994141
vn 0.0342131 0.0009775171 -0.9994141
vn 0.0342131 0.0009775171 -0.9994141
vn -0.0342131 0.0009775171 0.9994141
vn -0.0342131 0.0009775171 0.9994141
vn -0.0342131 0.0009775171 0.9994141
vn -0.0342131 0.0009775171 0.9994141
vn 0.9999995 0.0009775166 0
vn 0.9999995 0.0009775166 0
vn 0.9999995 0.0009775166 0
vn 0.9999995 0.0009775166 0
vn -0.0342131 0.0009775171 0.9994141
vn -0.0342131 0.0009775171 0.9994141
vn -0.0342131 0.0009775171 0.9994141
vn -0.0342131 0.0009775171 0.9994141
vn -0.9999995 0.0009775166 0
vn -0.9999995 0.0009775166 0
vn -0.9999995 0.0009775166 0
vn -0.9999995 0.0009775166 0
vn -0.9941349 -0.002932551 0.1081074
vn -0.9941349 -0.002932551 0.1081074
vn -0.9941349 -0.002932551 0.1081074
vn -0.9941349 -0.002932551 0.1081074
vn -0.9941349 -0.002932551 0.1081074
vn -0.9941349 -0.002932551 0.1081074
vn -0.9941349 -0.002932551 0.1081074
vn -0.9941349 -0.002932551 0.1081074
vn -0.9941349 -0.002932551 0.1081074
vn -0.9941349 -0.002932551 0.1081074
vn -0.9941349 -0.002932551 0.1081074
vn -0.9941349 -0.002932551 0.1081074
vn -0.9941349 -0.002932551 0.1081074
vn -0.9941349 -0.002932551 0.1081074
vn -0.9941349 -0.002932551 0.1081074
vn -0.9941349 -0.002932551 0.1081074
vn -0.9941349 -0.002932551 0.1081074
vn -0.9941349 -0.002932551 0.1081074
vn -0.9941349 -0.002932551 0.1081074
vn -0.9941349 -0.002932551 0.1081074
vn -0.9941349 -0.002932551 0.1081074
vn -0.9941349 -0.002932551 0.1081074
vn -0.9941349 -0.002932551 0.1081074
vn -0.9941349 -0.002932551 0.1081074
vn -0.8201368 0.0009775171 -0.5721666
vn -0.8201368 0.0009775171 -0.5721666
vn -0.8201368 0.0009775171 -0.5721666
vn -0.8201368 0.0009775171 -0.5721666
vn -0.7869013 0.0009775171 0.6170781
vn -0.7869013 0.0009775171 0.6170781
vn -0.7869013 0.0009775171 0.6170781
vn -0.7869013 0.0009775171 0.6170781
vn 0.8201368 0.0009775171 0.5721666
vn 0.8201368 0.0009775171 0.5721666
vn 0.8201368 0.0009775171 0.5721666
vn 0.8201368 0.0009775171 0.5721666
vn 0.7869013 0.0009775171 -0.6170781
vn 0.7869013 0.0009775171 -0.6170781
vn 0.7869013 0.0009775171 -0.6170781
vn 0.7869013 0.0009775171 -0.6170781
vn 0.9960899 0.03616813 0.08060197
vn 0.9960899 0.03616813 0.08060197
vn 0.9960899 0.03616813 0.08060197
vn 0.9960899 0.03812317 0.07969589
vn 0.9960899 0.03616813 0.08060197
vn 0.9960899 0.03616813 0.08060197
vn 0.9960899 0.03616813 0.08060197
vn 0.9960899 0.03812317 0.07969589
vn -0.9999957 -0.002932539 0
vn -0.9999957 -0.002932539 0
vn -0.9999957 -0.002932539 0
vn -0.9999995 -0.0009775166 0
vn -0.9999957 -0.002932539 0
vn -0.9999957 -0.002932539 0
vn -0.9999957 -0.002932539 0
vn -0.9999957 -0.002932539 0
vn -0.9999957 -0.002932539 0
vn -0.9999957 -0.002932539 0
vn -0.9999957 -0.002932539 0
vn -0.9999995 -0.0009775166 0
vn -0.9999957 -0.002932539 0
vn -0.9999957 -0.002932539 0
vn -0.9999957 -0.002932539 0
vn -0.9999995 -0.0009775166 0
vn -0.9999957 -0.002932539 0
vn -0.9999957 -0.002932539 0
vn -0.9999957 -0.002932539 0
vn -0.9999957 -0.002932539 0
vn -0.9999957 -0.002932539 0
vn -0.9999957 -0.002932539 0
vn -0.9999957 -0.002932539 0
vn -0.9999957 -0.002932539 0

vt -0.4251752 0.7944193
vt 1.907399 0.7944193
vt 1.907399 0.4825801
vt -0.4251752 0.4825801
vt 1.504535 0.8034645
vt -0.4363688 0.8037933
vt -0.4362847 0.9945821
vt 1.504611 0.9942533
vt -0.4362924 0.9945821
vt 1.504611 0.9942533
vt 1.504535 0.8034645
vt -0.4363688 0.8037933
vt 0.9339499 0.4825801
vt -1.398624 0.4825801
vt -1.398624 0.7944193
vt 0.9339499 0.7944193
vt -0.8913016 0.7944193
vt 1.441273 0.7944193
vt 1.441273 0.4825801
vt -0.8913016 0.4825801
vt 0.2768511 0.002905101
vt 0.2768511 0.1098946
vt 0.9917455 0.1098946
vt 0.9917455 0.002905101
vt 0.1859639 -0.003074016
vt 0.1859639 0.1093211
vt 0.06960054 0.1093211
vt 0.06960054 -0.003074016
vt -0.9541741 0.002377532
vt 1.944 0.002377532
vt 1.944 0.1085566
vt -0.9541741 0.1085566
vt 0.2768511 0.002905101
vt 0.9917455 0.002905101
vt 0.9917455 0.1098946
vt 0.2768511 0.1098946
vt 0.9917455 0.1098946
vt 0.9917455 0.1098946
vt 0.9917455 0.002905101
vt 0.9917455 0.002905101
vt -0.4251752 0.7944193
vt 1.907399 0.7944193
vt 1.907399 0.4825801
vt -0.4251752 0.4825801
vt 1.504535 0.8034645
vt -0.4363688 0.8037933
vt -0.4362847 0.9945821
vt 1.504611 0.9942533
vt -0.4362924 0.9945821
vt 1.504611 0.9942533
vt 1.504535 0.8034645
vt -0.4363688 0.8037933
vt 0.9339499 0.4825801
vt -1.398624 0.4825801
vt -1.398624 0.7944193
vt 0.9339499 0.7944193
vt -0.8913016 0.7944193
vt 1.441273 0.7944193
vt 1.441273 0.4825801
vt -0.8913016 0.4825801
vt 0.2768511 0.002905101
vt 0.2768511 0.1098946
vt 0.9917455 0.1098946
vt 0.9917455 0.002905101
vt 0.1859639 -0.003074016
vt 0.1859639 0.1093211
vt 0.06960054 0.1093211
vt 0.06960054 -0.003074016
vt -0.9541741 0.002377532
vt 1.944 0.002377532
vt 1.944 0.1085566
vt -0.9541741 0.1085566
vt 0.2768511 0.002905101
vt 0.9917455 0.002905101
vt 0.9917455 0.1098946
vt 0.2768511 0.1098946
vt 0.9917455 0.1098946
vt 0.9917455 0.1098946
vt 0.9917455 0.002905101
vt 0.9917455 0.002905101
vt -0.4251752 0.7944193
vt 1.907399 0.7944193
vt 1.907399 0.4825801
vt -0.4251752 0.4825801
vt 1.504535 0.8034645
vt -0.4363688 0.8037933
vt -0.4362847 0.9945821
vt 1.504611 0.9942533
vt -0.4362924 0.9945821
vt 1.504611 0.9942533
vt 1.504535 0.8034645
vt -0.4363688 0.8037933
vt 0.9339499 0.4825801
vt -1.398624 0.4825801
vt -1.398624 0.7944193
vt 0.9339499 0.7944193
vt -0.8913016 0.7944193
vt 1.441273 0.7944193
vt 1.441273 0.4825801
vt -0.8913016 0.4825801
vt 0.2768511 0.002905101
vt 0.2768511 0.1098946
vt 0.9917455 0.1098946
vt 0.9917455 0.002905101
vt 0.1859639 -0.003074016
vt 0.1859639 0.1093211
vt 0.06960054 0.1093211
vt 0.06960054 -0.003074016
vt -0.9541741 0.002377532
vt 1.944 0.002377532
vt 1.944 0.1085566
vt -0.9541741 0.1085566
vt 0.2768511 0.002905101
vt 0.9917455 0.002905101
vt 0.9917455 0.1098946
vt 0.2768511 0.1098946
vt 0.9917455 0.1098946
vt 0.9917455 0.1098946
vt 0.9917455 0.002905101
vt 0.9917455 0.002905101
vt 0.009128887 0.3587772
vt 0.3575692 0.3566517
vt 0.3557112 0.1285736
vt 0.007278572 0.1306992
vt 0.4032765 0.3587772
vt 0.7020871 0.3566517
vt 0.7004891 0.1285736
vt 0.4016862 0.1306992
vt 0.009128887 0.3587772
vt 0.3575692 0.3566517
vt 0.3557112 0.1285736
vt 0.007278572 0.1306992
vt 0.7125161 0.3587772
vt 0.9938099 0.3566517
vt 0.9923113 0.1285736
vt 0.7110252 0.1306992
vt 0.4032765 0.3587772
vt 0.7020871 0.3566517
vt 0.7004891 0.1285736
vt 0.4016862 0.1306992
vt 0.7108876 0.3587772
vt 0.9825245 0.3566517
vt 0.9810794 0.1285736
vt 0.7094425 0.1306992
vt 0.8021876 0.3498315
vt 0.8928148 0.3498315
vt 0.8928148 0.1364336
vt 0.8021876 0.1364336
vt 0.5021996 0.3465973
vt 0.6000904 0.3465973
vt 0.6000904 0.1331994
vt 0.5021996 0.1331994
vt 0.8021876 0.3498315
vt 0.8021876 0.1364336
vt 0.8928148 0.1364336
vt 0.8928148 0.3498315
vt 0.5021996 0.3465973
vt 0.5021996 0.1331994
vt 0.6000904 0.1331994
vt 0.6000904 0.3465973
vt 0.009128887 0.3587772
vt 0.3575692 0.3566517
vt 0.3557112 0.1285736
vt 0.007278572 0.1306992
vt 0.7125161 0.3587772
vt 0.9938099 0.3566517
vt 0.9923113 0.1285736
vt 0.7110252 0.1306992
vt 0.009128887 0.3587772
vt 0.3575692 0.3566517
vt 0.3557112 0.1285736
vt 0.007278572 0.1306992
vt 0.4032765 0.3587772
vt 0.7020871 0.3566517
vt 0.7004891 0.1285736
vt 0.4016862 0.1306992
vt 0.009128887 0.3587772
vt 0.3575692 0.3566517
vt 0.3557112 0.1285736
vt 0.007278572 0.1306992
vt 0.7125161 0.3587772
vt 0.9938099 0.3566517
vt 0.9923113 0.1285736
vt 0.7110252 0.1306992
vt 0.4032765 0.3587772
vt 0.7020871 0.3566517
vt 0.7004891 0.1285736
vt 0.4016862 0.1306992
vt 0.7108876 0.3587772
vt 0.9825245 0.3566517
vt 0.9810794 0.1285736
vt 0.7094425 0.1306992

g Prop_51_104_19
usemtl Prop_51_104_19
usemap Prop_51_104_19
f 1/1/1 3/3/3 2/2/2
f 1/1/1 4/4/4 3/3/3
f 5/5/5 7/7/7 6/6/6
f 5/5/5 8/8/8 7/7/7
f 9/9/9 11/11/11 10/10/10
f 9/9/9 12/12/12 11/11/11
f 13/13/13 15/15/15 14/14/14
f 13/13/13 16/16/16 15/15/15
f 17/17/17 19/19/19 18/18/18
f 17/17/17 20/20/20 19/19/19
f 21/21/21 23/23/23 22/22/22
f 21/21/21 24/24/24 23/23/23
f 25/25/25 27/27/27 26/26/26
f 25/25/25 28/28/28 27/27/27
f 29/29/29 31/31/31 30/30/30
f 29/29/29 32/32/32 31/31/31
f 33/33/33 35/35/35 34/34/34
f 33/33/33 36/36/36 35/35/35
f 37/37/37 39/39/39 38/38/38
f 37/37/37 40/40/40 39/39/39
f 41/41/41 43/43/43 42/42/42
f 41/41/41 44/44/44 43/43/43
f 45/45/45 47/47/47 46/46/46
f 45/45/45 48/48/48 47/47/47
f 49/49/49 51/51/51 50/50/50
f 49/49/49 52/52/52 51/51/51
f 53/53/53 55/55/55 54/54/54
f 53/53/53 56/56/56 55/55/55
f 57/57/57 59/59/59 58/58/58
f 57/57/57 60/60/60 59/59/59
f 61/61/61 63/63/63 62/62/62
f 61/61/61 64/64/64 63/63/63
f 65/65/65 67/67/67 66/66/66
f 65/65/65 68/68/68 67/67/67
f 69/69/69 71/71/71 70/70/70
f 69/69/69 72/72/72 71/71/71
f 73/73/73 75/75/75 74/74/74
f 73/73/73 76/76/76 75/75/75
f 77/77/77 79/79/79 78/78/78
f 77/77/77 80/80/80 79/79/79
f 81/81/81 83/83/83 82/82/82
f 81/81/81 84/84/84 83/83/83
f 85/85/85 87/87/87 86/86/86
f 85/85/85 88/88/88 87/87/87
f 89/89/89 91/91/91 90/90/90
f 89/89/89 92/92/92 91/91/91
f 93/93/93 95/95/95 94/94/94
f 93/93/93 96/96/96 95/95/95
f 97/97/97 99/99/99 98/98/98
f 97/97/97 100/100/100 99/99/99
f 101/101/101 103/103/103 102/102/102
f 101/101/101 104/104/104 103/103/103
f 105/105/105 107/107/107 106/106/106
f 105/105/105 108/108/108 107/107/107
f 109/109/109 111/111/111 110/110/110
f 109/109/109 112/112/112 111/111/111
f 113/113/113 115/115/115 114/114/114
f 113/113/113 116/116/116 115/115/115
f 117/117/117 119/119/119 118/118/118
f 117/117/117 120/120/120 119/119/119
f 121/121/121 123/123/123 122/122/122
f 121/121/121 124/124/124 123/123/123
f 125/125/125 127/127/127 126/126/126
f 125/125/125 128/128/128 127/127/127
f 129/129/129 131/131/131 130/130/130
f 129/129/129 132/132/132 131/131/131
f 133/133/133 135/135/135 134/134/134
f 133/133/133 136/136/136 135/135/135
f 137/137/137 139/139/139 138/138/138
f 137/137/137 140/140/140 139/139/139
f 141/141/141 143/143/143 142/142/142
f 141/141/141 144/144/144 143/143/143
f 145/145/145 147/147/147 146/146/146
f 145/145/145 148/148/148 147/147/147
f 149/149/149 151/151/151 150/150/150
f 149/149/149 152/152/152 151/151/151
f 153/153/153 155/155/155 154/154/154
f 153/153/153 156/156/156 155/155/155
f 157/157/157 159/159/159 158/158/158
f 157/157/157 160/160/160 159/159/159
f 161/161/161 163/163/163 162/162/162
f 161/161/161 164/164/164 163/163/163
f 165/165/165 167/167/167 166/166/166
f 165/165/165 168/168/168 167/167/167
f 169/169/169 171/171/171 170/170/170
f 169/169/169 172/172/172 171/171/171
f 173/173/173 175/175/175 174/174/174
f 173/173/173 176/176/176 175/175/175
f 177/177/177 179/179/179 178/178/178
f 177/177/177 180/180/180 179/179/179
f 181/181/181 183/183/183 182/182/182
f 181/181/181 184/184/184 183/183/183
f 185/185/185 187/187/187 186/186/186
f 185/185/185 188/188/188 187/187/187
f 189/189/189 191/191/191 190/190/190
f 189/189/189 192/192/192 191/191/191
