#prop_Nor_4.001_297_31.obj

v -179.3704 7.906435 297.894
v -179.3704 16.63263 297.894
v -242.6165 16.63263 298.0701
v -242.6165 7.906435 298.0701
v -217.3018 7.906435 305.6739
v -217.3018 16.63263 305.6739
v -213.5116 16.63263 309.7934
v -213.5116 7.906435 309.7934
v -213.5116 7.906435 309.7934
v -213.5116 16.63263 309.7934
v -207.3468 16.63263 309.8098
v -207.3468 7.906435 309.8098
v -235.4034 7.906435 312.8177
v -235.4034 16.63263 312.8177
v -231.7983 16.63263 309.3339
v -231.7983 7.906435 309.3339
v -207.3468 7.906435 309.8098
v -207.3468 16.63263 309.8098
v -203.5342 16.63263 305.5048
v -203.5342 7.906435 305.5048
v -239.3074 7.906435 312.8069
v -239.3074 16.63263 312.8069
v -235.4034 16.63263 312.8177
v -235.4034 7.906435 312.8177
v -203.5342 7.906435 305.5048
v -203.5342 16.63263 305.5048
v -188.0202 16.63263 305.546
v -188.0202 7.906435 305.546
v -242.6165 7.906435 298.0701
v -242.6165 16.63263 298.0701
v -242.6877 16.63263 308.894
v -242.6877 7.906435 308.894
v -188.0202 7.906435 305.546
v -188.0202 16.63263 305.546
v -179.4139 16.63263 314.4048
v -179.4139 7.906435 314.4048
v -242.6877 7.906435 308.894
v -242.6877 16.63263 308.894
v -239.3074 16.63263 312.8069
v -239.3074 7.906435 312.8069
v -179.4139 7.906435 314.4048
v -179.4139 16.63263 314.4048
v -179.3704 16.63263 297.894
v -179.3704 7.906435 297.894
v -231.7983 7.906435 309.3339
v -231.7983 16.63263 309.3339
v -231.7884 16.63263 305.635
v -231.7884 7.906435 305.635
v -231.7884 7.906435 305.635
v -231.7884 16.63263 305.635
v -217.3018 16.63263 305.6739
v -217.3018 7.906435 305.6739

vn -0.002932551 0.0009775171 -0.9999952
vn -0.002932551 0.0009775171 -0.9999952
vn -0.002932551 0.0009775171 -0.9999952
vn -0.002932551 0.0009775171 -0.9999952
vn -0.7360704 0.0009775171 0.6769043
vn -0.7360704 0.0009775171 0.6769043
vn -0.7360704 0.0009775171 0.6769043
vn -0.7360704 0.0009775171 0.6769043
vn -0.002932551 0.0009775171 0.9999952
vn -0.002932551 0.0009775171 0.9999952
vn -0.002932551 0.0009775171 0.9999952
vn -0.002932551 0.0009775171 0.9999952
vn 0.6950147 0.0009775171 0.7189949
vn 0.6950147 0.0009775171 0.7189949
vn 0.6950147 0.0009775171 0.7189949
vn 0.6950147 0.0009775171 0.7189949
vn 0.7478006 0.0009775171 0.6639227
vn 0.7478006 0.0009775171 0.6639227
vn 0.7478006 0.0009775171 0.6639227
vn 0.7478006 0.0009775171 0.6639227
vn -0.002932551 0.0009775171 0.9999952
vn -0.002932551 0.0009775171 0.9999952
vn -0.002932551 0.0009775171 0.9999952
vn -0.002932551 0.0009775171 0.9999952
vn -0.002932551 0.0009775171 0.9999952
vn -0.002932551 0.0009775171 0.9999952
vn -0.002932551 0.0009775171 0.9999952
vn -0.002932551 0.0009775171 0.9999952
vn -0.9999995 0.0009775166 0
vn -0.9999995 0.0009775166 0
vn -0.9999995 0.0009775166 0
vn -0.9999995 0.0009775166 0
vn -0.71652 0.0009775171 0.6975659
vn -0.71652 0.0009775171 0.6975659
vn -0.71652 0.0009775171 0.6975659
vn -0.71652 0.0009775171 0.6975659
vn -0.7575758 0.0009775171 0.6527465
vn -0.7575758 0.0009775171 0.6527465
vn -0.7575758 0.0009775171 0.6527465
vn -0.7575758 0.0009775171 0.6527465
vn 0.9999995 0.0009775166 0
vn 0.9999995 0.0009775166 0
vn 0.9999995 0.0009775166 0
vn 0.9999995 0.0009775166 0
vn 0.9999995 0.0009775166 0
vn 0.9999995 0.0009775166 0
vn 0.9999995 0.0009775166 0
vn 0.9999995 0.0009775166 0
vn -0.002932551 0.0009775171 0.9999952
vn -0.002932551 0.0009775171 0.9999952
vn -0.002932551 0.0009775171 0.9999952
vn -0.002932551 0.0009775171 0.9999952

vt 0.5198576 0.3679889
vt 0.5198576 0.1736363
vt 0.5087126 0.1736363
vt 0.5087126 0.3679889
vt 0.9790934 0.310679
vt 0.9790934 0.08976242
vt 0.9210985 0.08976242
vt 0.9210985 0.310679
vt 0.9210985 0.310679
vt 0.9210985 0.08976242
vt 0.8527458 0.08976242
vt 0.8527458 0.310679
vt 0.7106418 0.1888917
vt 0.7106418 0.3693079
vt 0.7692912 0.3693079
vt 0.7692912 0.1888917
vt 0.8527458 0.310679
vt 0.8527458 0.08976242
vt 0.7904155 0.08976242
vt 0.7904155 0.310679
vt 0.6407145 0.1888917
vt 0.6407145 0.3693079
vt 0.7106418 0.3693079
vt 0.7106418 0.1888917
vt 0.3922217 0.1084738
vt 0.3922217 0.2492179
vt 0.5732003 0.2492179
vt 0.5732003 0.1084738
vt 0.5796828 0.3487254
vt 0.6810002 0.3487254
vt 0.6810002 0.1777569
vt 0.5796828 0.1777569
vt 0.3942257 0.1139133
vt 0.3942257 0.2482056
vt 0.5710633 0.2482056
vt 0.5710633 0.1139133
vt 0.5802758 0.1888917
vt 0.5802758 0.3693079
vt 0.6407145 0.3693079
vt 0.6407145 0.1888917
vt 0.3892258 0.1416021
vt 0.3892258 0.306221
vt 0.5735275 0.306221
vt 0.5735275 0.1416021
vt 0.6810513 0.1777569
vt 0.6810513 0.3155869
vt 0.7735447 0.3155869
vt 0.7735447 0.1777569
vt 0.3922217 0.1084738
vt 0.3922217 0.2492179
vt 0.5723721 0.2492179
vt 0.5723721 0.1084738

g prop_Nor_4.001_297_31
usemtl prop_Nor_4.001_297_31
usemap prop_Nor_4.001_297_31
f 1/1/1 3/3/3 2/2/2
f 1/1/1 4/4/4 3/3/3
f 5/5/5 7/7/7 6/6/6
f 5/5/5 8/8/8 7/7/7
f 9/9/9 11/11/11 10/10/10
f 9/9/9 12/12/12 11/11/11
f 13/13/13 15/15/15 14/14/14
f 13/13/13 16/16/16 15/15/15
f 17/17/17 19/19/19 18/18/18
f 17/17/17 20/20/20 19/19/19
f 21/21/21 23/23/23 22/22/22
f 21/21/21 24/24/24 23/23/23
f 25/25/25 27/27/27 26/26/26
f 25/25/25 28/28/28 27/27/27
f 29/29/29 31/31/31 30/30/30
f 29/29/29 32/32/32 31/31/31
f 33/33/33 35/35/35 34/34/34
f 33/33/33 36/36/36 35/35/35
f 37/37/37 39/39/39 38/38/38
f 37/37/37 40/40/40 39/39/39
f 41/41/41 43/43/43 42/42/42
f 41/41/41 44/44/44 43/43/43
f 45/45/45 47/47/47 46/46/46
f 45/45/45 48/48/48 47/47/47
f 49/49/49 51/51/51 50/50/50
f 49/49/49 52/52/52 51/51/51
