#prop_Nor_3_292_6.obj

v -70.04044 6.778158 82.86232
v -69.98221 6.778158 82.02443
v -69.98221 8.778454 82.02443
v -70.04044 8.778454 82.86232
v -69.89063 7.918771 84.427
v -69.89063 6.928847 84.427
v -73.84854 1.740078 86.21483
v -73.84854 2.730002 86.21483
v -69.0007 6.778158 83.61533
v -69.9133 6.778158 83.26549
v -69.9133 8.778454 83.26549
v -69.0007 8.778454 83.61533
v -68.50107 6.873728 80.49086
v -67.228 6.873728 83.30949
v -67.228 7.830313 83.30949
v -68.50107 7.830313 80.49086
v -71.31927 6.873728 81.76393
v -71.31927 7.830313 81.76393
v -68.50107 7.830313 80.49086
v -68.50107 6.873728 80.49086
v -67.228 6.873728 83.30949
v -70.04666 6.873728 84.58214
v -70.04666 7.830313 84.58214
v -67.228 7.830313 83.30949
v -75.05804 2.730002 83.53709
v -75.05804 1.740078 83.53709
v -71.10013 6.928847 81.74927
v -71.10013 7.918771 81.74927
v -67.08932 17.16059 13.42581
v -67.08932 20.82468 13.42581
v 47.55701 20.82468 59.27527
v 47.55701 17.16059 59.27527
v 68.36542 31.5765 7.243118
v 68.36542 35.24015 7.243118
v 47.55701 20.82468 59.27527
v 47.55701 17.16059 59.27527
v -46.28046 31.5765 -38.60634
v -46.28046 35.24015 -38.60634
v 68.36542 35.24015 7.243118
v 68.36542 31.5765 7.243118
v 50.00449 18.51101 53.15526
v -64.64185 18.51101 7.305786
v -64.64185 21.41099 7.305786
v 50.00449 21.41099 53.15526
v 52.02478 20.25216 48.10339
v -62.62109 20.25216 2.253937
v -62.62109 23.15214 2.253937
v 52.02478 23.15214 48.10339
v 45.84076 21.50345 40.18044
v -60.74216 21.50345 -2.44455
v -60.74216 24.40344 -2.44455
v 45.84076 24.40344 40.18044
v 42.98166 23.08146 31.88765
v -58.27734 23.08146 -8.608124
v -58.27734 25.98145 -8.608124
v 42.98166 25.98145 31.88765
v -25.14709 24.49189 -1.130569
v -56.28726 24.49189 -13.58441
v -56.28726 27.39188 -13.58441
v -25.14709 27.39188 -1.130569
v 33.99011 24.49189 22.51961
v 2.850372 24.49189 10.06621
v 2.850372 27.39188 10.06621
v 33.99011 27.39188 22.51961

vn -0.998045 0.0009775171 -0.06249236
vn -0.998045 0.0009775171 -0.06249236
vn -0.998045 0.0009775171 -0.06249236
vn -0.998045 0.0009775171 -0.06249236
vn 0.4115347 0.0009775171 0.9113936
vn 0.4115347 0.0009775171 0.9113936
vn 0.4115347 0.0009775171 0.9113936
vn 0.4115347 0.0009775171 0.9113936
vn -0.3587488 0.0009775171 0.9334337
vn -0.3587488 0.0009775171 0.9334337
vn -0.3587488 0.0009775171 0.9334337
vn -0.3587488 0.0009775171 0.9334337
vn 0.9120235 0.0009775171 -0.4101368
vn 0.9120235 0.0009775171 -0.4101368
vn 0.9120235 0.0009775171 -0.4101368
vn 0.9120235 0.0009775171 -0.4101368
vn 0.4115347 0.0009775171 0.9113936
vn 0.4115347 0.0009775171 0.9113936
vn 0.4115347 0.0009775171 0.9113936
vn 0.4115347 0.0009775171 0.9113936
vn 0.4115347 0.0009775171 0.9113936
vn 0.4115347 0.0009775171 0.9113936
vn 0.4115347 0.0009775171 0.9113936
vn 0.4115347 0.0009775171 0.9113936
vn -0.4115347 0.0009775171 -0.9113936
vn -0.4115347 0.0009775171 -0.9113936
vn -0.4115347 0.0009775171 -0.9113936
vn -0.4115347 0.0009775171 -0.9113936
vn -0.370479 0.0009775171 0.9288403
vn -0.370479 0.0009775171 0.9288403
vn -0.370479 0.0009775171 0.9288403
vn -0.370479 0.0009775171 0.9288403
vn -0.9276637 0.0009775171 -0.3734154
vn -0.9276637 0.0009775171 -0.3734154
vn -0.9276637 0.0009775171 -0.3734154
vn -0.9276637 0.0009775171 -0.3734154
vn -0.370479 0.0009775171 0.9288403
vn -0.370479 0.0009775171 0.9288403
vn -0.370479 0.0009775171 0.9288403
vn -0.370479 0.0009775171 0.9288403
vn -0.370479 0.0009775171 0.9288403
vn -0.370479 0.0009775171 0.9288403
vn -0.370479 0.0009775171 0.9288403
vn -0.370479 0.0009775171 0.9288403
vn -0.370479 0.0009775171 0.9288403
vn -0.370479 0.0009775171 0.9288403
vn -0.370479 0.0009775171 0.9288403
vn -0.370479 0.0009775171 0.9288403
vn -0.370479 0.0009775171 0.9288403
vn -0.370479 0.0009775171 0.9288403
vn -0.370479 0.0009775171 0.9288403
vn -0.370479 0.0009775171 0.9288403
vn -0.370479 0.0009775171 0.9288403
vn -0.370479 0.0009775171 0.9288403
vn -0.370479 0.0009775171 0.9288403
vn -0.370479 0.0009775171 0.9288403
vn -0.370479 0.0009775171 0.9288403
vn -0.370479 0.0009775171 0.9288403
vn -0.370479 0.0009775171 0.9288403
vn -0.370479 0.0009775171 0.9288403
vn -0.370479 0.0009775171 0.9288403
vn -0.370479 0.0009775171 0.9288403
vn -0.370479 0.0009775171 0.9288403
vn -0.370479 0.0009775171 0.9288403

vt 0.2494848 0.1316531
vt 0.1624116 0.1316531
vt 0.1624116 0.3436361
vt 0.2494848 0.3436361
vt 0.7869217 0.1076536
vt 0.7869217 0.004258274
vt 0.1915552 0.004258274
vt 0.1915552 0.1076536
vt 0.9957913 0.1284428
vt 0.9011758 0.1284428
vt 0.9011758 0.3404162
vt 0.9957913 0.3404162
vt 0.3600838 0.002566123
vt 0.7118386 0.002566123
vt 0.7118386 0.1082627
vt 0.3600838 0.1082627
vt 0.008319438 0.002566123
vt 0.008319438 0.1082627
vt 0.3600838 0.1082627
vt 0.3600838 0.002566123
vt 0.7118386 0.002566123
vt 1.063603 0.002566123
vt 1.063603 0.1082627
vt 0.7118386 0.1082627
vt 0.7869217 0.1094327
vt 0.7869217 0.004006869
vt 0.1915552 0.004006869
vt 0.1915552 0.1094327
vt 4.239998E-05 4.239998E-05
vt 4.239998E-05 0.1097131
vt 2.577643 0.1097131
vt 2.577643 4.239998E-05
vt 43.2847 4.239998E-05
vt 43.2847 0.1097131
vt 2.577643 0.1097131
vt 2.577643 4.239998E-05
vt 49.94708 4.239998E-05
vt 49.94708 0.1097131
vt 43.2847 0.1097131
vt 43.2847 4.239998E-05
vt 8.919488 0.3617953
vt 0.006395219 0.3617953
vt 0.006395219 0.4901861
vt 8.919488 0.4901861
vt 8.919488 0.809877
vt 0.006395219 0.809877
vt 0.006395219 0.9762009
vt 8.919488 0.9762009
vt 8.919488 0.3617953
vt 0.006395219 0.3617953
vt 0.006395219 0.4901861
vt 8.919488 0.4901861
vt 8.919488 0.6303446
vt 0.006395219 0.6303446
vt 0.006395219 0.787734
vt 8.919488 0.787734
vt 2.680323 0.1199531
vt 0.006395219 0.1199531
vt 0.006395219 0.3524837
vt 2.680323 0.3524837
vt 2.680323 0.4879815
vt 0.006395219 0.4879815
vt 0.006395219 0.6241948
vt 2.680323 0.6241948

g prop_Nor_3_292_6
usemtl prop_Nor_3_292_6
usemap prop_Nor_3_292_6
f 1/1/1 3/3/3 2/2/2
f 1/1/1 4/4/4 3/3/3
f 5/5/5 7/7/7 6/6/6
f 5/5/5 8/8/8 7/7/7
f 9/9/9 11/11/11 10/10/10
f 9/9/9 12/12/12 11/11/11
f 13/13/13 15/15/15 14/14/14
f 13/13/13 16/16/16 15/15/15
f 17/17/17 19/19/19 18/18/18
f 17/17/17 20/20/20 19/19/19
f 21/21/21 23/23/23 22/22/22
f 21/21/21 24/24/24 23/23/23
f 25/25/25 27/27/27 26/26/26
f 25/25/25 28/28/28 27/27/27
f 29/29/29 31/31/31 30/30/30
f 29/29/29 32/32/32 31/31/31
f 33/33/33 35/35/35 34/34/34
f 33/33/33 36/36/36 35/35/35
f 37/37/37 39/39/39 38/38/38
f 37/37/37 40/40/40 39/39/39
f 41/41/41 43/43/43 42/42/42
f 41/41/41 44/44/44 43/43/43
f 45/45/45 47/47/47 46/46/46
f 45/45/45 48/48/48 47/47/47
f 49/49/49 51/51/51 50/50/50
f 49/49/49 52/52/52 51/51/51
f 53/53/53 55/55/55 54/54/54
f 53/53/53 56/56/56 55/55/55
f 57/57/57 59/59/59 58/58/58
f 57/57/57 60/60/60 59/59/59
f 61/61/61 63/63/63 62/62/62
f 61/61/61 64/64/64 63/63/63
