#Prop04_188_27.obj

v -93.61613 -0.1239809 -53.44159
v -93.61655 1.409721 -53.44159
v -74.09949 1.409721 -67.16043
v -74.09907 -0.1239809 -67.16043
v -93.4625 1.816345 -53.22229
v -73.94544 1.816345 -66.94156
v -74.09949 1.409721 -67.16043
v -93.61655 1.409721 -53.44159
v -93.61613 -0.1239809 -53.44159
v -74.09907 -0.1239809 -67.16043
v -74.09949 1.409721 -67.16043
v -93.61655 1.409721 -53.44159
v -93.4625 1.816345 -53.22229
v -93.61655 1.409721 -53.44159
v -74.09949 1.409721 -67.16043
v -73.94544 1.816345 -66.94156
v -69.29881 -1.257625 -71.21835
v -69.29881 0.2760772 -71.21878
v -47.25053 0.2760772 -80.3295
v -47.25053 -1.257625 -80.32907
v -69.19639 0.6827009 -70.97147
v -47.14854 0.6827009 -80.08179
v -47.25053 0.2760772 -80.3295
v -69.29881 0.2760772 -71.21878
v -69.29881 -1.257625 -71.21835
v -47.25053 -1.257625 -80.32907
v -47.25053 0.2760772 -80.3295
v -69.29881 0.2760772 -71.21878
v -69.19639 0.6827009 -70.97147
v -69.29881 0.2760772 -71.21878
v -47.25053 0.2760772 -80.3295
v -47.14854 0.6827009 -80.08179
v -41.76044 -1.047091 -81.85272
v -41.76089 0.4866111 -81.85315
v -17.9351 0.4866111 -83.06165
v -17.9351 -1.047091 -83.06165
v -41.74731 0.8936725 -81.58572
v -17.92153 0.8936725 -82.79422
v -17.9351 0.4866111 -83.06165
v -41.76089 0.4866111 -81.85315
v -41.76044 -1.047091 -81.85272
v -17.9351 -1.047091 -83.06165
v -17.9351 0.4866111 -83.06165
v -41.76089 0.4866111 -81.85315
v -41.74731 0.8936725 -81.58572
v -41.76089 0.4866111 -81.85315
v -17.9351 0.4866111 -83.06165
v -17.92153 0.8936725 -82.79422
v 59.44289 -2.979976 11.83224
v 63.51175 -1.446274 35.33896
v 63.51131 -2.979976 35.33896
v 59.44333 -1.446274 11.83224
v 59.17939 -1.039212 11.87778
v 63.24782 -1.039212 35.38492
v 59.44289 -2.979976 11.83224
v 63.51131 -2.979976 35.33896
v 63.51175 -1.446274 35.33896
v 59.44333 -1.446274 11.83224
v 59.17939 -1.039212 11.87778
v 63.24782 -1.039212 35.38492
v 67.10527 -2.242013 47.3118
v 71.70332 -0.708311 70.72089
v 71.70288 -2.242013 70.72089
v 67.10527 -0.708311 47.3118
v 66.84265 -0.3016873 47.36343
v 71.44026 -0.3016873 70.77255
v 67.10527 -2.242013 47.3118
v 71.70288 -2.242013 70.72089
v 71.70332 -0.708311 70.72089
v 67.10527 -0.708311 47.3118
v 66.84265 -0.3016873 47.36343
v 71.44026 -0.3016873 70.77255
v 73.82529 -1.506239 79.82462
v 81.0666 0.02746338 102.5553
v 81.06616 -1.506239 102.5553
v 73.82529 0.02746338 79.82462
v 73.57011 0.434087 79.90604
v 80.81142 0.434087 102.6367
v 73.82529 -1.506239 79.82462
v 81.06616 -1.506239 102.5553
v 81.0666 0.02746338 102.5553
v 73.82529 0.02746338 79.82462
v 73.57011 0.434087 79.90604
v 80.81142 0.434087 102.6367

vn 0.5757576 0.0009775171 0.8176199
vn 0.5757576 0.0009775171 0.8176199
vn 0.5757576 0.0009775171 0.8176199
vn 0.5757576 0.0009775171 0.8176199
vn 0.4799609 -0.5503421 0.6831991
vn 0.4799609 -0.5503421 0.6831991
vn 0.4799609 -0.5503421 0.6831991
vn 0.4799609 -0.5503421 0.6831991
vn -0.5757576 -0.0009775171 -0.8176199
vn -0.5757576 -0.0009775171 -0.8176199
vn -0.5757576 -0.0009775171 -0.8176199
vn -0.5757576 -0.0009775171 -0.8176199
vn -0.4799609 0.5503421 -0.6831991
vn -0.4799609 0.5503421 -0.6831991
vn -0.4799609 0.5503421 -0.6831991
vn -0.4799609 0.5503421 -0.6831991
vn 0.3822092 0.0009775171 0.9240753
vn 0.3822092 0.0009775171 0.9240753
vn 0.3822092 0.0009775171 0.9240753
vn 0.3822092 0.0009775171 0.9240753
vn 0.3196481 -0.5503421 0.7713292
vn 0.3196481 -0.5503421 0.7713292
vn 0.3196481 -0.5503421 0.7713292
vn 0.3196481 -0.5503421 0.7713292
vn -0.3822092 -0.0009775171 -0.9240753
vn -0.3822092 -0.0009775171 -0.9240753
vn -0.3822092 -0.0009775171 -0.9240753
vn -0.3822092 -0.0009775171 -0.9240753
vn -0.3196481 0.5503421 -0.7713292
vn -0.3196481 0.5503421 -0.7713292
vn -0.3196481 0.5503421 -0.7713292
vn -0.3196481 0.5503421 -0.7713292
vn 0.04985337 0.0009775171 0.9987561
vn 0.04985337 0.0009775171 0.9987561
vn 0.04985337 0.0009775171 0.9987561
vn 0.04985337 0.0009775171 0.9987561
vn 0.04203324 -0.5503421 0.8338805
vn 0.04203324 -0.5503421 0.8338805
vn 0.04203324 -0.5503421 0.8338805
vn 0.04203324 -0.5503421 0.8338805
vn -0.04985337 -0.0009775171 -0.9987561
vn -0.04985337 -0.0009775171 -0.9987561
vn -0.04985337 -0.0009775171 -0.9987561
vn -0.04985337 -0.0009775171 -0.9987561
vn -0.04203324 0.5503421 -0.8338805
vn -0.04203324 0.5503421 -0.8338805
vn -0.04203324 0.5503421 -0.8338805
vn -0.04203324 0.5503421 -0.8338805
vn -0.9863148 0.0009775171 0.1648703
vn -0.943304 -0.2864125 0.1677661
vn -0.9863148 0.0009775171 0.1648703
vn -0.943304 -0.2864125 0.1677661
vn -0.8220919 -0.5503421 0.1459056
vn -0.8220919 -0.5503421 0.1459056
vn 0.9863148 -0.0009775171 -0.1648703
vn 0.9863148 -0.0009775171 -0.1648703
vn 0.943304 0.2864125 -0.1677661
vn 0.943304 0.2864125 -0.1677661
vn 0.8220919 0.5503421 -0.1459056
vn 0.8220919 0.5503421 -0.1459056
vn -0.9804497 0.0009775171 0.1967675
vn -0.9393939 -0.2864125 0.1884328
vn -0.9804497 0.0009775171 0.1967675
vn -0.9393939 -0.2864125 0.1884328
vn -0.8201368 -0.5503421 0.1565218
vn -0.8201368 -0.5503421 0.1565218
vn 0.9804497 -0.0009775171 -0.1967675
vn 0.9804497 -0.0009775171 -0.1967675
vn 0.9393939 0.2864125 -0.1884328
vn 0.9393939 0.2864125 -0.1884328
vn 0.8201368 0.5503421 -0.1565218
vn 0.8201368 0.5503421 -0.1565218
vn -0.9530792 0.0009775171 0.3027196
vn -0.9120235 -0.2864125 0.2935661
vn -0.9530792 0.0009775171 0.3027196
vn -0.9120235 -0.2864125 0.2935661
vn -0.7966765 -0.5503421 0.2498602
vn -0.7966765 -0.5503421 0.2498602
vn 0.9530792 -0.0009775171 -0.3027196
vn 0.9530792 -0.0009775171 -0.3027196
vn 0.9120235 0.2864125 -0.2935661
vn 0.9120235 0.2864125 -0.2935661
vn 0.7966765 0.5503421 -0.2498602
vn 0.7966765 0.5503421 -0.2498602

vt 1.000996 -5.001707
vt 0.2656211 -5.001707
vt 0.2656211 6.001659
vt 1.000996 6.001649
vt 0.003394795 -5.001665
vt 0.003394795 6.001691
vt 0.2656211 6.001659
vt 0.2656211 -5.001707
vt 1.000996 -5.001707
vt 1.000996 6.001649
vt 0.2656211 6.001659
vt 0.2656211 -5.001707
vt 0.003394795 -5.001665
vt 0.2656211 -5.001707
vt 0.2656211 6.001659
vt 0.003394795 6.001691
vt 1.000996 -5.001707
vt 0.2656211 -5.001707
vt 0.2656211 6.001659
vt 1.000996 6.001649
vt 0.003394795 -5.001665
vt 0.003394795 6.001691
vt 0.2656211 6.001659
vt 0.2656211 -5.001707
vt 1.000996 -5.001707
vt 1.000996 6.001649
vt 0.2656211 6.001659
vt 0.2656211 -5.001707
vt 0.003394795 -5.001665
vt 0.2656211 -5.001707
vt 0.2656211 6.001659
vt 0.003394795 6.001691
vt 1.000996 -5.001707
vt 0.2656211 -5.001707
vt 0.2656211 6.001659
vt 1.000996 6.001649
vt 0.003394795 -5.001665
vt 0.003394795 6.001691
vt 0.2656211 6.001659
vt 0.2656211 -5.001707
vt 1.000996 -5.001707
vt 1.000996 6.001649
vt 0.2656211 6.001659
vt 0.2656211 -5.001707
vt 0.003394795 -5.001665
vt 0.2656211 -5.001707
vt 0.2656211 6.001659
vt 0.003394795 6.001691
vt 1.000996 -5.001707
vt 0.2656211 6.001659
vt 1.000996 6.001649
vt 0.2656211 -5.001707
vt 0.003394795 -5.001665
vt 0.003394795 6.001691
vt 1.000996 -5.001707
vt 1.000996 6.001649
vt 0.2656211 6.001659
vt 0.2656211 -5.001707
vt 0.003394795 -5.001665
vt 0.003394795 6.001691
vt 1.000996 -5.001707
vt 0.2656211 6.001659
vt 1.000996 6.001649
vt 0.2656211 -5.001707
vt 0.003394795 -5.001665
vt 0.003394795 6.001691
vt 1.000996 -5.001707
vt 1.000996 6.001649
vt 0.2656211 6.001659
vt 0.2656211 -5.001707
vt 0.003394795 -5.001665
vt 0.003394795 6.001691
vt 1.000996 -5.001707
vt 0.2656211 6.001659
vt 1.000996 6.001649
vt 0.2656211 -5.001707
vt 0.003394795 -5.001665
vt 0.003394795 6.001691
vt 1.000996 -5.001707
vt 1.000996 6.001649
vt 0.2656211 6.001659
vt 0.2656211 -5.001707
vt 0.003394795 -5.001665
vt 0.003394795 6.001691

g Prop04_188_27
usemtl Prop04_188_27
usemap Prop04_188_27
f 1/1/1 3/3/3 2/2/2
f 1/1/1 4/4/4 3/3/3
f 5/5/5 7/7/7 6/6/6
f 5/5/5 8/8/8 7/7/7
f 9/9/9 11/11/11 10/10/10
f 9/9/9 12/12/12 11/11/11
f 13/13/13 15/15/15 14/14/14
f 13/13/13 16/16/16 15/15/15
f 17/17/17 19/19/19 18/18/18
f 17/17/17 20/20/20 19/19/19
f 21/21/21 23/23/23 22/22/22
f 21/21/21 24/24/24 23/23/23
f 25/25/25 27/27/27 26/26/26
f 25/25/25 28/28/28 27/27/27
f 29/29/29 31/31/31 30/30/30
f 29/29/29 32/32/32 31/31/31
f 33/33/33 35/35/35 34/34/34
f 33/33/33 36/36/36 35/35/35
f 37/37/37 39/39/39 38/38/38
f 37/37/37 40/40/40 39/39/39
f 41/41/41 43/43/43 42/42/42
f 41/41/41 44/44/44 43/43/43
f 45/45/45 47/47/47 46/46/46
f 45/45/45 48/48/48 47/47/47
f 49/49/49 51/51/51 50/50/50
f 49/49/49 50/50/50 52/52/52
f 53/53/53 52/52/52 50/50/50
f 53/53/53 50/50/50 54/54/54
f 55/55/55 57/57/57 56/56/56
f 55/55/55 58/58/58 57/57/57
f 59/59/59 57/57/57 58/58/58
f 59/59/59 60/60/60 57/57/57
f 61/61/61 63/63/63 62/62/62
f 61/61/61 62/62/62 64/64/64
f 65/65/65 64/64/64 62/62/62
f 65/65/65 62/62/62 66/66/66
f 67/67/67 69/69/69 68/68/68
f 67/67/67 70/70/70 69/69/69
f 71/71/71 69/69/69 70/70/70
f 71/71/71 72/72/72 69/69/69
f 73/73/73 75/75/75 74/74/74
f 73/73/73 74/74/74 76/76/76
f 77/77/77 76/76/76 74/74/74
f 77/77/77 74/74/74 78/78/78
f 79/79/79 81/81/81 80/80/80
f 79/79/79 82/82/82 81/81/81
f 83/83/83 81/81/81 82/82/82
f 83/83/83 84/84/84 81/81/81
