#Road_Dirt.006_115_2.obj

v 296.2763 -5.520356 264.1507
v 296.4489 -5.520356 261.7335
v 300.2738 -5.512788 264.4413
v 292.3303 -5.526411 263.8737
v 292.5755 -5.526411 261.4625
v 288.5341 -5.523383 263.3667
v 288.9413 -5.523383 260.9767
v 284.7833 -5.50976 262.5856
v 285.2722 -5.50976 260.2108
v 280.9675 -5.494624 261.8091
v 281.4458 -5.494624 259.4328
v 277.2909 -5.482515 261.0841
v 277.969 -5.482515 258.7577
v 273.8928 -5.444674 259.7567
v 274.7782 -5.444674 257.4998
v 270.366 -5.406834 258.3611
v 271.25 -5.406834 256.1043
v 266.8816 -5.368993 257.011
v 267.8443 -5.368993 254.7859
v 263.6198 -5.322071 255.4549
v 264.8185 -5.322071 253.348
v 260.5092 -5.258498 253.3813
v 261.8458 -5.258498 251.3591
v 257.2867 -5.193412 251.2637
v 258.6112 -5.193412 249.2339
v 254.1202 -5.131353 249.2097
v 255.5355 -5.131353 247.242
v 251.205 -5.031454 246.8969
v 252.7686 -5.031454 245.0442
v 248.3578 -4.90885 244.3464
v 249.9714 -4.90885 242.5361
v 245.5183 -4.789273 241.8293
v 247.2075 -4.789273 240.0916
v 242.8679 -4.624288 239.0124
v 244.6343 -4.624288 237.3519
v 240.1918 -4.459302 236.1637
v 241.9946 -4.459302 234.5411
v 237.6731 -4.280694 233.25
v 239.5515 -4.280694 231.7167
v 235.3013 -4.082409 230.1834
v 237.2175 -4.082409 228.6985
v 232.9461 -3.885637 227.1531
v 234.9335 -3.885637 225.7651
v 230.9012 -3.663134 223.9064
v 232.9491 -3.663134 222.6092
v 228.8305 -3.442144 220.6521
v 230.9178 -3.442144 219.42
v 226.9854 -3.212072 217.2873
v 229.1272 -3.212072 216.1536
v 225.222 -2.97746 213.8438
v 227.3986 -2.97746 212.7767
v 223.5782 -2.741334 210.3609
v 225.8002 -2.741334 209.3907
v 222.1145 -2.503694 206.7524
v 224.3623 -2.503694 205.8458
v 220.6721 -2.267568 203.153
v 222.9561 -2.267568 202.3402
v 219.4914 -2.03901 199.4128
v 221.8027 -2.03901 198.6803
v 218.2987 -1.810452 195.6651
v 220.6282 -1.810452 194.9976
v 217.3148 -1.597031 191.8341
v 219.667 -1.597031 191.2468
v 216.3764 -1.386636 187.9562
v 218.7407 -1.386636 187.4189
v 215.5439 -1.189865 184.051
v 217.9233 -1.189865 183.5863
v 214.8325 -1.011256 180.0732
v 217.2195 -1.011256 179.6494
v 214.1332 -0.8326482 176.1015
v 216.5308 -0.8326482 175.7397
v 213.6155 -0.6918807 172.0555
v 216.0207 -0.6918807 171.7467
v 213.0933 -0.5511132 167.9945
v 215.5015 -0.5511132 167.7159
v 212.674 -0.4406184 163.9046
v 215.0868 -0.4406184 163.6746
v 212.3093 -0.3467734 159.777
v 214.725 -0.3467734 159.5681
v 211.9611 -0.2589829 155.6493
v 214.3799 -0.2589829 155.4783
v 211.7189 -0.2211422 151.4641
v 214.1392 -0.2211422 151.3233
v 211.4753 -0.1817879 147.2623
v 210.0827 -0.2211422 151.558
v 210.3279 -0.2589829 155.7659
v 209.839 -0.1817879 147.3516
v 209.6226 -0.1469744 143.1089
v 326.2567 4.984226 624.0386
v 322.2925 4.972117 621.6516
v 323.5791 4.972117 620.639
v 324.9853 4.984226 625.0709
v 329.066 4.994822 627.3913
v 327.8097 4.994822 628.4433
v 331.8753 5.006931 630.7455
v 330.6205 5.006931 631.7975
v 334.6861 5.01904 634.0982
v 333.4298 5.01904 635.1502
v 337.4969 5.031149 637.4494
v 336.2406 5.031149 638.5029
v 340.3077 5.043258 640.8005
v 339.0726 5.043258 641.8782
v 343.2714 5.055367 644.0715
v 342.0696 5.055367 645.1855
v 346.3229 5.067476 647.2971
v 345.1332 5.067476 648.4232
v 349.3759 5.079585 650.5196
v 348.1877 5.079585 651.6457
v 352.4304 5.091694 653.7405
v 351.2422 5.091694 654.8682
v 355.4879 5.103803 656.9601
v 354.3224 5.103803 658.1119
v 358.7014 5.115912 660.0766
v 357.5949 5.115912 661.2845
v 362.1328 5.129535 663.0509
v 361.0596 5.129535 664.2891
v 365.5672 5.143157 666.0206
v 364.497 5.143157 667.2603
v 369.0077 5.155266 668.9843
v 367.9375 5.155266 670.227
v 372.4496 5.168889 671.945
v 371.4325 5.168889 673.2285
v 376.1777 5.182512 674.665
v 375.2589 5.182512 676.0212
v 380.1646 5.196135 677.1655
v 379.2958 5.196135 678.555
v 384.1591 5.211271 679.6509
v 383.2963 5.211271 681.0434
v 388.1642 5.224894 682.1211
v 387.3135 5.224894 683.5212
v 392.2025 5.238516 684.5429
v 391.5093 5.238516 686.0262
v 396.863 5.255166 686.1564
v 396.3347 5.255166 687.7064
v 401.5401 5.270302 687.7306
v 401.0239 5.270302 689.2851
v 406.2293 5.285439 689.2639
v 405.7283 5.285439 690.8229
v 410.9291 5.300575 690.7534
v 410.6461 5.300575 692.3669
v 415.9967 5.317225 690.9667
v 415.9574 5.317225 692.6045
v 421.1022 5.332361 691.0001
v 421.1022 5.332361 692.6378
v 426.2077 5.349011 690.9637
v 426.2304 5.349011 692.603

vn -0.002644896 0.9999965 0
vn -0.001171706 0.9999993 0
vn -0.001171706 0.9999993 0
vn 0.000301491 1 0
vn -0.001171706 0.9999993 0
vn 0.00324787 0.9999948 0
vn 0.00324787 0.9999948 0
vn 0.00324787 0.9999948 0
vn 0.00324787 0.9999948 0
vn 0.004721033 0.9999889 0
vn 0.00324787 0.9999948 0
vn 0.01208619 0.9999269 0
vn 0.007667257 0.9999707 0
vn 0.009140299 0.9999583 0
vn 0.01061328 0.9999437 0
vn 0.009140299 0.9999583 0
vn 0.009140299 0.9999583 0
vn 0.01503177 0.999887 0
vn 0.01208619 0.9999269 0
vn 0.01650442 0.9998637 0
vn 0.01650442 0.9998637 0
vn 0.01355903 0.9999081 0
vn 0.01503177 0.999887 0
vn 0.01503177 0.999887 0
vn 0.01503177 0.999887 0
vn 0.02533772 0.999679 0
vn 0.01944939 0.9998109 0
vn 0.02533772 0.999679 0
vn 0.02533772 0.999679 0
vn 0.02533772 0.999679 0
vn 0.02533772 0.999679 0
vn 0.03271185 0.9985268 0.04329144
vn 0.02829225 0.9985268 0.04630119
vn 0.02976545 0.9985268 0.04536813
vn 0.03123865 0.9985268 0.04436647
vn 0.03271185 0.9985268 0.04329144
vn 0.03123865 0.9985268 0.04436647
vn 0.03271185 0.9985268 0.04329144
vn 0.03271185 0.9985268 0.04329144
vn 0.03418505 0.9985268 0.04213813
vn 0.03271185 0.9985268 0.04329144
vn 0.03418505 0.9985268 0.04213813
vn 0.03418505 0.9985268 0.04213813
vn 0.03123865 0.9985268 0.04436647
vn 0.03271185 0.9985268 0.04329144
vn 0.03123865 0.9985268 0.04436647
vn 0.03123865 0.9985268 0.04436647
vn 0.02976545 0.9985268 0.04536813
vn 0.02976545 0.9985268 0.04536813
vn 0.02829225 0.9985268 0.04630119
vn 0.02829225 0.9985268 0.04630119
vn 0.02534586 0.9985268 0.04797721
vn 0.02681906 0.9985268 0.04716971
vn 0.02387266 0.9985268 0.04872731
vn 0.02387266 0.9985268 0.04872731
vn 0.02387266 0.9985268 0.04872731
vn 0.02092626 0.9985268 0.05006312
vn 0.01945307 0.9985268 0.05065374
vn 0.01797987 0.9985268 0.05119507
vn 0.01797987 0.9985268 0.05119507
vn 0.01650667 0.9985268 0.05168924
vn 0.01503347 0.9985268 0.05213646
vn 0.01356027 0.9985268 0.05253904
vn 0.01208708 0.9985268 0.05289745
vn 0.01208708 0.9985268 0.05289745
vn 0.01061388 0.9985268 0.05321258
vn 0.00914068 0.9985268 0.05348519
vn 0.00914068 0.9985268 0.05348519
vn 0.007667481 0.9985268 0.05371648
vn 0.007667481 0.9985268 0.05371648
vn 0.006194283 0.9985268 0.0539059
vn 0.004721033 0.9999889 0
vn 0.004721033 0.9999889 0
vn 0.004721033 0.9999889 0
vn 0.00324787 0.9999948 0
vn 0.00324787 0.9999948 0
vn 0.001774686 0.9999985 0
vn 0.001774686 0.9999985 0
vn 0.001774686 0.9999985 0
vn 0.001774686 0.9999985 0
vn 0.001774686 0.9999985 0
vn 0.000301491 1 0
vn 0.000301491 1 0
vn 0.000301491 1 0
vn 0.000301491 1 0
vn 0.000301491 1 0
vn 0.000301491 1 0
vn 0.000301491 1 0
vn -0.001171706 0.9999993 0
vn -0.001171706 0.9999993 0
vn -0.001171706 0.9999993 0
vn -0.001171706 0.9999993 0
vn -0.001171706 0.9999993 0
vn -0.001171706 0.9999993 0
vn -0.001171706 0.9999993 0
vn -0.001171706 0.9999993 0
vn -0.001171706 0.9999993 0
vn -0.001171706 0.9999993 0
vn -0.001171706 0.9999993 0
vn -0.001171706 0.9999993 0
vn -0.001171706 0.9999993 0
vn -0.001171706 0.9999993 0
vn -0.001171706 0.9999993 0
vn -0.001171706 0.9999993 0
vn -0.001171706 0.9999993 0
vn -0.001171706 0.9999993 0
vn -0.001171706 0.9999993 0
vn -0.001171706 0.9999993 0
vn -0.001171706 0.9999993 0
vn -0.001171706 0.9999993 0
vn -0.002644896 0.9999965 0
vn -0.001171706 0.9999993 0
vn -0.002644896 0.9999965 0
vn -0.002644896 0.9999965 0
vn -0.002644896 0.9999965 0
vn -0.002644896 0.9999965 0
vn -0.002644896 0.9999965 0
vn -0.002644896 0.9999965 0
vn -0.002644896 0.9999965 0
vn -0.002644896 0.9999965 0
vn -0.002644896 0.9999965 0
vn -0.002644896 0.9999965 0
vn -0.002644896 0.9999965 0
vn -0.002644896 0.9999965 0
vn -0.002644896 0.9999965 0
vn -0.002644896 0.9999965 0
vn -0.002644896 0.9999965 0
vn -0.002644896 0.9999965 0
vn -0.002644896 0.9999965 0
vn -0.002644896 0.9999965 0
vn -0.002644896 0.9999965 0
vn -0.002644896 0.9999965 0
vn -0.002644896 0.9999965 0
vn -0.002644896 0.9999965 0
vn -0.002644896 0.9999965 0
vn -0.002644896 0.9999965 0
vn -0.002644896 0.9999965 0
vn -0.002644896 0.9999965 0
vn -0.002644896 0.9999965 0
vn -0.002644896 0.9999965 0
vn -0.002644896 0.9999965 0
vn -0.002644896 0.9999965 0
vn -0.002644896 0.9999965 0
vn -0.002644896 0.9999965 0
vn -0.002644896 0.9999965 0
vn -0.002644896 0.9999965 0

vt 0.1540064 0.4227984
vt 0.16329 0.4159867
vt 0.1427636 0.4074207
vt 0.1650556 0.4379712
vt 0.1741456 0.430886
vt 0.176663 0.4519593
vt 0.1852518 0.4443045
vt 0.1892728 0.4650816
vt 0.1975882 0.4571307
vt 0.2020078 0.4784774
vt 0.2103574 0.470572
vt 0.2141848 0.4914402
vt 0.2218395 0.4828515
vt 0.2280817 0.5017604
vt 0.2349391 0.492511
vt 0.2425938 0.5124452
vt 0.2494511 0.5031957
vt 0.2568097 0.5230615
vt 0.2633253 0.5135614
vt 0.2712989 0.5322426
vt 0.2767438 0.5221046
vt 0.2874741 0.5395328
vt 0.2922583 0.5290759
vt 0.3041276 0.5471647
vt 0.3089574 0.5367078
vt 0.3203711 0.5547283
vt 0.3247224 0.5440664
vt 0.3370474 0.5606288
vt 0.3405558 0.5496707
vt 0.3544984 0.5656408
vt 0.3577106 0.5545916
vt 0.3717898 0.5707212
vt 0.3745236 0.559558
vt 0.3898103 0.5742979
vt 0.3920429 0.5629981
vt 0.4080358 0.5778747
vt 0.4100178 0.5665293
vt 0.4261246 0.5806541
vt 0.4275599 0.5692403
vt 0.444464 0.5824766
vt 0.4456031 0.5710173
vt 0.4626212 0.5842992
vt 0.4631907 0.5727943
vt 0.4808467 0.5843447
vt 0.480915 0.5728399
vt 0.4991861 0.5844586
vt 0.4988899 0.5729538
vt 0.5173888 0.5834107
vt 0.5165687 0.5719286
vt 0.5357282 0.581816
vt 0.5345436 0.5703794
vt 0.5539082 0.5796517
vt 0.5522223 0.5682607
vt 0.5721564 0.5764394
vt 0.5701289 0.5651168
vt 0.5902908 0.5731589
vt 0.5878076 0.5619274
vt 0.6083341 0.5684885
vt 0.6054636 0.5573482
vt 0.6264457 0.563841
vt 0.6232562 0.5527691
vt 0.6443522 0.5581228
vt 0.6407983 0.5471875
vt 0.6623499 0.5521312
vt 0.6585453 0.5412642
vt 0.6801881 0.5456383
vt 0.6760418 0.5348853
vt 0.6980035 0.538462
vt 0.693675 0.5278001
vt 0.7157506 0.531263
vt 0.7111714 0.5207149
vt 0.7333382 0.5231526
vt 0.7285312 0.5126957
vt 0.751017 0.5150195
vt 0.7460733 0.5046309
vt 0.7685363 0.5063851
vt 0.7633876 0.4960877
vt 0.7860783 0.4974546
vt 0.7808157 0.4872028
vt 0.803552 0.4884558
vt 0.7981527 0.4782723
vt 0.8210029 0.4788646
vt 0.8154669 0.4687723
vt 0.8385222 0.4692507
vt 0.8247392 0.4856764
vt 0.8071971 0.4953132
vt 0.8422812 0.4760625
vt 0.8598916 0.4662435
vt 0.7806334 0.8617369
vt 0.8045772 0.8670679
vt 0.8033469 0.8584791
vt 0.7817497 0.8703485
vt 0.757601 0.8643568
vt 0.7585806 0.8729911
vt 0.7345685 0.866954
vt 0.7355481 0.8755883
vt 0.711536 0.8695511
vt 0.7125156 0.8781855
vt 0.6885035 0.8721482
vt 0.6894831 0.8807825
vt 0.665471 0.8747454
vt 0.6662684 0.8833797
vt 0.6421424 0.876454
vt 0.6426891 0.8851111
vt 0.6186543 0.8776842
vt 0.6191099 0.8863641
vt 0.5951661 0.8788916
vt 0.595599 0.8875716
vt 0.571678 0.8800991
vt 0.5721109 0.888779
vt 0.5481671 0.8812838
vt 0.5484405 0.8899637
vt 0.5244512 0.8814888
vt 0.5242917 0.8901687
vt 0.5004163 0.8803725
vt 0.5000062 0.8890524
vt 0.4763814 0.8792106
vt 0.4759713 0.8878905
vt 0.4523465 0.8780259
vt 0.4519137 0.8867059
vt 0.4283344 0.8767957
vt 0.4275371 0.8854529
vt 0.4040717 0.873629
vt 0.4026365 0.8821722
vt 0.3796495 0.8686626
vt 0.3778954 0.8771603
vt 0.3552274 0.8635823
vt 0.3534504 0.8720799
vt 0.330828 0.8584335
vt 0.3289827 0.8669312
vt 0.3064969 0.8529887
vt 0.3037403 0.8612129
vt 0.2827127 0.8421445
vt 0.2790675 0.850027
vt 0.2589967 0.8310953
vt 0.2553061 0.838955
vt 0.2354175 0.819841
vt 0.2316357 0.8276552
vt 0.2119294 0.8083817
vt 0.2071338 0.8156264
vt 0.1917104 0.7906802
vt 0.1858783 0.7971047
vt 0.1719927 0.7721586
vt 0.1660125 0.7784464
vt 0.152537 0.7533635
vt 0.1464656 0.7595602

g Road_Dirt.006_115_2
usemtl Road_Dirt.006_115_2
usemap Road_Dirt.006_115_2
f 1/1/1 3/3/3 2/2/2
f 4/4/4 1/1/1 2/2/2
f 4/4/4 2/2/2 5/5/5
f 6/6/6 4/4/4 5/5/5
f 6/6/6 5/5/5 7/7/7
f 8/8/8 6/6/6 7/7/7
f 8/8/8 7/7/7 9/9/9
f 10/10/10 8/8/8 9/9/9
f 10/10/10 9/9/9 11/11/11
f 12/12/12 10/10/10 11/11/11
f 12/12/12 11/11/11 13/13/13
f 14/14/14 12/12/12 13/13/13
f 14/14/14 13/13/13 15/15/15
f 16/16/16 14/14/14 15/15/15
f 16/16/16 15/15/15 17/17/17
f 18/18/18 16/16/16 17/17/17
f 18/18/18 17/17/17 19/19/19
f 20/20/20 18/18/18 19/19/19
f 20/20/20 19/19/19 21/21/21
f 22/22/22 20/20/20 21/21/21
f 22/22/22 21/21/21 23/23/23
f 24/24/24 22/22/22 23/23/23
f 24/24/24 23/23/23 25/25/25
f 26/26/26 24/24/24 25/25/25
f 26/26/26 25/25/25 27/27/27
f 28/28/28 26/26/26 27/27/27
f 28/28/28 27/27/27 29/29/29
f 30/30/30 28/28/28 29/29/29
f 30/30/30 29/29/29 31/31/31
f 32/32/32 30/30/30 31/31/31
f 32/32/32 31/31/31 33/33/33
f 34/34/34 32/32/32 33/33/33
f 34/34/34 33/33/33 35/35/35
f 36/36/36 34/34/34 35/35/35
f 36/36/36 35/35/35 37/37/37
f 38/38/38 36/36/36 37/37/37
f 38/38/38 37/37/37 39/39/39
f 40/40/40 38/38/38 39/39/39
f 40/40/40 39/39/39 41/41/41
f 42/42/42 40/40/40 41/41/41
f 42/42/42 41/41/41 43/43/43
f 44/44/44 42/42/42 43/43/43
f 44/44/44 43/43/43 45/45/45
f 46/46/46 44/44/44 45/45/45
f 46/46/46 45/45/45 47/47/47
f 48/48/48 46/46/46 47/47/47
f 48/48/48 47/47/47 49/49/49
f 50/50/50 48/48/48 49/49/49
f 50/50/50 49/49/49 51/51/51
f 52/52/52 50/50/50 51/51/51
f 52/52/52 51/51/51 53/53/53
f 54/54/54 52/52/52 53/53/53
f 54/54/54 53/53/53 55/55/55
f 56/56/56 54/54/54 55/55/55
f 56/56/56 55/55/55 57/57/57
f 58/58/58 56/56/56 57/57/57
f 58/58/58 57/57/57 59/59/59
f 60/60/60 58/58/58 59/59/59
f 60/60/60 59/59/59 61/61/61
f 62/62/62 60/60/60 61/61/61
f 62/62/62 61/61/61 63/63/63
f 64/64/64 62/62/62 63/63/63
f 64/64/64 63/63/63 65/65/65
f 66/66/66 64/64/64 65/65/65
f 66/66/66 65/65/65 67/67/67
f 68/68/68 66/66/66 67/67/67
f 68/68/68 67/67/67 69/69/69
f 70/70/70 68/68/68 69/69/69
f 70/70/70 69/69/69 71/71/71
f 72/72/72 70/70/70 71/71/71
f 72/72/72 71/71/71 73/73/73
f 74/74/74 72/72/72 73/73/73
f 74/74/74 73/73/73 75/75/75
f 76/76/76 74/74/74 75/75/75
f 76/76/76 75/75/75 77/77/77
f 78/78/78 76/76/76 77/77/77
f 78/78/78 77/77/77 79/79/79
f 80/80/80 78/78/78 79/79/79
f 80/80/80 79/79/79 81/81/81
f 82/82/82 80/80/80 81/81/81
f 82/82/82 81/81/81 83/83/83
f 84/84/84 82/82/82 83/83/83
f 85/85/85 80/80/80 82/82/82
f 85/85/85 86/86/86 80/80/80
f 87/87/87 85/85/85 82/82/82
f 87/87/87 82/82/82 84/84/84
f 88/88/88 87/87/87 84/84/84
f 89/89/89 91/91/91 90/90/90
f 89/89/89 90/90/90 92/92/92
f 93/93/93 89/89/89 92/92/92
f 93/93/93 92/92/92 94/94/94
f 95/95/95 93/93/93 94/94/94
f 95/95/95 94/94/94 96/96/96
f 97/97/97 95/95/95 96/96/96
f 97/97/97 96/96/96 98/98/98
f 99/99/99 97/97/97 98/98/98
f 99/99/99 98/98/98 100/100/100
f 101/101/101 99/99/99 100/100/100
f 101/101/101 100/100/100 102/102/102
f 103/103/103 101/101/101 102/102/102
f 103/103/103 102/102/102 104/104/104
f 105/105/105 103/103/103 104/104/104
f 105/105/105 104/104/104 106/106/106
f 107/107/107 105/105/105 106/106/106
f 107/107/107 106/106/106 108/108/108
f 109/109/109 107/107/107 108/108/108
f 109/109/109 108/108/108 110/110/110
f 111/111/111 109/109/109 110/110/110
f 111/111/111 110/110/110 112/112/112
f 113/113/113 111/111/111 112/112/112
f 113/113/113 112/112/112 114/114/114
f 115/115/115 113/113/113 114/114/114
f 115/115/115 114/114/114 116/116/116
f 117/117/117 115/115/115 116/116/116
f 117/117/117 116/116/116 118/118/118
f 119/119/119 117/117/117 118/118/118
f 119/119/119 118/118/118 120/120/120
f 121/121/121 119/119/119 120/120/120
f 121/121/121 120/120/120 122/122/122
f 123/123/123 121/121/121 122/122/122
f 123/123/123 122/122/122 124/124/124
f 125/125/125 123/123/123 124/124/124
f 125/125/125 124/124/124 126/126/126
f 127/127/127 125/125/125 126/126/126
f 127/127/127 126/126/126 128/128/128
f 129/129/129 127/127/127 128/128/128
f 129/129/129 128/128/128 130/130/130
f 131/131/131 129/129/129 130/130/130
f 131/131/131 130/130/130 132/132/132
f 133/133/133 131/131/131 132/132/132
f 133/133/133 132/132/132 134/134/134
f 135/135/135 133/133/133 134/134/134
f 135/135/135 134/134/134 136/136/136
f 137/137/137 135/135/135 136/136/136
f 137/137/137 136/136/136 138/138/138
f 139/139/139 137/137/137 138/138/138
f 139/139/139 138/138/138 140/140/140
f 141/141/141 139/139/139 140/140/140
f 141/141/141 140/140/140 142/142/142
f 143/143/143 141/141/141 142/142/142
f 143/143/143 142/142/142 144/144/144
f 145/145/145 143/143/143 144/144/144
f 145/145/145 144/144/144 146/146/146
