#Road_Dirt_93_9.obj

v 83.99109 0.8648215 198.179
v 97.52934 0.8699769 191.9285
v 97.52934 0.8555416 212.2452
v 75.31856 0.8751324 184.3985
v 68.4092 0.8875055 170.0302
v 97.52934 0.8936921 163.0435
v 63.43314 0.9009097 154.7762
v 59.7408 0.9132829 138.6138
v 97.52934 0.9184383 130.8826
v 56.52585 0.9235938 121.8719
v 53.27068 0.9318426 105.0506
v 97.52934 0.9174072 97.40921
v 50.32176 0.9029719 88.48715
v 48.2008 0.8008937 71.7226
v 97.52934 0.7483079 63.89351
v 46.2809 0.6957221 54.78483
v 44.59816 0.5895195 37.83571
v 97.52934 0.5359026 29.99425
v 43.1804 0.4822857 20.87319
v 42.03589 0.3740209 3.896237
v 97.52934 0.3214352 -3.959665
v 41.16874 0.2678183 -13.09619
v 40.59236 0.1616156 -30.10201
v 97.52934 0.110061 -37.97132
v 40.28716 0.05747519 -47.12124
v 40.20776 -0.008514802 -63.17846
v 97.52934 -0.03016777 -70.94363
v 40.20054 -0.05182073 -79.98941
v 40.2789 -0.1023443 -97.09422
v 97.52934 -0.1270906 -104.9831
v 40.4944 -0.1518368 -114.1516
v 40.96768 -0.2013293 -131.1461
v 97.52934 -0.2250445 -138.9638
v 41.83483 -0.2497907 -148.0612
v 43.09895 -0.2982521 -164.8948
v 97.52934 -0.3229983 -172.6095
v 44.92707 -0.3467135 -181.6037
v 47.52749 -0.3972371 -198.1084
v 97.52934 -0.4219833 -205.5931
v 50.91257 -0.4477607 -214.3584
v 55.26894 -0.4993154 -230.2414
v 97.52934 -0.5261238 -237.2497
v 60.89459 -0.5529322 -245.5366
v 67.97099 -0.6086113 -259.974
v 97.52934 -0.6364508 -265.975
v 76.60536 -0.6653214 -273.2555
v 87.97214 -0.7230626 -284.6099
v 100.5422 -0.7797728 -294.3393

vn 0.000316454 1 0
vn 0.000316454 1 0
vn 0.000316454 1 0
vn 0.000316454 1 0
vn 0.000316454 1 0
vn 0.000316454 1 0
vn 0.000316454 1 0
vn 0.000316454 1 0
vn 0.000316454 1 0
vn 0.000316454 1 0
vn 0.000316454 1 0
vn 0.000316454 1 0
vn 0.000316454 1 0
vn 0.000316454 1 0
vn 0.000316454 1 0
vn 0.000316454 1 0
vn 0.000316454 1 0
vn 0.000316454 1 0
vn 0.000316454 1 0
vn 0.000316454 1 0
vn 0.000316454 1 0
vn 0.000316454 1 0
vn 0.000316454 1 0
vn -0.0006960119 0.9999998 0
vn -0.0006960119 0.9999998 0
vn 0.000316454 1 0
vn -0.0006960119 0.9999998 0
vn 0.000316454 1 0
vn 0.000316454 1 0
vn 0.000316454 1 0
vn 0.000316454 1 0
vn 0.000316454 1 0
vn 0.000316454 1 0
vn 0.000316454 1 0
vn 0.000316454 1 0
vn 0.000316454 1 0
vn 0.000316454 1 0
vn 0.000316454 1 0
vn 0.000316454 1 0
vn 0.000316454 1 0
vn 0.000316454 1 0
vn 0.000316454 1 0
vn 0.000316454 1 0
vn 0.000316454 1 0
vn 0.000316454 1 0
vn 0.000316454 1 0
vn 0.000316454 1 0
vn 0.000316454 1 0

vt 28.86026 -81.57212
vt 31.82648 -80.41308
vt 31.56575 -84.74407
vt 27.18796 -78.5239
vt 25.89887 -75.37316
vt 32.19503 -74.2556
vt 25.03287 -72.05834
vt 24.452 -68.56634
vt 32.60492 -67.40025
vt 23.98019 -64.95708
vt 23.50076 -61.33059
vt 33.03121 -60.26546
vt 23.08328 -57.76277
vt 22.84457 -54.16253
vt 33.45781 -53.12184
vt 22.6511 -50.52827
vt 22.50802 -46.89439
vt 33.88915 -45.8965
vt 22.42173 -43.26096
vt 22.39378 -39.6279
vt 34.32113 -38.65932
vt 22.42507 -35.99533
vt 22.51849 -32.36332
vt 34.75372 -31.41002
vt 22.66986 -28.73209
vt 22.85691 -25.3087
vt 35.17299 -24.38228
vt 23.06922 -21.72561
vt 23.30326 -18.08098
vt 35.60583 -17.12711
vt 23.56586 -14.44815
vt 23.88266 -10.83202
vt 36.03781 -9.884189
vt 24.28251 -7.237668
vt 24.76571 -3.665919
vt 36.46529 -2.712641
vt 25.36745 -0.1277726
vt 26.13112 3.357146
vt 36.8839 4.317978
vt 27.05872 6.777609
vt 28.18876 10.10786
vt 37.28511 11.06518
vt 29.58185 13.29643
vt 31.27321 16.2837
vt 37.64939 17.18782
vt 33.28213 19.00513
vt 35.84882 21.28091
vt 38.65133 23.19501

g Road_Dirt_93_9
usemtl Road_Dirt_93_9
usemap Road_Dirt_93_9
f 1/1/1 3/3/3 2/2/2
f 4/4/4 1/1/1 2/2/2
f 5/5/5 4/4/4 2/2/2
f 5/5/5 2/2/2 6/6/6
f 7/7/7 5/5/5 6/6/6
f 8/8/8 7/7/7 6/6/6
f 8/8/8 6/6/6 9/9/9
f 10/10/10 8/8/8 9/9/9
f 11/11/11 10/10/10 9/9/9
f 11/11/11 9/9/9 12/12/12
f 13/13/13 11/11/11 12/12/12
f 14/14/14 13/13/13 12/12/12
f 14/14/14 12/12/12 15/15/15
f 16/16/16 14/14/14 15/15/15
f 17/17/17 16/16/16 15/15/15
f 17/17/17 15/15/15 18/18/18
f 19/19/19 17/17/17 18/18/18
f 20/20/20 19/19/19 18/18/18
f 20/20/20 18/18/18 21/21/21
f 22/22/22 20/20/20 21/21/21
f 23/23/23 22/22/22 21/21/21
f 23/23/23 21/21/21 24/24/24
f 25/25/25 23/23/23 24/24/24
f 26/26/26 25/25/25 24/24/24
f 26/26/26 24/24/24 27/27/27
f 28/28/28 26/26/26 27/27/27
f 29/29/29 28/28/28 27/27/27
f 29/29/29 27/27/27 30/30/30
f 31/31/31 29/29/29 30/30/30
f 32/32/32 31/31/31 30/30/30
f 32/32/32 30/30/30 33/33/33
f 34/34/34 32/32/32 33/33/33
f 35/35/35 34/34/34 33/33/33
f 35/35/35 33/33/33 36/36/36
f 37/37/37 35/35/35 36/36/36
f 38/38/38 37/37/37 36/36/36
f 38/38/38 36/36/36 39/39/39
f 40/40/40 38/38/38 39/39/39
f 41/41/41 40/40/40 39/39/39
f 41/41/41 39/39/39 42/42/42
f 43/43/43 41/41/41 42/42/42
f 44/44/44 43/43/43 42/42/42
f 44/44/44 42/42/42 45/45/45
f 46/46/46 44/44/44 45/45/45
f 47/47/47 46/46/46 45/45/45
f 47/47/47 45/45/45 48/48/48
