#Tree_Nor_5.001_300_46.obj

v -376.0094 7.231653 -116.6483
v -383.8319 13.61334 -195.9191
v -383.8319 7.35253 -195.9191
v -376.0094 13.49138 -116.6483
v -391.3317 14.88039 -36.86382
v -391.3317 8.619586 -36.86382
v -417.2297 16.25969 2.562759
v -417.2297 9.998884 2.562759
v -451.9183 17.49868 39.34189
v -451.9183 11.23788 39.34189
v -553.4543 20.54005 88.25951
v -553.4543 14.28032 88.25951
v -383.8319 13.61334 -195.9191
v -361.4178 7.003929 -259.7489
v -383.8319 7.35253 -195.9191
v -361.4178 13.26474 -259.7489
v -344.3115 5.382875 -322.6279
v -344.3115 11.64368 -322.6279
v -291.0185 2.355542 -361.3195
v -291.0185 8.615269 -361.3195
v -252.0765 -0.4365123 -412.7334
v -252.0765 5.824294 -412.7334
v -203.5259 -0.5940847 -444.0839
v -203.5259 5.665642 -444.0839
v -107.4779 -1.012839 -483.9454
v -107.4779 5.247967 -483.9454
v -1.21476 -7.447406 -521.5998
v -1.21476 -1.1866 -521.5998
v -1.21476 -1.1866 -521.5998
v 63.66191 -7.622247 -511.2119
v -1.21476 -7.447406 -521.5998
v 63.66191 -1.36252 -511.2119
v 138.8164 -7.660021 -511.5475
v 138.8164 -1.399215 -511.5475
v 187.2484 -7.510004 -462.0698
v 187.2484 -1.249197 -462.0698
v 204.1615 -7.277962 -426.5782
v 204.1615 -1.018235 -426.5782
v 222.2176 -0.7775595 -413.9282
v 222.2176 5.482167 -413.9282
v 287.7429 1.416583 -370.3044
v 287.7429 7.677389 -370.3044
v 330.7137 3.299897 -352.3044
v 330.7137 9.559624 -352.3044
v 399.2664 9.023231 -287.2777
v 399.2664 15.28296 -287.2777
v 409.7525 13.63168 -282.3725
v 409.7525 7.371957 -282.3725
v -1.21476 -7.447406 -521.5998
v -1.21476 -1.1866 -521.5998
v 67.7998 -1.385185 -461.5528
v 67.7998 -7.645991 -461.5528
v 111.524 -1.398136 -432.0879
v 111.524 -7.657863 -432.0879
v 205.2915 -1.023632 -403.7572
v 205.2915 -7.284438 -403.7572
v 221.4049 -1.073278 -404.5569
v 221.4049 5.187529 -404.5569
v 242.6361 -0.8347604 -421.2499
v 242.6361 5.426046 -421.2499
v 511.5529 5.530734 -258.2153
v 570.5261 11.79802 -251.0253
v 570.5261 5.53721 -251.0253
v 511.5529 11.79154 -258.2153
v 474.3507 5.502674 -267.1991
v 474.3507 11.7624 -267.1991
v 409.7525 13.63168 -282.3725
v 409.7525 7.371957 -282.3725
v 578.2341 5.612758 -225.9173
v 578.2341 11.87249 -225.9173
v 531.5117 11.86925 -206.2552
v 531.5117 5.608441 -206.2552
v 517.3993 11.86385 -177.3224
v 517.3993 5.604124 -177.3224
v 504.119 5.59549 -99.41791
v 504.119 11.8563 -99.41791
v 490.3681 4.392111 -30.90088
v 490.3681 10.65292 -30.90088
v 550.9029 2.224951 23.83289
v 550.9029 8.485757 23.83289
v 325.9434 4.949011 -214.3314
v 328.9049 6.443791 -185.8604
v 328.9049 12.7046 -185.8604
v 325.9434 11.20982 -214.3314
v 294.702 1.925995 -254.1875
v 294.702 8.186801 -254.1875
v 248.0681 -1.161777 -275.4662
v 248.0681 5.09795 -275.4662
v 208.5908 -3.28145 -270.9107
v 208.5908 2.979356 -270.9107
v 102.8467 -4.108166 -268.7068
v 102.8467 2.15264 -268.7068
v 96.54491 -4.537713 -291.7858
v 96.54491 1.722014 -291.7858
v 38.73741 -4.435183 -321.6328
v 38.73741 1.825624 -321.6328
v 6.635803 -3.701284 -366.9608
v 6.635803 2.559523 -366.9608
v -57.6721 -2.003603 -363.2093
v -57.6721 4.256124 -363.2093
v -116.3948 -1.076515 -323.6122
v -116.3948 5.184291 -323.6122
v -149.8703 -0.05337381 -287.3846
v -149.8703 6.207432 -287.3846
v -186.8513 2.564919 -238.0644
v -186.8513 8.824646 -238.0644
v -251.2606 5.531814 -210.8767
v -251.2606 11.79154 -210.8767
v -268.8246 5.603045 -175.2804
v -268.8246 11.86277 -175.2804
v -256.3386 11.86061 -137.0907
v -256.3386 5.599807 -137.0907
v -208.9265 5.514545 -108.5679
v -208.9265 11.77427 -108.5679
v -146.1436 4.86375 -85.1058
v -146.1436 11.12456 -85.1058
v -73.93552 1.532064 -75.8986
v -73.93552 7.792871 -75.8986
v 27.33175 -1.119686 -91.9494
v 27.33175 5.14112 -91.9494
v 62.1272 -1.074357 -97.52488
v 62.1272 5.18537 -97.52488
v 155.4975 -0.8347604 -124.9749
v 155.4975 5.424966 -124.9749
v 281.74 4.709415 -137.3238
v 281.74 10.96914 -137.3238
v 315.2662 5.413095 -145.5445
v 315.2662 11.67282 -145.5445

vn 0.9989893 0.0002223899 0.04494852
vn 0.7042999 0.7066963 -0.06739431
vn 0.7042999 0.7066963 -0.06739431
vn 0.9989893 0.0002223899 0.04494852
vn 0.9248291 0.0002223899 0.3803829
vn 0.9267806 0.0002223899 0.375603
vn 0.7843149 0.0002223899 0.6203628
vn 0.7862665 0.0002223899 0.6178874
vn 0.5872048 0.0002223899 0.8094383
vn 0.5930595 0.0002223899 0.8051586
vn 0.4349811 0.0002223899 0.9004395
vn 0.4349811 0.0002223899 0.9004395
vn 0.6652682 0.7086478 0.2350244
vn 0.9541028 0.0002223899 0.2994792
vn 0.6691714 0.7066963 0.2297607
vn 0.9541028 0.0002223899 0.2994792
vn 0.8174918 0.0002223899 0.5759401
vn 0.8272498 0.0002223899 0.5618343
vn 0.7023483 0.0002223899 0.7118334
vn 0.6964936 0.0002223899 0.717563
vn 0.6789293 0.0002223899 0.7342036
vn 0.6828325 0.0002223899 0.730575
vn 0.4642549 0.0002223899 0.8857016
vn 0.4642549 0.0002223899 0.8857016
vn 0.3588693 0.0002223899 0.9333878
vn 0.3588693 0.0002223899 0.9333878
vn 0.3334987 0.0002223899 0.9427505
vn 0.3334987 0.0002223899 0.9427505
vn -0.1583008 0.0002223899 0.9873909
vn -0.07633422 0.0002223899 0.9970823
vn -0.1583008 0.0002223899 0.9873909
vn -0.07633422 0.0002223899 0.9970823
vn -0.3846847 0.0002223899 0.923048
vn -0.3866363 0.0002223899 0.9222323
vn -0.8198882 0.0002223899 0.5725235
vn -0.8198882 0.0002223899 0.5725235
vn -0.7808565 0.0002223899 0.6247104
vn -0.7496312 0.0002223899 0.6618558
vn -0.5642306 0.0002223899 0.8256172
vn -0.562279 0.0002223899 0.8269476
vn -0.4744576 0.0002223899 0.8802783
vn -0.4705544 0.0002223899 0.8823709
vn -0.5408115 0.0002223899 0.8411437
vn -0.5505694 0.0002223899 0.8347893
vn -0.5603274 0.0002223899 0.8282712
vn -0.5661821 0.0002223899 0.8242801
vn -0.3339435 0.0002223899 0.942593
vn -0.322234 0.0002223899 0.94666
vn -0.6559551 0.0002223899 0.7547999
vn -0.6559551 0.0002223899 0.7547999
vn -0.609117 0.0002223899 0.7930803
vn -0.609117 0.0002223899 0.7930803
vn -0.4295712 0.0002223899 0.903033
vn -0.4295712 0.0002223899 0.903033
vn -0.1036564 0.0002223899 0.9946132
vn -0.1446397 0.0002223899 0.9894844
vn 0.317886 0.0002223899 0.9481289
vn 0.3900947 0.0002223899 0.9207747
vn 0.6184301 0.0002223899 0.7858397
vn 0.6184301 0.0002223899 0.7858397
vn -0.1778167 0.0002223899 0.9840636
vn -0.1212207 0.0002223899 0.9926255
vn -0.1212207 0.0002223899 0.9926255
vn -0.1778167 0.0002223899 0.9840636
vn -0.232461 0.0002223899 0.9726057
vn -0.232461 0.0002223899 0.9726057
vn -0.3339435 0.0002223899 0.942593
vn -0.322234 0.0002223899 0.94666
vn -0.3885879 0.0002223899 -0.9214116
vn -0.3885879 0.0002223899 -0.9214116
vn -0.6871804 0.0002223899 -0.7264868
vn -0.6871804 0.0002223899 -0.7264868
vn -0.952596 0.0002223899 -0.304238
vn -0.952596 0.0002223899 -0.304238
vn -0.9838214 0.0002223899 -0.179152
vn -0.9838214 0.0002223899 -0.179152
vn -0.9467413 0.0002223899 0.3219952
vn -0.952596 0.0002223899 0.304238
vn -0.6715677 0.0002223899 0.7409431
vn -0.6715677 0.0002223899 0.7409431
vn 0.9228774 0.0002223899 -0.3850937
vn 0.9950861 0.0002223899 -0.09901284
vn 0.9950861 0.0002223899 -0.09901284
vn 0.9306838 0.0002223899 -0.3658246
vn 0.6106238 0.0002223899 -0.7919207
vn 0.6262365 0.0002223899 -0.7796331
vn 0.1461465 0.0002223899 -0.9892629
vn 0.1656624 0.0002223899 -0.9861825
vn -0.06657629 0.0002223899 -0.9977813
vn -0.06852788 0.0002223899 -0.9976492
vn 0.6028175 0.0002223899 -0.7978791
vn 0.5930595 0.0002223899 -0.8051586
vn 0.7765086 0.0002223899 -0.6301067
vn 0.7784601 0.0002223899 -0.627694
vn 0.6555102 0.0002223899 -0.7551862
vn 0.6574619 0.0002223899 -0.7534878
vn 0.4388843 0.0002223899 -0.8985435
vn 0.4271748 0.0002223899 -0.904169
vn -0.3163792 0.0002223899 -0.9486328
vn -0.3241856 0.0002223899 -0.9459935
vn -0.6501003 0.0002223899 -0.7598484
vn -0.6520519 0.0002223899 -0.7581744
vn -0.7671954 0.0002223899 -0.6414134
vn -0.769147 0.0002223899 -0.6390719
vn -0.6208265 0.0002223899 -0.7839479
vn -0.609117 0.0002223899 -0.7930803
vn -0.6813257 0.0002223899 -0.7319804
vn -0.689132 0.0002223899 -0.7246358
vn -0.9974825 0.0002223899 -0.07091315
vn -0.9974825 0.0002223899 -0.07091315
vn -0.7828081 0.0002223899 0.6222631
vn -0.7828081 0.0002223899 0.6222631
vn -0.4334743 0.0002223899 0.9011659
vn -0.4354259 0.0002223899 0.9002246
vn -0.2383158 0.0002223899 0.9711877
vn -0.242219 0.0002223899 0.9702216
vn 0.01929346 0.0002223899 0.9998139
vn 0.01148712 0.0002223899 0.999934
vn 0.157856 0.0002223899 0.9874621
vn 0.157856 0.0002223899 0.9874621
vn 0.2203068 0.0002223899 0.9754306
vn 0.2203068 0.0002223899 0.9754306
vn 0.191033 0.0002223899 0.9815836
vn 0.1890814 0.0002223899 0.9819614
vn 0.167614 0.0002223899 0.9858527
vn 0.1695655 0.0002223899 0.9855189
vn 0.237871 0.0002223899 0.9712967
vn 0.237871 0.0002223899 0.9712967

vt 6.284242 0.001112481
vt 7.999462 0.1933558
vt 7.999462 0.001112481
vt 6.284242 0.1933558
vt 4.534588 0.1933558
vt 4.534588 0.001112481
vt 3.518424 0.1933558
vt 3.518424 0.001112481
vt 2.429462 0.1933558
vt 2.429462 0.001112481
vt 0.001704028 0.1933558
vt 0.001704028 0.001112481
vt 0.001026611 0.1948633
vt 1.879342 0.0006449674
vt 0.001026611 0.0006449674
vt 1.879342 0.1948633
vt 3.689105 0.0006449674
vt 3.689105 0.1948633
vt 5.519533 0.0006449674
vt 5.519533 0.1948633
vt 7.311903 0.0006449674
vt 7.311903 0.1948633
vt 8.916474 0.0006449674
vt 8.916474 0.1948633
vt 11.80371 0.0006449674
vt 11.80371 0.1948633
vt 14.93887 0.0006449674
vt 14.93887 0.1948633
vt 13.94187 0.1927261
vt 12.14524 0.001828062
vt 13.94187 0.001828062
vt 12.14524 0.1927261
vt 10.0901 0.001828062
vt 10.0901 0.1927261
vt 8.196838 0.001828062
vt 8.196838 0.1927261
vt 7.387773 0.001828062
vt 7.387773 0.1927261
vt 6.578718 0.001828062
vt 6.578718 0.1927261
vt 4.077208 0.001828062
vt 4.077208 0.1927261
vt 2.635425 0.001828062
vt 2.635425 0.1927261
vt 0.002381445 0.001828062
vt 0.002381445 0.1927261
vt 0.4165981 0.2362812
vt 0.4165981 0.0001679131
vt 7.023991 0.00155137
vt 7.023991 0.1952545
vt 4.781387 0.1952545
vt 4.781387 0.00155137
vt 3.488828 0.1952545
vt 3.488828 0.00155137
vt 1.087499 0.1952545
vt 1.087499 0.00155137
vt 0.6636837 0.00155137
vt 0.6636837 0.1952545
vt 0.001589535 0.00155137
vt 0.001589535 0.1952545
vt 2.547161 0.0003873581
vt 3.992874 0.1927929
vt 3.992874 0.0003873581
vt 2.547161 0.1927929
vt 1.615846 0.0003873581
vt 1.615846 0.1927929
vt 0.0004732278 0.1927929
vt 0.0004732278 0.0003873581
vt 0.0003587348 0.0002156185
vt 0.0003587348 0.1930887
vt 0.9705154 0.1930887
vt 0.9705154 0.0002156185
vt 1.586602 0.1930887
vt 1.586602 0.0002156185
vt 3.099122 0.0002156185
vt 3.099122 0.1930887
vt 4.436782 0.0002156185
vt 4.436782 0.1930887
vt 5.999259 0.0002156185
vt 5.999259 0.1930887
vt 39.20512 0.0001202077
vt 40.01833 0.0001202077
vt 40.01833 0.1934512
vt 39.20512 0.1934512
vt 37.76579 0.0001202077
vt 37.76579 0.1934512
vt 36.30887 0.0001202077
vt 36.30887 0.1934512
vt 35.13748 0.0001202077
vt 35.13748 0.1934512
vt 32.14785 0.0001202077
vt 32.14785 0.1934512
vt 31.46901 0.0001202077
vt 31.46901 0.1934512
vt 29.62323 0.0001202077
vt 29.62323 0.1934512
vt 28.04724 0.0001202077
vt 28.04724 0.1934512
vt 26.21901 0.0001202077
vt 26.21901 0.1934512
vt 24.20942 0.0001202077
vt 24.20942 0.1934512
vt 22.95923 0.0001202077
vt 22.95923 0.1934512
vt 20.62818 0.0001202077
vt 20.62818 0.1934512
vt 19.05768 0.0001202077
vt 19.05768 0.1934512
vt 17.93152 0.0001202077
vt 17.93152 0.1934512
vt 16.79161 0.1934512
vt 16.79161 0.0001202077
vt 15.22182 0.0001202077
vt 15.22182 0.1934512
vt 13.32017 0.0001202077
vt 13.32017 0.1934512
vt 11.25278 0.0001202077
vt 11.25278 0.1934512
vt 8.342854 0.0001202077
vt 8.342854 0.1934512
vt 7.343083 0.0001202077
vt 7.343083 0.1934512
vt 4.581931 0.0001202077
vt 4.581931 0.1934512
vt 0.9797226 0.0001202077
vt 0.9797226 0.1934512
vt 0.000158372 0.0001202077
vt 0.000158372 0.1934512

g Tree_Nor_5.001_300_46
usemtl Tree_Nor_5.001_300_46
usemap Tree_Nor_5.001_300_46
f 1/1/1 3/3/3 2/2/2
f 1/1/1 2/2/2 4/4/4
f 1/1/1 4/4/4 5/5/5
f 1/1/1 5/5/5 6/6/6
f 6/6/6 5/5/5 7/7/7
f 6/6/6 7/7/7 8/8/8
f 8/8/8 7/7/7 9/9/9
f 8/8/8 9/9/9 10/10/10
f 10/10/10 9/9/9 11/11/11
f 10/10/10 11/11/11 12/12/12
f 13/13/13 15/15/15 14/14/14
f 13/13/13 14/14/14 16/16/16
f 16/16/16 14/14/14 17/17/17
f 16/16/16 17/17/17 18/18/18
f 18/18/18 17/17/17 19/19/19
f 18/18/18 19/19/19 20/20/20
f 20/20/20 19/19/19 21/21/21
f 20/20/20 21/21/21 22/22/22
f 22/22/22 21/21/21 23/23/23
f 22/22/22 23/23/23 24/24/24
f 24/24/24 23/23/23 25/25/25
f 24/24/24 25/25/25 26/26/26
f 26/26/26 25/25/25 27/27/27
f 26/26/26 27/27/27 28/28/28
f 29/29/29 31/31/31 30/30/30
f 29/29/29 30/30/30 32/32/32
f 32/32/32 30/30/30 33/33/33
f 32/32/32 33/33/33 34/34/34
f 34/34/34 33/33/33 35/35/35
f 34/34/34 35/35/35 36/36/36
f 36/36/36 35/35/35 37/37/37
f 36/36/36 37/37/37 38/38/38
f 38/38/38 37/37/37 39/39/39
f 38/38/38 39/39/39 40/40/40
f 40/40/40 39/39/39 41/41/41
f 40/40/40 41/41/41 42/42/42
f 42/42/42 41/41/41 43/43/43
f 42/42/42 43/43/43 44/44/44
f 44/44/44 43/43/43 45/45/45
f 44/44/44 45/45/45 46/46/46
f 45/45/45 47/47/47 46/46/46
f 45/45/45 48/48/48 47/47/47
f 49/49/49 51/51/51 50/50/50
f 49/49/49 52/52/52 51/51/51
f 52/52/52 53/53/53 51/51/51
f 52/52/52 54/54/54 53/53/53
f 54/54/54 55/55/55 53/53/53
f 54/54/54 56/56/56 55/55/55
f 55/55/55 56/56/56 57/57/57
f 55/55/55 57/57/57 58/58/58
f 58/58/58 57/57/57 59/59/59
f 58/58/58 59/59/59 60/60/60
f 61/61/61 63/63/63 62/62/62
f 61/61/61 62/62/62 64/64/64
f 65/65/65 61/61/61 64/64/64
f 65/65/65 64/64/64 66/66/66
f 65/65/65 66/66/66 67/67/67
f 65/65/65 67/67/67 68/68/68
f 69/69/69 71/71/71 70/70/70
f 69/69/69 72/72/72 71/71/71
f 72/72/72 73/73/73 71/71/71
f 72/72/72 74/74/74 73/73/73
f 73/73/73 74/74/74 75/75/75
f 73/73/73 75/75/75 76/76/76
f 76/76/76 75/75/75 77/77/77
f 76/76/76 77/77/77 78/78/78
f 78/78/78 77/77/77 79/79/79
f 78/78/78 79/79/79 80/80/80
f 81/81/81 83/83/83 82/82/82
f 81/81/81 84/84/84 83/83/83
f 85/85/85 84/84/84 81/81/81
f 85/85/85 86/86/86 84/84/84
f 87/87/87 86/86/86 85/85/85
f 87/87/87 88/88/88 86/86/86
f 89/89/89 88/88/88 87/87/87
f 89/89/89 90/90/90 88/88/88
f 91/91/91 90/90/90 89/89/89
f 91/91/91 92/92/92 90/90/90
f 93/93/93 92/92/92 91/91/91
f 93/93/93 94/94/94 92/92/92
f 95/95/95 94/94/94 93/93/93
f 95/95/95 96/96/96 94/94/94
f 97/97/97 96/96/96 95/95/95
f 97/97/97 98/98/98 96/96/96
f 99/99/99 98/98/98 97/97/97
f 99/99/99 100/100/100 98/98/98
f 101/101/101 100/100/100 99/99/99
f 101/101/101 102/102/102 100/100/100
f 103/103/103 102/102/102 101/101/101
f 103/103/103 104/104/104 102/102/102
f 105/105/105 104/104/104 103/103/103
f 105/105/105 106/106/106 104/104/104
f 107/107/107 106/106/106 105/105/105
f 107/107/107 108/108/108 106/106/106
f 109/109/109 108/108/108 107/107/107
f 109/109/109 110/110/110 108/108/108
f 109/109/109 111/111/111 110/110/110
f 109/109/109 112/112/112 111/111/111
f 111/111/111 112/112/112 113/113/113
f 111/111/111 113/113/113 114/114/114
f 114/114/114 113/113/113 115/115/115
f 114/114/114 115/115/115 116/116/116
f 116/116/116 115/115/115 117/117/117
f 116/116/116 117/117/117 118/118/118
f 118/118/118 117/117/117 119/119/119
f 118/118/118 119/119/119 120/120/120
f 120/120/120 119/119/119 121/121/121
f 120/120/120 121/121/121 122/122/122
f 122/122/122 121/121/121 123/123/123
f 122/122/122 123/123/123 124/124/124
f 124/124/124 123/123/123 125/125/125
f 124/124/124 125/125/125 126/126/126
f 126/126/126 125/125/125 127/127/127
f 126/126/126 127/127/127 128/128/128
